<svg width="80" height="80" viewBox="0 0 80 80" fill="none" xmlns="http://www.w3.org/2000/svg">
<path d="M76.4766 29.3103C72.649 29.3843 68.8214 29.3343 64.9938 29.3343H64.0374V28.3565C64.0374 20.3401 64.0374 12.3231 64.0374 4.30546C64.0374 2.15173 62.853 0.579927 60.8941 0.105987C60.5379 0.0351524 60.1746 0.0062924 59.8117 0.0199972C44.8922 0.0199972 29.9714 0.0133317 15.0493 0C14.343 0 13.8668 0.283964 13.4126 0.733908C10.6235 3.5029 7.83502 6.27388 5.04721 9.04687C3.5726 10.5167 2.07599 11.9685 0.657405 13.4903C0.280331 13.9053 0.0589951 14.4382 0.031148 14.9981C-0.000865132 33.6358 -0.0082016 52.2741 0.00913885 70.9131C0.00913885 75.1586 3.18044 78.9121 7.47221 79.83C7.6414 79.8771 7.80775 79.9338 7.97041 80H72.0367C72.5009 79.864 72.9691 79.744 73.4273 79.5881C76.8727 78.4242 78.9876 76.0505 79.8299 72.5289C79.8776 72.3607 79.9344 72.1951 80 72.033V31.2541C79.3097 29.7303 78.0992 29.2783 76.4766 29.3103ZM13.2286 5.01137V13.2803H4.95517C7.7003 10.5367 10.4954 7.74103 13.2286 5.01137ZM63.4012 77.3243C45.4578 77.3243 27.5171 77.3243 9.57907 77.3243C5.57743 77.3243 2.68024 74.4287 2.67823 70.4212C2.66623 52.5354 2.66623 34.6503 2.67823 16.7659C2.67823 16.5419 2.70425 16.316 2.72225 16.036H12.6923C15.0393 16.036 16.0257 15.0561 16.0277 12.7244C16.0277 9.70479 16.0277 6.68516 16.0277 3.66554V2.67367H59.3915C60.9322 2.67367 61.3063 3.05162 61.3063 4.61742C61.3063 26.2254 61.3003 47.8334 61.2883 69.4413C61.2883 72.367 61.8886 75.0106 64.0715 77.2523C63.7753 77.2863 63.5873 77.3243 63.4012 77.3243ZM77.3409 70.3012C77.3409 73.6768 75.4081 76.2705 72.3389 77.0884C68.2652 78.1682 64.0855 75.1206 64.0695 70.9271C64.0254 58.0987 64.0494 45.2683 64.0494 32.4399C64.0494 32.338 64.0695 32.24 64.0875 32.054H77.3149C77.3269 32.326 77.3489 32.5759 77.3489 32.8279C77.3462 45.3183 77.3436 57.8094 77.3409 70.3012Z" fill="#D39752"/>
<path d="M49.4675 31.1201C47.4666 29.1084 45.4238 27.1386 43.435 25.1209C43.0672 24.736 42.6212 24.4344 42.1269 24.2364C41.6327 24.0384 41.1017 23.9486 40.5698 23.973C37.7306 24.005 34.8935 23.985 32.0563 23.985C29.1411 23.985 26.2239 23.995 23.3087 23.985C22.8281 23.9696 22.3496 24.0556 21.9045 24.2376C21.4594 24.4195 21.0577 24.6932 20.7257 25.0409C18.6688 27.1086 16.5759 29.1364 14.5031 31.1881C12.9585 32.7159 12.9024 34.2417 14.303 35.9395C19.4451 42.1894 24.5806 48.4413 29.7093 54.6952C31.1759 56.4829 32.8666 56.4949 34.3352 54.6952C39.448 48.4813 44.5541 42.2687 49.6535 36.0575C51.1441 34.2437 51.1121 32.7739 49.4675 31.1201ZM26.43 26.7427H30.5997V30.6102H25.6637C25.9218 29.3043 26.1719 28.0405 26.43 26.7427ZM22.7665 26.8766C22.9266 26.7147 23.2647 26.7287 23.6889 26.6187C23.4128 28.0365 23.1787 29.2943 22.9106 30.5462C22.8845 30.6662 22.6604 30.8081 22.5104 30.8321C21.1318 31.0521 19.7513 31.2501 18.3087 31.4641C19.8453 29.8723 21.2899 28.3585 22.7665 26.8766ZM28.3088 48.7479L16.5519 34.4297L23.0986 33.5038C24.8874 38.5698 26.6714 43.6192 28.4508 48.6519L28.3088 48.7479ZM30.5997 46.2542L30.4817 46.2942C28.971 42.0228 27.4584 37.7513 25.9158 33.3918H30.5997V46.2542ZM41.2461 26.8446C42.7447 28.3365 44.2033 29.8683 45.7039 31.4201L41.144 30.7762C40.8759 29.4503 40.6058 28.1225 40.3097 26.6627C40.6859 26.7287 41.076 26.6747 41.2461 26.8446ZM33.3969 26.7047C34.6994 26.7047 35.9679 26.7047 37.2324 26.7167C37.315 26.7277 37.3935 26.7588 37.4612 26.8072C37.5289 26.8557 37.5836 26.9201 37.6206 26.9946C37.8747 28.1765 38.0948 29.3663 38.3349 30.6062H33.4009L33.3969 26.7047ZM33.5289 46.3022L33.4009 46.2662V33.3958H38.0828C36.5462 37.7473 35.0375 42.0227 33.5289 46.2982V46.3022ZM35.7418 48.7019L35.5758 48.6039C36.152 46.9721 36.7296 45.341 37.3085 43.7105C38.4189 40.5549 39.5394 37.4033 40.6258 34.2397C40.8079 33.7078 41.026 33.4858 41.6162 33.5798C43.507 33.8798 45.4038 34.1357 47.4526 34.4297C43.499 39.2471 39.6194 43.9765 35.7418 48.7039V48.7019Z" fill="#D39752"/>
<path d="M45.3318 8.21697C45.3118 6.3812 44.2493 5.33533 42.4006 5.33333C38.9325 5.33333 35.469 5.33333 32.0103 5.33333C28.5209 5.33333 25.0321 5.33333 21.544 5.33333C19.7813 5.33333 18.6768 6.4312 18.6368 8.19898C18.6248 8.7989 18.6368 9.39883 18.6368 9.99875C18.6368 12.3985 19.5952 13.3583 21.9942 13.3583C28.6636 13.3583 35.333 13.3583 42.0024 13.3583C42.2885 13.3583 42.5766 13.3583 42.8607 13.3363C44.3173 13.2024 45.2957 12.1745 45.3358 10.7207C45.3478 9.88476 45.3398 9.05087 45.3318 8.21697ZM42.6046 10.5867H21.3959V8.06299H42.6046V10.5867Z" fill="#D39752"/>
<path d="M25.3215 67.9915C25.3261 68.1675 25.2953 68.3426 25.2309 68.5064C25.1665 68.6703 25.0699 68.8196 24.9468 68.9454C24.8236 69.0713 24.6765 69.1712 24.514 69.2392C24.3516 69.3072 24.1771 69.3419 24.001 69.3413C23.3267 69.3773 22.6484 69.3533 21.9722 69.3533C17.0368 69.3533 12.0941 69.3533 7.14407 69.3533C6.80883 69.367 6.47391 69.3196 6.15566 69.2133C5.89029 69.1067 5.66711 68.9162 5.52019 68.6709C5.37328 68.4256 5.31069 68.139 5.34198 67.8548C5.37326 67.5707 5.49671 67.3045 5.69348 67.097C5.89025 66.8895 6.14954 66.7521 6.43178 66.7057C6.71551 66.667 7.00182 66.6503 7.28813 66.6557H23.2947C23.5544 66.649 23.8142 66.6563 24.073 66.6777C24.8553 66.7557 25.3195 67.2516 25.3215 67.9915Z" fill="#D39752"/>
<path d="M24.023 73.3088C24.035 74.0727 23.4108 74.6627 22.5284 74.6667C19.9013 74.6767 17.2742 74.6667 14.6472 74.6667C12.0201 74.6667 9.44501 74.7007 6.84395 74.6327C6.58645 74.6055 6.33706 74.5269 6.11055 74.4015C5.88405 74.2761 5.68506 74.1065 5.52541 73.9028C5.32532 73.6248 5.37134 72.9529 5.57943 72.6289C5.71775 72.4537 5.89158 72.3097 6.0895 72.2063C6.28743 72.1029 6.50498 72.0425 6.7279 72.029C12.0081 71.989 17.2882 71.997 22.5684 72.007C23.4268 72.003 24.013 72.5669 24.023 73.3088Z" fill="#D39752"/>
<path d="M22.6544 57.3928C22.6612 57.6702 22.5716 57.9413 22.4009 58.1601C22.2302 58.3789 21.9889 58.5317 21.7181 58.5927C21.3902 58.6686 21.0541 58.7029 20.7176 58.6947C16.2465 58.6947 11.774 58.6947 7.30014 58.6947C5.98159 58.6947 5.33333 58.2447 5.32932 57.3368C5.32532 56.429 5.97559 55.965 7.28413 55.963H14.0709C16.3338 55.963 18.5948 55.963 20.8577 55.963C21.1675 55.9536 21.4768 55.9934 21.7741 56.081C22.0537 56.158 22.2964 56.3327 22.458 56.5735C22.6196 56.8143 22.6893 57.105 22.6544 57.3928Z" fill="#D39752"/>
<path d="M18.6808 51.9935C18.6808 52.7394 18.1226 53.3233 17.2602 53.3373C15.4915 53.3673 13.7208 53.3473 11.95 53.3373C10.1793 53.3273 8.46261 53.3613 6.7199 53.3373C5.84754 53.3213 5.30732 52.7374 5.31932 51.9775C5.33133 51.2176 5.91957 50.6617 6.76992 50.6577C10.258 50.643 13.7461 50.643 17.2342 50.6577C18.0906 50.6517 18.6728 51.2316 18.6808 51.9935Z" fill="#D39752"/>
<path d="M14.6772 62.6562C14.6772 63.4841 14.0549 64.014 13.0305 64.024C12.0061 64.034 11.0017 64.024 9.98724 64.024C8.97282 64.024 7.9584 64.034 6.94599 64.024C5.93357 64.014 5.30732 63.4601 5.32732 62.6242C5.34733 61.7883 5.93958 61.3063 6.92798 61.2983C8.95682 61.2823 10.985 61.2823 13.0125 61.2983C14.0669 61.3063 14.6752 61.8223 14.6772 62.6562Z" fill="#D39752"/>
<path d="M12.0161 46.6302C12.0381 47.3801 11.4678 47.956 10.6275 47.988C9.98124 48.012 9.33097 47.988 8.6827 47.988C8.00842 47.988 7.33415 48.01 6.65987 47.988C5.85954 47.952 5.32332 47.4041 5.32532 46.6622C5.32558 46.4865 5.36065 46.3127 5.42851 46.1506C5.49636 45.9886 5.59567 45.8416 5.72068 45.7181C5.84569 45.5947 5.99394 45.4972 6.15686 45.4313C6.31978 45.3654 6.49414 45.3325 6.66988 45.3343C7.99242 45.3063 9.31496 45.3103 10.6375 45.3343C10.9912 45.3272 11.3336 45.4589 11.5913 45.7012C11.849 45.9434 12.0015 46.2769 12.0161 46.6302Z" fill="#D39752"/>
<path d="M18.7949 22.8531C18.5187 23.1751 18.2746 23.703 17.8925 23.837C17.4783 23.981 16.79 23.927 16.4759 23.661C15.4783 22.7845 14.5336 21.8497 13.6467 20.8614C13.4165 20.6224 13.2903 20.302 13.2959 19.9703C13.3016 19.6386 13.4385 19.3226 13.6768 19.0916C14.1369 18.5917 14.9153 18.4557 15.4335 18.9296C16.4699 19.8755 17.4443 20.8874 18.4147 21.9033C18.5948 22.0952 18.6328 22.4232 18.7949 22.8531Z" fill="#D39752"/>
<path d="M50.872 19.8855C50.5759 20.3935 50.4279 20.7894 50.1617 21.0754C49.3814 21.9113 48.5611 22.7132 47.7388 23.5091C47.0505 24.173 46.3222 24.205 45.7379 23.635C45.1537 23.0651 45.1817 22.2712 45.862 21.5773C46.6823 20.7414 47.5107 19.9142 48.347 19.0956C48.7712 18.6797 49.3094 18.4617 49.8316 18.7897C50.2258 19.0356 50.4999 19.4796 50.872 19.8855Z" fill="#D39752"/>
<path d="M33.3148 20.0915C33.3034 20.4328 33.1592 20.7561 32.913 20.9929C32.6668 21.2296 32.3379 21.3611 31.9963 21.3593C31.6553 21.3517 31.3294 21.217 31.0825 20.9818C30.8356 20.7465 30.6856 20.4276 30.6617 20.0875C30.6197 19.5976 30.6617 19.1036 30.6617 18.6117C30.6617 18.1977 30.6417 17.7818 30.6617 17.3678C30.7077 16.5819 31.262 16.012 31.9743 15.986C32.1499 15.9818 32.3246 16.0125 32.4882 16.0763C32.6518 16.1402 32.8011 16.236 32.9274 16.358C33.0536 16.4801 33.1543 16.6261 33.2236 16.7874C33.2928 16.9488 33.3293 17.1223 33.3308 17.2978C33.3725 18.2287 33.3672 19.1611 33.3148 20.0915Z" fill="#D39752"/>
<path d="M58.6832 33.3438C58.6786 33.6867 58.5433 34.0149 58.305 34.2616C58.0668 34.5083 57.7434 34.6549 57.4007 34.6717C56.9345 34.7037 56.4643 34.6717 56.0001 34.6717C55.5359 34.6717 55.0598 34.6997 54.5996 34.6717C54.2582 34.6488 53.9379 34.4989 53.7016 34.2517C53.4653 34.0044 53.3303 33.6777 53.323 33.3358C53.3245 32.9932 53.4599 32.6647 53.7002 32.4204C53.9405 32.1761 54.2668 32.0353 54.6096 32.028C55.546 31.994 56.4843 31.992 57.4207 32.028C57.7615 32.039 58.0844 32.1828 58.3203 32.4287C58.5563 32.6746 58.6866 33.0031 58.6832 33.3438Z" fill="#D39752"/>
<path d="M10.6555 33.3238C10.6555 34.1117 10.1213 34.6457 9.25494 34.6777C8.83877 34.6937 8.4226 34.6777 8.00643 34.6777C7.59025 34.6777 7.12006 34.6957 6.67788 34.6777C6.32258 34.6798 5.98069 34.5422 5.7261 34.2945C5.47151 34.0468 5.32467 33.7089 5.31732 33.3538C5.30732 32.6139 5.84154 32.05 6.64787 32.022C7.53223 31.9913 8.41726 31.9913 9.30296 32.022C10.1453 32.044 10.6495 32.5599 10.6555 33.3238Z" fill="#D39752"/>
<path d="M47.1145 53.5933C45.0567 53.5933 43.0452 54.2032 41.3342 55.3458C39.6232 56.4884 38.2897 58.1125 37.5022 60.0126C36.7147 61.9127 36.5087 64.0035 36.9101 66.0207C37.3116 68.0378 38.3025 69.8907 39.7576 71.345C41.2126 72.7993 43.0665 73.7897 45.0847 74.1909C47.1029 74.5921 49.1949 74.3862 51.096 73.5992C52.9972 72.8121 54.6221 71.4793 55.7653 69.7692C56.9086 68.0592 57.5188 66.0487 57.5188 63.992C57.5156 61.2351 56.4184 58.592 54.4679 56.6425C52.5174 54.6931 49.8729 53.5965 47.1145 53.5933ZM47.1145 72.191C45.492 72.191 43.906 71.7101 42.5569 70.8092C41.2079 69.9083 40.1565 68.6278 39.5356 67.1296C38.9147 65.6315 38.7522 63.9829 39.0687 62.3925C39.3853 60.802 40.1666 59.3411 41.3138 58.1945C42.4611 57.0478 43.9228 56.2669 45.5141 55.9506C47.1054 55.6342 48.7548 55.7966 50.2538 56.4171C51.7528 57.0377 53.0339 58.0886 53.9353 59.4369C54.8367 60.7852 55.3179 62.3704 55.3179 63.992C55.3173 66.1676 54.4533 68.2542 52.9154 69.7939C51.3775 71.3336 49.2913 72.2007 47.1145 72.205V72.191Z" fill="#D39752"/>
<path d="M51.6584 63.992C51.6584 64.2715 51.5473 64.5396 51.3495 64.7372C51.1518 64.9348 50.8836 65.0459 50.6039 65.0459H48.2069V67.7135C48.2069 68.0052 48.091 68.285 47.8846 68.4913C47.6783 68.6975 47.3983 68.8134 47.1065 68.8134C46.8146 68.8134 46.5347 68.6975 46.3284 68.4913C46.122 68.285 46.006 68.0052 46.006 67.7135V65.0539H43.6251C43.3454 65.0539 43.0772 64.9428 42.8795 64.7452C42.6817 64.5476 42.5706 64.2795 42.5706 64C42.5706 63.7205 42.6817 63.4524 42.8795 63.2548C43.0772 63.0572 43.3454 62.9461 43.6251 62.9461H46.016V60.2805C46.016 59.9888 46.132 59.709 46.3384 59.5027C46.5447 59.2965 46.8246 59.1806 47.1165 59.1806C47.4083 59.1806 47.6883 59.2965 47.8946 59.5027C48.101 59.709 48.2169 59.9888 48.2169 60.2805V62.9461H50.6179C50.8936 62.9503 51.1567 63.062 51.3511 63.2574C51.5455 63.4528 51.6558 63.7165 51.6584 63.992Z" fill="#D39752"/>
</svg>
