<svg width="80" height="80" viewBox="0 0 80 80" fill="none" xmlns="http://www.w3.org/2000/svg">
<path d="M68.0756 80C67.6634 79.6957 67.2287 79.4174 66.8478 79.0783C66.3505 78.6349 65.9053 78.1358 65.4253 77.6715C65.0611 77.3328 64.835 76.8713 64.7906 76.376C64.7796 76.3114 64.7534 76.2504 64.714 76.1981C64.6747 76.1458 64.6234 76.1036 64.5645 76.0751C64.0795 75.9473 63.5833 75.867 63.0828 75.8351C62.2585 75.8212 61.4325 75.8925 60.6065 75.9256C59.8314 75.9676 59.0565 75.8402 58.3357 75.5522C57.6149 75.2641 56.9655 74.8225 56.4328 74.2579C54.7958 72.614 53.156 70.9735 51.5132 69.3366C49.755 67.5733 50.1393 65.0656 52.3409 63.9127C52.3862 63.8901 52.4261 63.8536 52.5792 63.7388C52.4411 63.6646 52.3102 63.5778 52.1879 63.4797C50.4402 61.7407 48.6925 60.0017 46.9535 58.2523C46.5699 57.8785 46.2928 57.4092 46.1506 56.8928C46.0084 56.3764 46.0062 55.8314 46.1443 55.3139C46.2824 54.7964 46.5558 54.325 46.9364 53.9481C47.317 53.5712 47.791 53.3024 48.3099 53.1693C48.8204 53.0235 49.3611 53.0208 49.873 53.1616C50.3849 53.3023 50.8482 53.5811 51.2123 53.9675C52.5009 55.2404 53.7791 56.5273 55.059 57.8106C55.1616 57.915 55.2486 58.035 55.3703 58.181C55.4729 58.0384 55.5442 57.9463 55.6016 57.8541C55.8581 57.4534 56.2131 57.1252 56.6327 56.9008C57.0522 56.6765 57.5223 56.5634 57.998 56.5725C58.2432 56.5725 58.3649 56.5203 58.4553 56.2699C58.6404 55.7358 58.9905 55.2744 59.455 54.9525C59.9195 54.6305 60.4745 54.4646 61.0395 54.4787C61.1341 54.4946 61.2313 54.474 61.3113 54.4211C61.3913 54.3681 61.4483 54.2868 61.4708 54.1936C62.2151 52.2998 64.5088 51.8198 65.9557 53.258C68.3486 55.6346 70.7328 58.0199 73.1083 60.4139C74.2578 61.5755 75.0386 62.9841 75.6733 64.4779C75.7255 64.5996 75.7742 64.7213 75.8385 64.8778C76.7741 64.6466 77.4036 65.1422 77.9862 65.7769C78.3445 66.1699 78.7618 66.5125 79.1061 66.9177C79.4505 67.3228 79.7044 67.7437 80 68.161V68.881C79.7913 69.2166 79.6383 69.6044 79.3687 69.8774C76.286 72.9809 73.1906 76.0722 70.0824 79.1514C69.7502 79.48 69.3277 79.72 68.9485 80H68.0756ZM52.3131 67.0568C52.4244 67.2533 52.5427 67.6254 52.7879 67.8758C54.4764 69.5974 56.1894 71.2947 57.8954 73.0006C58.3902 73.5347 59.0579 73.8765 59.7805 73.9657C60.4309 74.0078 61.0835 74.0037 61.7334 73.9536C63.0811 73.8875 64.4254 73.7797 65.6844 74.4474C65.7679 74.4909 65.9783 74.3953 66.0687 74.3048C68.7225 71.6639 71.3698 69.0154 74.0108 66.3595C74.0657 66.2957 74.1055 66.2203 74.1272 66.139C74.1489 66.0577 74.1519 65.9726 74.136 65.8899C73.5952 64.297 72.8144 62.8363 71.6179 61.6329C69.3352 59.3363 67.0455 57.0455 64.7488 54.7605C64.6679 54.6725 64.5807 54.5906 64.488 54.5153C64.0063 54.1536 63.2863 54.4092 63.2324 55.0039C63.2098 55.2561 63.3715 55.5534 63.5193 55.7882C63.6536 55.9795 63.7178 56.2114 63.701 56.4445C63.6842 56.6777 63.5875 56.8979 63.4272 57.0681C63.2591 57.2337 63.0351 57.3306 62.7993 57.3396C62.5634 57.3486 62.3327 57.2691 62.1525 57.1168C62.0081 57.002 61.8829 56.8611 61.749 56.7307C61.3282 56.3221 60.8343 56.2716 60.4726 56.602C60.1109 56.9324 60.1109 57.4037 60.4726 57.8819C60.8204 58.3236 60.7873 58.8662 60.41 59.2157C60.2246 59.3816 59.983 59.4707 59.7343 59.4649C59.4856 59.4591 59.2484 59.3588 59.0709 59.1844C58.897 59.0331 58.7562 58.8575 58.5823 58.7132C58.4647 58.6089 58.3222 58.5368 58.1685 58.5037C58.0149 58.4707 57.8553 58.4778 57.7053 58.5245C57.5552 58.5712 57.4198 58.6559 57.312 58.7703C57.2043 58.8846 57.1279 59.0249 57.0902 59.1775C56.9789 59.5566 57.1337 59.8435 57.3632 60.1252C57.4981 60.2748 57.5809 60.4641 57.5994 60.6646C57.6179 60.8652 57.571 61.0664 57.4658 61.2382C57.3739 61.411 57.2264 61.5477 57.0472 61.6263C56.8679 61.7049 56.6674 61.7207 56.4781 61.6712C56.2146 61.586 55.9758 61.438 55.7824 61.2399C53.8695 59.3461 51.9705 57.4385 50.0663 55.5343C49.9669 55.4267 49.8612 55.3251 49.7498 55.23C49.5881 55.1014 49.3935 55.0209 49.1882 54.9977C48.983 54.9745 48.7753 55.0095 48.589 55.0988C48.4027 55.188 48.2453 55.3279 48.1347 55.5024C48.0242 55.6769 47.9649 55.879 47.9638 56.0856C47.9638 56.4786 48.1569 56.7603 48.4212 57.0229C51.7833 60.3849 55.1454 63.7469 58.5075 67.1089C58.6118 67.2133 58.7197 67.3124 58.8153 67.4237C58.9669 67.603 59.0488 67.8309 59.046 68.0657C59.0431 68.3005 58.9556 68.5264 58.7996 68.7019C58.6364 68.8805 58.4108 68.9897 58.1694 69.0069C57.928 69.024 57.6892 68.9478 57.5023 68.794C57.37 68.6823 57.2446 68.5627 57.1267 68.4358C56.2868 67.5976 55.4555 66.7525 54.6051 65.9247C54.4199 65.7289 54.1769 65.5973 53.9117 65.5491C53.6464 65.501 53.3727 65.5387 53.1304 65.6569C52.6122 65.8934 52.3792 66.3316 52.3131 67.0568ZM68.486 77.9602L77.908 68.5384L76.2855 66.9107L66.8652 76.3325L68.486 77.9602Z" fill="#D39752"/>
<path d="M79.9948 23.2849C79.6939 23.8066 79.2453 23.9371 78.6592 23.9353C71.5304 23.9191 64.4004 23.9156 57.2693 23.9249C56.3859 23.9249 56.0607 23.6049 56.0607 22.7319C56.0607 21.2799 56.1024 19.8261 56.052 18.3758C55.9598 15.7673 57.7041 13.9205 59.7439 13.2702C61.363 12.7485 62.9733 12.2059 64.7088 11.5312C64.5721 11.4793 64.4433 11.4084 64.3262 11.3208C61.4864 8.4184 61.8742 3.22581 65.0897 0.930354C65.7748 0.441701 66.5505 0.194766 67.3504 0H68.7103C68.7655 0.0303988 68.8238 0.0548803 68.8842 0.0730371C69.6744 0.205734 70.4204 0.528609 71.058 1.01383C73.1604 2.5876 74.1326 5.64473 73.3883 8.33493C73.0523 9.60163 72.3644 10.7472 71.404 11.639C71.5536 11.6929 71.6597 11.7346 71.7675 11.7694C73.2926 12.2755 74.823 12.7658 76.3428 13.2858C78.0297 13.8631 79.2261 14.9535 79.7792 16.682C79.8591 16.9324 79.9183 17.1881 79.9878 17.442L79.9948 23.2849ZM78.0819 21.9946C78.0819 20.8625 78.0819 19.7722 78.0819 18.6819C78.0994 18.3225 78.0855 17.9623 78.0401 17.6054C77.7915 16.2369 76.8802 15.4734 75.6194 15.0578C73.8648 14.4787 72.1083 13.9066 70.3554 13.3188C69.2372 12.9467 68.0721 12.7085 66.94 13.0354C64.568 13.7188 62.2081 14.4579 59.8865 15.2961C58.617 15.7569 57.9736 16.809 57.9736 18.2036C57.9736 19.3635 57.9736 20.5234 57.9736 21.6816C57.9795 21.7836 57.9911 21.8852 58.0084 21.9859L78.0819 21.9946ZM64.3088 6.44118C64.3096 7.5738 64.6722 8.67656 65.3436 9.58873C66.6948 11.3816 69.0529 11.4877 70.5171 9.82523C72.1588 7.96453 72.1223 4.82915 70.4372 3.01191C69.0459 1.51465 66.8443 1.55639 65.5227 3.11103C64.7036 4.07791 64.3436 5.21172 64.3088 6.44118Z" fill="#D39752"/>
<path d="M0 73.4406C0.199987 72.6667 0.453884 71.9155 0.947764 71.2686C1.64112 70.3625 2.5988 69.6941 3.68846 69.3557C5.15271 68.8758 6.61638 68.3935 8.07947 67.9089C8.23077 67.8602 8.37858 67.8011 8.54205 67.735C8.27424 67.4289 8.00644 67.1542 7.77167 66.8498C5.51095 63.9075 5.99439 59.3601 8.81508 57.1776C11.1993 55.3308 14.4408 55.8612 16.2511 58.3949C17.2263 59.7621 17.6876 61.4297 17.5536 63.1037C17.4197 64.7777 16.6992 66.3507 15.519 67.5454L15.3451 67.735L17.058 68.3071C18.1171 68.6549 19.1761 69.0027 20.2369 69.3505C22.3672 70.0461 24.0123 71.9103 23.9341 74.4561C23.8889 75.8943 23.908 77.3342 23.9341 78.774C23.9445 79.3253 23.7724 79.727 23.2837 79.9913H0.639958L0 79.3601V73.4406ZM21.9655 78.0871C21.9801 78.0482 21.9912 78.008 21.9986 77.9671C21.9986 76.8078 21.9986 75.6485 21.9986 74.4892C21.9986 72.8058 21.2299 71.7346 19.63 71.2008C17.8145 70.5933 15.9978 69.9916 14.1799 69.3957C12.9383 68.9871 11.6584 68.8445 10.4045 69.2218C8.21512 69.8809 6.03613 70.5747 3.89018 71.3608C2.57722 71.8355 1.88857 72.8702 1.91292 74.3275C1.92335 75.4334 1.91292 76.5412 1.91292 77.6472V78.0871H21.9655ZM15.672 62.558C15.6595 61.4537 15.3093 60.3796 14.6686 59.4801C13.2774 57.5811 10.8428 57.5167 9.34548 59.3375C7.88818 61.1182 7.88818 64.0084 9.34548 65.7873C10.8358 67.608 13.2722 67.542 14.6669 65.6447C15.3125 64.7416 15.6635 63.6612 15.672 62.5511V62.558Z" fill="#D39752"/>
<path d="M12.6392 0.00695608C12.8913 0.0765152 13.147 0.137379 13.3956 0.217372C15.472 0.888618 16.6754 2.40501 17.258 4.41179C18.0301 7.08112 17.4319 9.45483 15.4964 11.4842C15.4599 11.5225 15.4251 11.5607 15.392 11.6025C15.392 11.6025 15.392 11.6286 15.3816 11.672C16.7728 12.1294 18.164 12.5972 19.5674 13.0493C20.4961 13.3484 21.4038 13.6753 22.1568 14.3309C23.2941 15.3221 23.9063 16.5603 23.9167 18.0732C23.9289 19.6592 23.9167 21.2451 23.9167 22.8311C23.9167 23.5458 23.5463 23.9231 22.842 23.9231C15.5775 23.9231 8.31424 23.9231 1.05211 23.9231C0.834075 23.9285 0.61909 23.8712 0.432622 23.7581C0.246153 23.6449 0.0960165 23.4808 0 23.2849V17.3724C0.0249821 17.3264 0.0453692 17.2781 0.0608657 17.2281C0.488664 15.1796 1.77728 13.924 3.7128 13.2702C4.34754 13.0493 4.97359 12.8476 5.60311 12.6372L8.55944 11.6546C8.49162 11.5781 8.45858 11.5381 8.4238 11.5016C6.46914 9.45657 5.86049 7.05678 6.66217 4.3544C7.25344 2.36501 8.46032 0.876446 10.5193 0.206939C10.7697 0.126946 11.0254 0.0695592 11.2793 0.00173902L12.6392 0.00695608ZM1.92683 21.9824H22.0038C22.0038 20.8921 22.0038 19.8278 22.0038 18.7636C22.0219 18.3647 22.0051 17.9649 21.9534 17.5689C21.7134 16.2908 20.8856 15.5204 19.6926 15.1187C17.8284 14.4909 15.959 13.8823 14.0895 13.2702C13.0339 12.9224 11.9279 12.7328 10.8654 13.0406C8.49568 13.7269 6.14395 14.4805 3.81019 15.3013C2.75286 15.6699 2.03291 16.5186 1.95292 17.6559C1.85031 19.0801 1.92683 20.5269 1.92683 21.9824ZM8.23425 6.44118C8.23475 7.5887 8.60692 8.70519 9.29505 9.62351C10.5124 11.2199 12.6114 11.4634 14.0773 10.1904C16.145 8.39579 16.1729 4.61873 14.133 2.78932C12.714 1.51639 10.6863 1.65551 9.44634 3.11625C8.629 4.08139 8.27424 5.22389 8.23425 6.44118Z" fill="#D39752"/>
<path d="M39.034 66.2429C39.034 64.617 39.034 63.0589 39.034 61.5007C39.034 60.8591 39.4513 60.4487 40.0478 60.4765C40.2974 60.4891 40.5319 60.5998 40.7003 60.7845C40.8687 60.9691 40.9573 61.2128 40.9469 61.4625C40.955 63.3684 40.955 65.2743 40.9469 67.1803C40.9509 67.3111 40.9278 67.4413 40.8789 67.5628C40.8301 67.6842 40.7567 67.7942 40.6632 67.8859C40.5698 67.9775 40.4583 68.0488 40.336 68.0953C40.2136 68.1418 40.0829 68.1624 39.9522 68.1558C39.3661 68.1663 38.7801 68.1558 38.1923 68.1558H23.2767C23.1446 68.1558 23.0107 68.1558 22.8785 68.1558C22.6248 68.1501 22.3839 68.0438 22.2086 67.8603C22.0333 67.6769 21.938 67.4313 21.9438 67.1776C21.9496 66.924 22.0559 66.683 22.2393 66.5077C22.4227 66.3324 22.6683 66.2372 22.922 66.2429C23.0402 66.2429 23.162 66.2429 23.282 66.2429H39.034Z" fill="#D39752"/>
<path d="M67.06 31.3903V30.7504C67.06 29.2844 67.06 27.8185 67.06 26.3525C67.06 25.9769 67.1278 25.6326 67.4478 25.3943C67.5915 25.2857 67.7632 25.2201 67.9427 25.205C68.1223 25.19 68.3024 25.2261 68.4623 25.3093C68.6221 25.3925 68.7551 25.5193 68.8458 25.675C68.9364 25.8307 68.9811 26.009 68.9746 26.189C68.9746 28.2283 68.9746 30.2675 68.9746 32.3068V32.352C68.9503 32.9397 68.6094 33.2945 68.0199 33.3084C67.3678 33.3241 66.7139 33.3084 66.06 33.3084C63.9419 33.3084 61.8232 33.3084 59.7039 33.3084C59.0222 33.3084 58.624 32.9432 58.6275 32.3502C58.6224 32.1354 58.6938 31.9258 58.8288 31.7586C58.9638 31.5914 59.1537 31.4776 59.3648 31.4373C59.5478 31.4044 59.7337 31.3898 59.9196 31.3938C62.1223 31.3938 64.321 31.3938 66.5157 31.3938L67.06 31.3903Z" fill="#D39752"/>
<path d="M12.8983 31.3903H19.9239C20.0439 31.3903 20.1639 31.3903 20.2839 31.3903C20.8856 31.4338 21.2873 31.8338 21.2734 32.3763C21.2595 32.9189 20.8543 33.3015 20.23 33.3015C17.4974 33.3084 14.7654 33.3084 12.034 33.3015C11.3627 33.3015 10.9906 32.9363 10.9906 32.2581C10.9802 30.2443 10.9802 28.2318 10.9906 26.2203C10.9906 25.5891 11.4045 25.1769 11.9697 25.1909C12.5348 25.2048 12.8948 25.6013 12.8966 26.2586C12.8966 27.8045 12.8966 29.3505 12.8966 30.8964L12.8983 31.3903Z" fill="#D39752"/>
<path d="M52.3983 26.9159C50.3251 25.8977 48.0684 25.3064 45.7622 25.1769C45.284 25.1439 44.8023 25.1265 44.3327 25.1265C42.308 25.1225 40.2957 25.4443 38.3731 26.0795C37.9053 26.2342 37.8323 26.3003 37.801 26.7298H37.7697C37.6341 26.7142 37.4949 26.6985 37.3541 26.6881C36.7245 26.6411 36.1072 26.6185 35.5246 26.6185C34.6493 26.6167 33.7748 26.6748 32.9074 26.7924C30.8655 27.0456 28.8876 27.6728 27.073 28.6427C26.9667 28.6922 26.8777 28.7726 26.8179 28.8734C26.758 28.9743 26.7299 29.0908 26.7374 29.2079C26.7374 32.5224 26.7374 35.889 26.7374 39.1479V42.1998C26.7374 42.5476 26.8574 42.7215 27.0956 42.7215C27.2167 42.7138 27.3349 42.6819 27.4434 42.6276C27.6625 42.5319 27.8799 42.4346 28.0973 42.3354C28.7551 42.0221 29.4297 41.7452 30.118 41.5059C31.8327 40.9534 33.624 40.6752 35.4255 40.6817C36.0637 40.6817 36.7228 40.7147 37.3819 40.7808L37.9036 40.8295L38.1575 40.8521L38.3314 40.8695L38.3488 40.6956L38.394 40.2591L38.4114 40.0852L38.2375 40.0626C37.3397 39.9454 36.4352 39.8873 35.5298 39.8887C34.5561 39.8887 33.5837 39.9602 32.6205 40.1026C30.8507 40.3526 29.1316 40.8808 27.5269 41.6677V41.5686C27.5269 40.6411 27.5269 39.7136 27.5269 38.7862C27.5269 35.8473 27.5269 32.8076 27.5095 29.8183C27.5095 29.4009 27.6191 29.2288 28.0103 29.0427C29.9706 28.1296 32.0846 27.5922 34.243 27.4585C34.6916 27.4272 35.1438 27.4115 35.5872 27.4115C37.3476 27.4089 39.099 27.6614 40.7869 28.161C40.893 28.1923 40.8982 28.1975 40.8965 28.3175C40.8965 29.2392 40.8965 30.1748 40.8965 31.079C40.8965 31.4268 40.8965 31.7746 40.8965 32.1224L40.7521 31.9885C40.6539 31.8761 40.5177 31.8036 40.3695 31.7851C40.2897 31.7953 40.2133 31.8238 40.1463 31.8685C40.0793 31.9131 40.0236 31.9726 39.9835 32.0424C39.8096 32.2581 39.6635 32.4876 39.5174 32.7085L39.4374 32.8337L39.427 32.8232L39.0409 32.4389C38.6096 32.0094 38.1627 31.5694 37.7297 31.1225C37.6567 31.0417 37.5673 30.9776 37.4674 30.9344C37.3675 30.8912 37.2594 30.8699 37.1506 30.8721H34.5925C33.5004 30.8721 32.3701 30.8721 31.2588 30.8721C31.0647 30.8805 30.8798 30.9575 30.7371 31.0895C30.2154 31.599 29.6937 32.1328 29.172 32.6371L28.7512 33.0597C28.4173 33.3936 28.419 33.5484 28.7512 33.884C30.4241 35.5604 32.0982 37.2356 33.7734 38.9096C33.9265 39.0609 34.0465 39.1809 34.2065 39.1809C34.3664 39.1809 34.4864 39.0609 34.6377 38.9079L36.3454 37.2211L39.38 34.1883C39.3836 34.1838 39.3877 34.1798 39.3922 34.1761C39.5352 34.6242 39.7938 35.0266 40.1417 35.343C40.5243 35.7238 40.8912 36.1012 41.279 36.5029L41.6442 36.8803L41.3469 37.1342C41.0182 37.4159 40.7052 37.6837 40.3904 37.9654C40.0958 38.2084 39.8735 38.5276 39.7478 38.8882C39.6221 39.2488 39.5977 39.6369 39.6774 40.0104C39.7122 40.2052 39.7452 40.3982 39.78 40.5912L39.8026 40.7217C39.5491 40.7966 39.3236 40.9452 39.1548 41.1487C38.986 41.3521 38.8816 41.6012 38.8548 41.8642C38.7801 42.4467 39.0287 42.9076 39.6078 43.2554C40.3434 43.7005 40.9991 44.1144 41.6094 44.5196C41.9225 44.7248 42.232 44.9509 42.5294 45.1682L42.9972 45.5056C43.0407 45.5369 43.0747 45.5796 43.0956 45.629C43.1164 45.6784 43.1233 45.7325 43.1154 45.7856C43.1154 46.9176 43.1154 48.0689 43.1154 49.1818V50.533C40.8475 49.6427 38.434 49.181 35.9976 49.1714C33.7081 49.1853 31.4375 49.5887 29.2833 50.3643V43.0606H28.6399L28.5877 43.1215V43.1302C28.5686 43.1476 28.5533 43.1688 28.5428 43.1924C28.5323 43.2161 28.5269 43.2417 28.5268 43.2675C28.5268 45.8273 28.5268 48.3888 28.5268 50.9521C28.5213 51.0596 28.5553 51.1654 28.6225 51.2495C28.6578 51.2883 28.7011 51.319 28.7494 51.3394C28.7978 51.3598 28.85 51.3695 28.9025 51.3677C28.9556 51.368 29.0084 51.3598 29.059 51.3433C29.1645 51.3117 29.2679 51.2734 29.3685 51.2286L29.5111 51.1695C31.5593 50.3806 33.7367 49.9808 35.9316 49.9904C36.5107 49.9904 37.1037 50.0165 37.7001 50.0687C39.6045 50.213 41.4687 50.691 43.2076 51.4807C43.3053 51.531 43.4126 51.5601 43.5224 51.5659C43.7693 51.5659 43.8945 51.3781 43.8945 51.0095V46.3334L44.0684 46.4846C44.4806 46.8568 44.8701 47.2063 45.2544 47.5663C45.3406 47.6516 45.4035 47.7576 45.437 47.8741C45.5553 48.3071 45.6683 48.7436 45.7848 49.1766C45.9135 49.667 46.0457 50.1748 46.1831 50.6704C46.2088 50.7668 46.2537 50.8571 46.3149 50.936C46.3761 51.0148 46.4525 51.0806 46.5396 51.1295C47.121 51.4039 47.7556 51.5476 48.3986 51.5503C48.6675 51.5494 48.9358 51.5244 49.2003 51.4755C50.7532 51.1903 51.9096 50.3087 52.6383 48.8566C52.7123 48.7425 52.7428 48.6056 52.7243 48.4709C52.7058 48.3362 52.6395 48.2127 52.5374 48.1228C51.741 47.2863 51.0454 46.542 50.4089 45.843C50.3098 45.7318 50.2409 45.5971 50.2089 45.4517C50.035 44.6309 49.882 43.7927 49.7254 42.9823C49.6715 42.6971 49.6159 42.412 49.5602 42.1268C49.4715 41.6694 49.3863 41.2138 49.2942 40.7512L49.2298 40.4208L49.4281 40.4747C50.4685 40.7692 51.4734 41.1775 52.4244 41.692C52.5474 41.7725 52.6884 41.8215 52.8348 41.8346C53.1948 41.8346 53.1948 41.4033 53.1948 41.2225V28.1784C53.1843 27.3472 53.1478 27.2881 52.3983 26.9159ZM34.2134 31.9103L35.1386 33.0702H33.2865L33.4222 32.8963L34.2134 31.9103ZM29.9719 32.9658C30.3911 32.5502 30.8258 32.1172 31.2553 31.6981C31.2855 31.6788 31.3204 31.668 31.3562 31.6668H33.3891C33.0413 32.105 32.6813 32.5554 32.3231 32.9936C32.2939 33.0328 32.2557 33.0644 32.2118 33.0858C31.6657 33.0858 31.1249 33.0858 30.6658 33.0858H29.8502L29.9719 32.9658ZM30.4676 34.4387L29.9111 33.8753H30.8623C31.191 33.8753 31.6205 33.8753 32.057 33.8753C32.0936 33.8796 32.129 33.8909 32.1614 33.9083C32.5353 35.0074 32.8952 36.0908 33.2761 37.2368L30.4676 34.4387ZM34.2134 37.5272L32.9961 33.891H35.4307L34.2134 37.5272ZM35.1507 37.2454C35.2574 36.9324 35.3617 36.6206 35.4638 36.3099L35.6568 35.7325C35.8498 35.15 36.0498 34.55 36.2515 33.9605C36.2632 33.9334 36.2797 33.9087 36.3002 33.8875C36.8532 33.8875 37.4115 33.8788 37.8845 33.8788H38.521L35.1507 37.2454ZM37.761 33.0928C37.3141 33.0928 36.7854 33.0928 36.2533 33.0928C36.2088 33.0877 36.1672 33.0682 36.135 33.0371C35.8063 32.6371 35.4898 32.2389 35.1525 31.8198L35.0412 31.679H37.0219C37.0681 31.6759 37.1144 31.683 37.1576 31.6998C37.5871 32.1172 38.0149 32.545 38.4705 32.9971L38.5749 33.1015L37.761 33.0928ZM40.8478 38.6332C41.1834 38.3306 41.5277 38.0367 41.8616 37.7515L42.1555 37.4993L43.0407 38.3114L42.7989 38.5392L41.7364 39.5479C41.4216 39.8452 41.4129 40.0191 41.6999 40.3547C41.9868 40.6904 42.0285 40.9634 41.8546 41.2242C41.8425 41.2435 41.8285 41.2615 41.8129 41.2781L41.7747 41.259C41.5642 41.1355 41.3451 41.0173 41.1364 40.9112C40.9851 40.8312 40.8338 40.7495 40.686 40.666C40.6561 40.6505 40.6295 40.6292 40.6078 40.6034C40.5956 40.5478 40.5852 40.4921 40.573 40.4295C40.5077 40.1488 40.4652 39.8633 40.446 39.5757C40.437 39.3979 40.4685 39.2203 40.538 39.0564C40.6076 38.8926 40.7135 38.7466 40.8478 38.6297V38.6332ZM42.7329 41.0016C42.7666 40.6389 42.6567 40.2774 42.4268 39.9948L42.8841 39.56L43.5537 38.9253L43.7902 39.1462L44.371 39.6852L42.7329 41.0016ZM44.9084 40.28L45.1744 40.5565L45.2996 40.6852C45.2562 40.7478 45.2144 40.8121 45.171 40.8764C45.0192 41.1128 44.8549 41.341 44.6788 41.5599C44.5564 41.7084 44.4022 41.8277 44.2277 41.9089C44.0532 41.9901 43.8627 42.0313 43.6702 42.0294C43.4229 42.0283 43.1799 41.9642 42.9641 41.8433L44.9084 40.28ZM49.3394 45.2482L49.4368 45.7386C49.483 45.9455 49.5826 46.1367 49.7254 46.2934C50.475 47.1176 51.228 47.9158 51.8001 48.5192C51.8679 48.5905 51.8662 48.594 51.8262 48.6705C51.4012 49.4929 50.6936 50.1342 49.8334 50.4764C48.9733 50.8186 48.0185 50.8387 47.1447 50.533C47.0725 50.5156 47.0074 50.4764 46.9582 50.4207C46.9091 50.365 46.8783 50.2955 46.87 50.2217C46.6682 49.4061 46.4422 48.5505 46.1622 47.528C46.1159 47.357 46.0246 47.2015 45.8979 47.0776C45.0962 46.3403 44.1415 45.4673 43.152 44.5926C42.9672 44.4376 42.7687 44.2996 42.559 44.1805L42.3746 44.0657C42.0268 43.8397 41.6616 43.6136 41.3034 43.3893C40.8396 43.1006 40.3811 42.8108 39.9278 42.5198C39.8211 42.4643 39.7359 42.3749 39.6855 42.2656C39.6351 42.1564 39.6225 42.0335 39.6496 41.9163C39.6709 41.8025 39.727 41.698 39.8101 41.6173C39.8933 41.5367 39.9994 41.4838 40.1139 41.466H40.1608C40.3061 41.4712 40.4487 41.5061 40.58 41.5686C41.0338 41.779 41.4877 42.0033 41.9294 42.2189C42.1572 42.3302 42.3851 42.4433 42.6129 42.5511C42.9514 42.7215 43.3242 42.8131 43.7032 42.8189C44.418 42.8189 45.0614 42.4537 45.5188 41.7877L45.7066 41.5025C45.8179 41.3286 45.9326 41.1547 46.0544 40.9982C46.2787 40.7095 46.2578 40.4469 45.99 40.1774C44.9692 39.134 43.9328 38.0732 42.9328 37.0472C42.1503 36.245 41.3666 35.4439 40.5817 34.6439C40.3804 34.4638 40.2364 34.2286 40.1674 33.9674C40.0985 33.7062 40.1077 33.4305 40.1939 33.1745C40.2434 33.0392 40.3076 32.9098 40.3852 32.7884C40.3921 32.7759 40.3996 32.7637 40.4078 32.7519L41.8703 34.124C42.4071 34.6294 42.9439 35.1355 43.4806 35.6421C44.8458 36.929 46.2631 38.2506 47.663 39.5444C48.1706 39.9952 48.5021 40.6113 48.5986 41.2834C48.8142 42.6119 49.0803 43.951 49.3394 45.2448V45.2482ZM52.3931 40.7704L52.1114 40.6434C51.7323 40.4695 51.3392 40.2956 50.941 40.153C50.5045 39.9965 50.0559 39.8643 49.6211 39.7339C49.3794 39.6626 49.129 39.5879 48.8855 39.5113C48.7883 39.486 48.6976 39.4404 48.6194 39.3774L45.597 36.5412C44.3438 35.3621 43.0865 34.1837 41.8251 33.0058C41.775 32.9635 41.7357 32.9099 41.7103 32.8494C41.6849 32.789 41.6742 32.7234 41.679 32.658C41.679 31.9746 41.679 31.2912 41.679 30.6078C41.679 29.7765 41.679 28.9175 41.679 28.0723C41.697 27.9287 41.6581 27.7838 41.5707 27.6685C41.4833 27.5532 41.3543 27.4766 41.2112 27.455C40.453 27.2811 39.6374 27.0881 38.6427 26.8481C39.8696 26.4271 41.1412 26.15 42.432 26.0221C43.083 25.9528 43.7372 25.9179 44.3919 25.9177C45.0425 25.9177 45.6927 25.9525 46.3396 26.0221C48.6003 26.2621 50.5567 26.8394 52.3166 27.7819C52.3478 27.8067 52.3713 27.8399 52.3844 27.8776C52.3966 32.1642 52.3948 36.5255 52.3931 40.746V40.7704Z" fill="#D39752"/>
<path d="M39.0305 44.1631C39.035 44.1002 39.0269 44.037 39.0066 43.9773C38.9862 43.9176 38.9542 43.8625 38.9123 43.8153C38.8656 43.7726 38.8107 43.7399 38.7508 43.7193C38.691 43.6986 38.6276 43.6905 38.5645 43.6953H38.0323C38.1802 43.1737 38.2062 42.5667 37.6098 42.1755C37.3927 42.0452 37.1501 41.9634 36.8985 41.9355C36.8552 41.93 36.8117 41.9271 36.7681 41.9268C36.4694 41.9412 36.1866 42.065 35.9733 42.2746C35.7116 42.0625 35.3883 41.9405 35.0517 41.9268C34.8177 41.9294 34.5897 42.0008 34.3961 42.132C34.2439 42.2191 34.1141 42.3406 34.0172 42.4867C33.9203 42.6328 33.8589 42.7996 33.8378 42.9737C33.83 43.1911 33.8469 43.4087 33.8883 43.6223C33.8883 43.6484 33.8883 43.6745 33.9004 43.7006H33.3892C33.3284 43.6971 33.2676 43.7057 33.2103 43.7261C33.153 43.7464 33.1003 43.7779 33.0553 43.8188C33.0122 43.8671 32.9793 43.9235 32.9584 43.9848C32.9375 44.046 32.929 44.1108 32.9335 44.1753C32.9335 45.483 32.9335 46.5542 32.9335 47.5454C32.9279 47.6109 32.9358 47.6767 32.9568 47.739C32.9777 47.8012 33.0112 47.8585 33.0553 47.9072C33.1045 47.951 33.162 47.9844 33.2245 48.0053C33.287 48.0262 33.3531 48.0342 33.4187 48.0289H38.5593C38.6231 48.0374 38.688 48.0311 38.749 48.0105C38.81 47.99 38.8655 47.9557 38.9112 47.9104C38.9569 47.865 38.9916 47.8098 39.0125 47.749C39.0335 47.6881 39.0403 47.6232 39.0323 47.5594C39.0271 46.476 39.0271 45.3335 39.0305 44.1631ZM35.0847 42.725H35.1004C35.2292 42.7311 35.3508 42.7859 35.4409 42.8781C35.5309 42.9704 35.5826 43.0934 35.5855 43.2223C35.5855 43.358 35.5855 43.4988 35.5855 43.6467V43.7023H35.3299C35.2395 43.7023 35.1664 43.7023 35.1004 43.7023C34.9684 43.7009 34.8424 43.6476 34.7496 43.5538C34.6568 43.46 34.6047 43.3334 34.6047 43.2015C34.6123 43.077 34.6653 42.9596 34.7539 42.8717C34.8424 42.7838 34.9601 42.7316 35.0847 42.725ZM33.737 47.2272V46.2812H35.5699V47.2272H33.737ZM33.737 44.5109H35.5699V45.4587H33.737V44.5109ZM36.3907 47.2272V46.2812H38.2219V47.2272H36.3907ZM38.2149 44.504V45.4569H36.3907V44.504H38.2149ZM36.3733 43.2119C36.3764 43.084 36.4284 42.9622 36.5187 42.8716C36.609 42.781 36.7306 42.7285 36.8585 42.725C36.9844 42.7326 37.1033 42.7856 37.1932 42.8742C37.283 42.9628 37.3377 43.0809 37.3472 43.2067C37.345 43.3343 37.2941 43.4562 37.2048 43.5475C37.1156 43.6387 36.9947 43.6922 36.8672 43.6971C36.7976 43.6971 36.7229 43.7058 36.6307 43.7058H36.3698V43.6432C36.3733 43.4901 36.3716 43.3476 36.3803 43.2119H36.3733Z" fill="#D39752"/>
<path d="M40.2357 29.1801L40.1922 29.3609L40.1157 29.6948L40.0879 29.8009L40.0513 29.9574L39.8931 29.9313L37.2706 29.5052L37.1159 29.4809L37.1246 29.3244L37.135 29.1418L37.1472 28.8757L37.1576 28.681L37.3489 28.7123L40.0513 29.1505L40.2357 29.1801Z" fill="#D39752"/>
<path d="M53.1635 43.3527L53.0714 43.5145L52.9218 43.7823L52.8505 43.9075L52.7722 44.0483L52.6262 43.9805L50.4385 42.9806L50.2924 42.9128L50.3481 42.7615L50.4333 42.5337L50.5689 42.1633L50.7411 42.2415L52.5357 43.0641L52.9914 43.2745L53.1635 43.3527Z" fill="#D39752"/>
<path d="M30.085 30.253L28.6068 30.8165L28.4503 30.8773L28.3843 30.7226L28.2121 30.3087L28.1425 30.1435L28.3095 30.0791L29.6503 29.5661L29.8155 29.5035L29.8746 29.6705L30.0276 30.0931L30.085 30.253Z" fill="#D39752"/>
<path d="M51.2541 36.8855L50.6332 35.9099C50.3359 35.4456 50.0385 34.9778 49.7429 34.5187C49.7203 34.484 49.6994 34.4457 49.6785 34.4074L50.0263 34.1814L50.6072 33.8057L50.5098 33.6614L50.4854 33.6249L50.2663 33.291L50.1724 33.1502L50.0298 33.2388L49.3168 33.6805C49.31 33.6665 49.3041 33.652 49.2994 33.6371L48.849 32.4754C48.2821 31.0112 47.696 29.4983 47.1239 28.0097C47.0883 27.8914 47.0208 27.7851 46.9287 27.7026C46.8367 27.6201 46.7237 27.5645 46.6022 27.5419C45.8701 27.3889 45.1292 27.2202 44.4128 27.0585L43.8076 26.9229C43.7568 26.9115 43.7049 26.9057 43.6528 26.9055C43.4911 26.9055 43.2859 26.9768 43.2146 27.3176C43.0303 28.1871 42.8285 29.1192 42.6025 30.0565C42.5628 30.1838 42.5605 30.3199 42.596 30.4485C42.6314 30.577 42.7031 30.6927 42.8024 30.7817C43.7363 31.7468 44.6806 32.7311 45.5936 33.684L46.2109 34.3274L46.8387 34.9865L47.0022 35.1604L46.2961 35.616L46.1483 35.7099L46.244 35.8577L46.437 36.1534L46.4857 36.2299L46.5796 36.3725L46.7222 36.2821L47.4178 35.8456L47.503 35.7917C47.5413 35.8473 47.5743 35.896 47.6073 35.9482L47.9899 36.5516C48.3603 37.1307 48.7447 37.7306 49.1133 38.3236C49.1533 38.4017 49.2124 38.4685 49.285 38.5178C49.3577 38.567 49.4416 38.5971 49.529 38.6053C49.6465 38.5995 49.7597 38.559 49.8542 38.4888C50.1202 38.3149 50.3967 38.141 50.6645 37.9671L51.0836 37.7028C51.4749 37.4489 51.508 37.282 51.2541 36.8855ZM50.468 37.1376L49.6524 37.6593L49.6107 37.595L48.1812 35.3482L48.4682 35.1656L48.9899 34.8265L49.5794 35.7517L50.468 37.1376ZM48.496 34.1988L44.4858 27.9002L44.5902 27.9263C44.9369 28.0186 45.2896 28.0871 45.6457 28.1315C46.1953 28.1854 46.4666 28.4219 46.6891 29.0357C47.0926 30.1939 47.5587 31.3521 47.9934 32.472C48.176 32.931 48.3586 33.3919 48.5377 33.8527C48.576 33.9361 48.6046 34.0236 48.6229 34.1135C48.5847 34.1476 48.542 34.1762 48.496 34.1988ZM47.823 34.6283L47.7726 34.6613L47.6804 34.7239C47.6505 34.6798 47.6174 34.638 47.5813 34.5987L47.3882 34.397C46.1187 33.0684 44.8058 31.6946 43.5067 30.3521C43.4602 30.3133 43.4274 30.2607 43.413 30.2018C43.3986 30.143 43.4034 30.0811 43.4267 30.0252C43.545 29.5366 43.6511 29.0479 43.7641 28.5297C43.778 28.4601 43.7937 28.3888 43.8093 28.3193L47.823 34.6283Z" fill="#D39752"/>
<path d="M51.3931 28.5993L51.2992 28.7627L51.2018 28.9366L51.0818 29.1557L51.0036 29.2931L50.8575 29.227L48.6698 28.2271L48.5238 28.161L48.5794 28.0115L48.7359 27.5872L48.8003 27.4098L51.221 28.521L51.3931 28.5993Z" fill="#D39752"/>
</svg>
