<svg width="24" height="24" viewBox="0 0 24 24" fill="none" xmlns="http://www.w3.org/2000/svg">
<path d="M21.939 10.5674H4.10115L7.05605 7.62679C7.38576 7.29864 7.38703 6.76535 7.05887 6.43563C6.73072 6.10588 6.19738 6.10466 5.86767 6.43277L1.46657 10.8127L1.46581 10.8135C1.13694 11.1416 1.13589 11.6766 1.46572 12.0059L1.46648 12.0067L5.86759 16.3866C6.19726 16.7146 6.73059 16.7135 7.05879 16.3837C7.38694 16.054 7.38568 15.5207 7.05597 15.1925L4.10115 12.2519H21.939C22.4042 12.2519 22.7812 11.8749 22.7812 11.4097C22.7812 10.9445 22.4042 10.5674 21.939 10.5674Z" fill="#1E293B"/>
</svg>
