<svg width="12" height="12" viewBox="0 0 12 12" fill="none" xmlns="http://www.w3.org/2000/svg">
<path d="M8.37536 1.78V1C8.37536 0.795 8.20536 0.625 8.00036 0.625C7.79536 0.625 7.62536 0.795 7.62536 1V1.75H4.37536V1C4.37536 0.795 4.20536 0.625 4.00036 0.625C3.79536 0.625 3.62536 0.795 3.62536 1V1.78C2.27536 1.905 1.62036 2.71 1.52036 3.905C1.51036 4.05 1.63036 4.17 1.77036 4.17H10.2304C10.3754 4.17 10.4954 4.045 10.4804 3.905C10.3804 2.71 9.72536 1.905 8.37536 1.78Z" fill="#334155"/>
<path d="M10 4.92188H2C1.725 4.92188 1.5 5.14687 1.5 5.42188V8.50187C1.5 10.0019 2.25 11.0019 4 11.0019H8C9.75 11.0019 10.5 10.0019 10.5 8.50187V5.42188C10.5 5.14687 10.275 4.92188 10 4.92188ZM4.605 9.10687C4.58 9.12687 4.555 9.15188 4.53 9.16687C4.5 9.18687 4.47 9.20187 4.44 9.21187C4.41 9.22687 4.38 9.23687 4.35 9.24187C4.315 9.24687 4.285 9.25187 4.25 9.25187C4.185 9.25187 4.12 9.23688 4.06 9.21187C3.995 9.18687 3.945 9.15187 3.895 9.10687C3.805 9.01187 3.75 8.88188 3.75 8.75187C3.75 8.62187 3.805 8.49188 3.895 8.39688C3.945 8.35188 3.995 8.31687 4.06 8.29187C4.15 8.25187 4.25 8.24188 4.35 8.26188C4.38 8.26688 4.41 8.27687 4.44 8.29187C4.47 8.30187 4.5 8.31687 4.53 8.33687C4.555 8.35687 4.58 8.37688 4.605 8.39688C4.695 8.49188 4.75 8.62187 4.75 8.75187C4.75 8.88188 4.695 9.01187 4.605 9.10687ZM4.605 7.35687C4.51 7.44687 4.38 7.50187 4.25 7.50187C4.12 7.50187 3.99 7.44687 3.895 7.35687C3.805 7.26187 3.75 7.13188 3.75 7.00187C3.75 6.87187 3.805 6.74187 3.895 6.64687C4.035 6.50687 4.255 6.46187 4.44 6.54187C4.505 6.56687 4.56 6.60187 4.605 6.64687C4.695 6.74187 4.75 6.87187 4.75 7.00187C4.75 7.13188 4.695 7.26187 4.605 7.35687ZM6.355 9.10687C6.26 9.19687 6.13 9.25187 6 9.25187C5.87 9.25187 5.74 9.19687 5.645 9.10687C5.555 9.01187 5.5 8.88188 5.5 8.75187C5.5 8.62187 5.555 8.49188 5.645 8.39688C5.83 8.21188 6.17 8.21188 6.355 8.39688C6.445 8.49188 6.5 8.62187 6.5 8.75187C6.5 8.88188 6.445 9.01187 6.355 9.10687ZM6.355 7.35687C6.33 7.37687 6.305 7.39687 6.28 7.41687C6.25 7.43687 6.22 7.45187 6.19 7.46187C6.16 7.47688 6.13 7.48687 6.1 7.49187C6.065 7.49687 6.035 7.50187 6 7.50187C5.87 7.50187 5.74 7.44687 5.645 7.35687C5.555 7.26187 5.5 7.13188 5.5 7.00187C5.5 6.87187 5.555 6.74187 5.645 6.64687C5.69 6.60187 5.745 6.56687 5.81 6.54187C5.995 6.46187 6.215 6.50687 6.355 6.64687C6.445 6.74187 6.5 6.87187 6.5 7.00187C6.5 7.13188 6.445 7.26187 6.355 7.35687ZM8.105 9.10687C8.01 9.19687 7.88 9.25187 7.75 9.25187C7.62 9.25187 7.49 9.19687 7.395 9.10687C7.305 9.01187 7.25 8.88188 7.25 8.75187C7.25 8.62187 7.305 8.49188 7.395 8.39688C7.58 8.21188 7.92 8.21188 8.105 8.39688C8.195 8.49188 8.25 8.62187 8.25 8.75187C8.25 8.88188 8.195 9.01187 8.105 9.10687ZM8.105 7.35687C8.08 7.37687 8.055 7.39687 8.03 7.41687C8 7.43687 7.97 7.45187 7.94 7.46187C7.91 7.47688 7.88 7.48687 7.85 7.49187C7.815 7.49687 7.78 7.50187 7.75 7.50187C7.62 7.50187 7.49 7.44687 7.395 7.35687C7.305 7.26187 7.25 7.13188 7.25 7.00187C7.25 6.87187 7.305 6.74187 7.395 6.64687C7.445 6.60187 7.495 6.56687 7.56 6.54187C7.65 6.50187 7.75 6.49188 7.85 6.51188C7.88 6.51688 7.91 6.52687 7.94 6.54187C7.97 6.55187 8 6.56687 8.03 6.58687C8.055 6.60687 8.08 6.62687 8.105 6.64687C8.195 6.74187 8.25 6.87187 8.25 7.00187C8.25 7.13188 8.195 7.26187 8.105 7.35687Z" fill="#334155"/>
</svg>
