<svg width="30" height="30" viewBox="0 0 30 30" fill="none" xmlns="http://www.w3.org/2000/svg">
<path d="M20.625 10.7849C20.1125 10.7849 19.6875 10.3599 19.6875 9.84744V8.12244C19.6875 6.80994 19.125 5.53494 18.15 4.64744C17.1625 3.74744 15.8875 3.33494 14.5375 3.45994C12.2875 3.67244 10.3125 5.97244 10.3125 8.37244V9.58494C10.3125 10.0974 9.8875 10.5224 9.375 10.5224C8.8625 10.5224 8.4375 10.0974 8.4375 9.58494V8.35994C8.4375 4.99744 11.15 1.89744 14.3625 1.58494C16.2375 1.40994 18.0375 1.99744 19.4125 3.25994C20.775 4.49744 21.5625 6.27244 21.5625 8.12244V9.84744C21.5625 10.3599 21.1375 10.7849 20.625 10.7849Z" fill="white"/>
<path d="M18.7499 28.4375H11.2499C5.4749 28.4375 4.39989 25.75 4.12489 23.1375L3.18739 15.65C3.04989 14.3 2.9999 12.3625 4.31239 10.9125C5.43739 9.6625 7.29989 9.0625 9.9999 9.0625H19.9999C22.7124 9.0625 24.5749 9.675 25.6874 10.9125C26.9874 12.3625 26.9499 14.3 26.8124 15.625L25.8749 23.1375C25.5999 25.75 24.5249 28.4375 18.7499 28.4375ZM9.9999 10.9375C7.88739 10.9375 6.43739 11.35 5.69989 12.175C5.08739 12.85 4.88739 13.8875 5.04989 15.4375L5.98739 22.925C6.19989 24.925 6.7499 26.575 11.2499 26.575H18.7499C23.2499 26.575 23.7999 24.9375 24.0124 22.95L24.9499 15.4375C25.1124 13.9125 24.9124 12.875 24.2999 12.1875C23.5624 11.35 22.1124 10.9375 19.9999 10.9375H9.9999Z" fill="white"/>
<path d="M19.275 16.4375C18.575 16.4375 18.0125 15.875 18.0125 15.1875C18.0125 14.5 18.575 13.9375 19.2625 13.9375C19.95 13.9375 20.5125 14.5 20.5125 15.1875C20.5125 15.875 19.9625 16.4375 19.275 16.4375Z" fill="white"/>
<path d="M10.525 16.4375C9.82495 16.4375 9.26245 15.875 9.26245 15.1875C9.26245 14.5 9.82495 13.9375 10.5125 13.9375C11.2 13.9375 11.7625 14.5 11.7625 15.1875C11.7625 15.875 11.2125 16.4375 10.525 16.4375Z" fill="white"/>
</svg>
