<svg width="18" height="18" viewBox="0 0 18 18" fill="none" xmlns="http://www.w3.org/2000/svg">
<path d="M14.6538 16.875H3.34619C2.75709 16.875 2.19212 16.641 1.77557 16.2244C1.35902 15.8079 1.125 15.2429 1.125 14.6538V11.4229C1.12924 11.265 1.19492 11.1151 1.30805 11.005C1.42118 10.8948 1.57283 10.8332 1.73072 10.8332C1.8886 10.8332 2.04025 10.8948 2.15339 11.005C2.26652 11.1151 2.3322 11.265 2.33644 11.4229V14.6538C2.33644 14.9216 2.44282 15.1784 2.63219 15.3678C2.82155 15.5572 3.07838 15.6636 3.34619 15.6636H14.6538C14.9216 15.6636 15.1784 15.5572 15.3678 15.3678C15.5572 15.1784 15.6636 14.9216 15.6636 14.6538V11.4229C15.6678 11.265 15.7335 11.1151 15.8466 11.005C15.9597 10.8948 16.1114 10.8332 16.2693 10.8332C16.4272 10.8332 16.5788 10.8948 16.6919 11.005C16.8051 11.1151 16.8708 11.265 16.875 11.4229V14.6538C16.875 15.2429 16.641 15.8079 16.2244 16.2244C15.8079 16.641 15.2429 16.875 14.6538 16.875ZM9 12.0288H8.9965C8.91797 12.0285 8.84024 12.0129 8.76769 11.9829C8.6976 11.9536 8.63364 11.9115 8.57912 11.8586L8.57125 11.8512L4.53312 7.81306C4.47441 7.75738 4.42744 7.69049 4.395 7.61636C4.36255 7.54223 4.34529 7.46235 4.34422 7.38143C4.34315 7.30052 4.35829 7.2202 4.38877 7.14524C4.41924 7.07027 4.46442 7.00217 4.52164 6.94495C4.57886 6.88773 4.64696 6.84255 4.72193 6.81208C4.79689 6.78161 4.8772 6.76646 4.95812 6.76753C5.03903 6.7686 5.11891 6.78587 5.19305 6.81831C5.26718 6.85076 5.33406 6.89772 5.38975 6.95644L8.39406 9.9625V1.73094C8.39406 1.57023 8.4579 1.41611 8.57154 1.30248C8.68517 1.18884 8.8393 1.125 9 1.125C9.1607 1.125 9.31483 1.18884 9.42846 1.30248C9.5421 1.41611 9.60594 1.57023 9.60594 1.73094V9.9625L12.6102 6.95819C12.6659 6.89947 12.7328 6.85251 12.807 6.82006C12.8811 6.78762 12.961 6.77035 13.0419 6.76928C13.1228 6.76821 13.2031 6.78336 13.2781 6.81383C13.353 6.8443 13.4211 6.88948 13.4784 6.9467C13.5356 7.00392 13.5808 7.07202 13.6112 7.14699C13.6417 7.22196 13.6569 7.30226 13.6558 7.38318C13.6547 7.4641 13.6374 7.54398 13.605 7.61811C13.5726 7.69224 13.5256 7.75913 13.4669 7.81481L9.42919 11.8525L9.42131 11.8599C9.3668 11.9128 9.30283 11.955 9.23275 11.9842C9.1602 12.0142 9.08247 12.0299 9.00394 12.0301H9V12.0288Z" fill="white"/>
</svg>
