<svg width="22" height="22" viewBox="0 0 22 22" fill="none" xmlns="http://www.w3.org/2000/svg">
<path d="M19.25 20.1677H2.75C2.37417 20.1677 2.0625 19.856 2.0625 19.4802C2.0625 19.1043 2.37417 18.7927 2.75 18.7927H19.25C19.6258 18.7927 19.9375 19.1043 19.9375 19.4802C19.9375 19.856 19.6258 20.1677 19.25 20.1677Z" fill="#334155"/>
<path d="M17.4353 3.19084C15.6569 1.4125 13.9153 1.36667 12.0911 3.19084L10.9819 4.3C10.8903 4.39167 10.8536 4.53834 10.8903 4.66667C11.5869 7.09584 13.5303 9.03917 15.9594 9.73584C15.9961 9.745 16.0328 9.75417 16.0694 9.75417C16.1703 9.75417 16.2619 9.7175 16.3353 9.64417L17.4353 8.535C18.3428 7.63667 18.7828 6.76584 18.7828 5.88584C18.7919 4.97834 18.3519 4.09834 17.4353 3.19084Z" fill="#334155"/>
<path d="M14.3092 10.5701C14.0434 10.4418 13.7867 10.3135 13.5392 10.1668C13.3375 10.0476 13.145 9.91929 12.9525 9.78179C12.7967 9.68096 12.6134 9.53429 12.4392 9.38763C12.4209 9.37846 12.3567 9.32346 12.2834 9.25013C11.9809 8.99346 11.6417 8.66346 11.3392 8.29679C11.3117 8.27846 11.2659 8.21429 11.2017 8.13179C11.11 8.02179 10.9542 7.83846 10.8167 7.62763C10.7067 7.49013 10.5784 7.28846 10.4592 7.08679C10.3125 6.83929 10.1842 6.59179 10.0559 6.33513C10.0458 6.31345 10.0358 6.29182 10.026 6.27026C9.87539 5.93831 9.44126 5.84057 9.18351 6.09832L3.97837 11.3035C3.8592 11.4226 3.7492 11.6518 3.7217 11.8076L3.2267 15.3185C3.13504 15.9418 3.3092 16.5285 3.6942 16.9226C4.0242 17.2435 4.48254 17.4176 4.97754 17.4176C5.08754 17.4176 5.19754 17.4085 5.30754 17.3901L8.82754 16.8951C8.99254 16.8676 9.2217 16.7576 9.3317 16.6385L14.5297 11.4405C14.7892 11.1809 14.6915 10.7348 14.3544 10.5897C14.3394 10.5832 14.3244 10.5767 14.3092 10.5701Z" fill="#334155"/>
</svg>
