<svg width="24" height="24" viewBox="0 0 24 24" fill="none" xmlns="http://www.w3.org/2000/svg">
<path d="M15.2566 22.2483H8.73656C3.82656 22.2483 1.72656 20.1483 1.72656 15.2383V15.1083C1.72656 10.6683 3.47656 8.52832 7.39656 8.15832C7.79656 8.12832 8.17656 8.42832 8.21656 8.83832C8.25656 9.24832 7.95656 9.61832 7.53656 9.65832C4.39656 9.94832 3.22656 11.4283 3.22656 15.1183V15.2483C3.22656 19.3183 4.66656 20.7583 8.73656 20.7583H15.2566C19.3266 20.7583 20.7666 19.3183 20.7666 15.2483V15.1183C20.7666 11.4083 19.5766 9.92832 16.3766 9.65832C15.9666 9.61832 15.6566 9.25832 15.6966 8.84832C15.7366 8.43832 16.0866 8.12832 16.5066 8.16832C20.4866 8.50832 22.2666 10.6583 22.2666 15.1283V15.2583C22.2666 20.1483 20.1666 22.2483 15.2566 22.2483Z" fill="#94A3B8"/>
<path d="M12 15.7472C11.59 15.7472 11.25 15.4072 11.25 14.9972V3.61719C11.25 3.20719 11.59 2.86719 12 2.86719C12.41 2.86719 12.75 3.20719 12.75 3.61719V14.9972C12.75 15.4072 12.41 15.7472 12 15.7472Z" fill="#94A3B8"/>
<path d="M15.3538 6.5975C15.1638 6.5975 14.9738 6.5275 14.8238 6.3775L12.0038 3.5575L9.18375 6.3775C8.89375 6.6675 8.41375 6.6675 8.12375 6.3775C7.83375 6.0875 7.83375 5.6075 8.12375 5.3175L11.4738 1.9675C11.7638 1.6775 12.2438 1.6775 12.5338 1.9675L15.8838 5.3175C16.1738 5.6075 16.1738 6.0875 15.8838 6.3775C15.7438 6.5275 15.5438 6.5975 15.3538 6.5975Z" fill="#94A3B8"/>
</svg>
