<svg width="18" height="18" viewBox="0 0 18 18" fill="none" xmlns="http://www.w3.org/2000/svg">
<path d="M9.37862 12.2414C7.59292 12.2414 6.14344 10.7896 6.14344 9.00105C6.14344 7.21253 7.59292 5.76075 9.37862 5.76075C11.1643 5.76075 12.6138 7.21253 12.6138 9.00105C12.6138 10.7896 11.1643 12.2414 9.37862 12.2414ZM9.37862 6.88326C8.21306 6.88326 7.26417 7.83365 7.26417 9.00105C7.26417 10.1685 8.21306 11.1188 9.37862 11.1188C10.5442 11.1188 11.4931 10.1685 11.4931 9.00105C11.4931 7.83365 10.5442 6.88326 9.37862 6.88326Z" fill="#475569"/>
<path d="M9.37874 15.75C6.56944 15.75 3.91704 14.1037 2.09399 11.245C1.302 10.0103 1.302 7.99723 2.09399 6.75499C3.92451 3.89634 6.57691 2.25 9.37874 2.25C12.1806 2.25 14.833 3.89634 16.656 6.75499C17.448 7.98974 17.448 10.0028 16.656 11.245C14.833 14.1037 12.1806 15.75 9.37874 15.75ZM9.37874 3.37251C6.96543 3.37251 4.65672 4.82428 3.04287 7.36114C2.48251 8.2367 2.48251 9.7633 3.04287 10.6389C4.65672 13.1757 6.96543 14.6275 9.37874 14.6275C11.792 14.6275 14.1007 13.1757 15.7146 10.6389C16.275 9.7633 16.275 8.2367 15.7146 7.36114C14.1007 4.82428 11.792 3.37251 9.37874 3.37251Z" fill="#475569"/>
</svg>
