<svg width="18" height="18" viewBox="0 0 18 18" fill="none" xmlns="http://www.w3.org/2000/svg">
<path d="M8.05574 13.2247H2.7002" stroke="#010101" stroke-width="1.5" stroke-linecap="round" stroke-linejoin="round"/>
<path fill-rule="evenodd" clip-rule="evenodd" d="M16.2 13.2239C16.2 14.3701 15.2454 15.2993 14.0679 15.2993C12.8904 15.2993 11.9358 14.3701 11.9358 13.2239C11.9358 12.0768 12.8904 11.1484 14.0679 11.1484C15.2454 11.1484 16.2 12.0768 16.2 13.2239Z" stroke="#010101" stroke-width="1.5" stroke-linecap="round" stroke-linejoin="round"/>
<path d="M10.8435 4.77547H16.1999" stroke="#010101" stroke-width="1.5" stroke-linecap="round" stroke-linejoin="round"/>
<path fill-rule="evenodd" clip-rule="evenodd" d="M2.69995 4.77466C2.69995 5.92175 3.65453 6.8501 4.83207 6.8501C6.00961 6.8501 6.96418 5.92175 6.96418 4.77466C6.96418 3.62842 6.00961 2.69922 4.83207 2.69922C3.65453 2.69922 2.69995 3.62842 2.69995 4.77466Z" stroke="#010101" stroke-width="1.5" stroke-linecap="round" stroke-linejoin="round"/>
</svg>
