<svg width="512" height="512" viewBox="0 0 512 512" fill="none" xmlns="http://www.w3.org/2000/svg">
<g clip-path="url(#clip0_1051_17)">
<path d="M495.984 240.009H293.323C284.491 240.009 277.323 232.841 277.323 224.009C277.323 215.177 284.491 208.01 293.323 208.01H495.984C504.816 208.01 511.984 215.177 511.984 224.009C511.984 232.841 504.816 240.009 495.984 240.009Z" fill="black"/>
<path d="M415.987 320.006C413.885 320.011 411.804 319.598 409.863 318.793C407.921 317.988 406.159 316.805 404.678 315.314C398.429 309.061 398.429 298.929 404.678 292.679L473.372 223.989L404.678 155.296C398.429 149.046 398.429 138.914 404.678 132.664C410.932 126.41 421.065 126.41 427.315 132.664L507.312 212.661C513.562 218.911 513.562 229.044 507.312 235.294L427.315 315.291C425.833 316.788 424.069 317.976 422.124 318.786C420.179 319.595 418.093 320.01 415.987 320.006ZM170.663 512C166.097 512 161.765 511.36 157.436 510.015L29.0541 467.243C11.5846 461.142 0 444.865 0 426.671V42.6827C0 19.1524 19.1364 0.0159912 42.6667 0.0159912C47.2285 0.0159912 51.5614 0.655971 55.8933 1.99993L184.271 44.7726C201.744 50.8734 213.325 67.1509 213.325 85.3453V469.333C213.325 492.864 194.193 512 170.663 512ZM42.6667 32.015C36.7998 32.015 31.999 36.8148 31.999 42.6827V426.671C31.999 431.214 35.0489 435.435 39.4008 436.951L167.182 479.532C168.1 479.829 169.296 480.001 170.663 480.001C176.529 480.001 181.326 475.2 181.326 469.333V85.3453C181.326 80.8025 178.276 76.5796 173.925 75.0646L46.1436 32.484C45.2256 32.187 44.0296 32.015 42.6667 32.015Z" fill="black"/>
<path d="M325.322 170.679C316.49 170.679 309.322 163.511 309.322 154.679V58.6822C309.322 43.9826 297.358 32.015 282.659 32.015H42.6665C33.8348 32.015 26.667 24.8472 26.667 16.0155C26.667 7.18377 33.8348 0.0159912 42.6665 0.0159912H282.659C315.021 0.0159912 341.321 26.3202 341.321 58.6822V154.679C341.321 163.511 334.153 170.679 325.322 170.679ZM282.659 448.002H197.326C188.494 448.002 181.326 440.834 181.326 432.003C181.326 423.171 188.494 416.003 197.326 416.003H282.659C297.359 416.003 309.322 404.034 309.322 389.336V293.339C309.322 284.507 316.49 277.339 325.322 277.339C334.153 277.339 341.321 284.507 341.321 293.339V389.336C341.321 421.698 315.022 448.002 282.659 448.002Z" fill="black"/>
</g>
<defs>
<clipPath id="clip0_1051_17">
<rect width="512" height="512" fill="white"/>
</clipPath>
</defs>
</svg>
