<svg width="500" height="500" viewBox="0 0 500 500" fill="none" xmlns="http://www.w3.org/2000/svg">
<path d="M500 382.4H0V382.65H500V382.4Z" fill="#EBEBEB"/>
<path d="M449.9 398.49H416.78V398.74H449.9V398.49Z" fill="#EBEBEB"/>
<path d="M331.22 401.21H322.53V401.46H331.22V401.21Z" fill="#EBEBEB"/>
<path d="M415.78 389.21H396.59V389.46H415.78V389.21Z" fill="#EBEBEB"/>
<path d="M95.65 390.89H52.46V391.14H95.65V390.89Z" fill="#EBEBEB"/>
<path d="M110.89 390.89H104.56V391.14H110.89V390.89Z" fill="#EBEBEB"/>
<path d="M225.15 395.11H131.47V395.36H225.15V395.11Z" fill="#EBEBEB"/>
<path d="M237 337.8H43.91C42.3973 337.797 40.9475 337.195 39.8788 336.124C38.8102 335.054 38.21 333.603 38.21 332.09V60.66C38.2231 59.156 38.8292 57.718 39.8964 56.6582C40.9637 55.5985 42.4059 55.0026 43.91 55H237C238.514 55 239.967 55.6016 241.038 56.6724C242.108 57.7433 242.71 59.1956 242.71 60.71V332.09C242.71 333.604 242.108 335.057 241.038 336.128C239.967 337.198 238.514 337.8 237 337.8ZM43.91 55.2C42.4636 55.2026 41.0774 55.7791 40.0556 56.8027C39.0338 57.8264 38.46 59.2136 38.46 60.66V332.09C38.46 333.536 39.0338 334.924 40.0556 335.947C41.0774 336.971 42.4636 337.547 43.91 337.55H237C238.447 337.547 239.834 336.971 240.858 335.948C241.881 334.924 242.457 333.537 242.46 332.09V60.66C242.457 59.2127 241.881 57.8255 240.858 56.8021C239.834 55.7787 238.447 55.2026 237 55.2H43.91Z" fill="#EBEBEB"/>
<path d="M453.31 337.8H260.21C258.696 337.797 257.246 337.195 256.175 336.125C255.105 335.054 254.503 333.604 254.5 332.09V60.66C254.516 59.1551 255.124 57.7171 256.193 56.6576C257.262 55.5981 258.705 55.0025 260.21 55H453.31C454.812 55.0052 456.252 55.6022 457.317 56.6617C458.382 57.7212 458.987 59.1578 459 60.66V332.09C459 333.601 458.401 335.05 457.335 336.121C456.268 337.191 454.821 337.795 453.31 337.8ZM260.21 55.2C258.763 55.2026 257.375 55.7787 256.352 56.8021C255.329 57.8255 254.753 59.2127 254.75 60.66V332.09C254.753 333.537 255.329 334.924 256.352 335.948C257.375 336.971 258.763 337.547 260.21 337.55H453.31C454.757 337.547 456.145 336.971 457.168 335.948C458.191 334.924 458.767 333.537 458.77 332.09V60.66C458.767 59.2127 458.191 57.8255 457.168 56.8021C456.145 55.7787 454.757 55.2026 453.31 55.2H260.21Z" fill="#EBEBEB"/>
<path d="M253.21 157.82C251.651 150.351 248.696 143.243 244.5 136.87L252 127.81L236 111.81L226.94 119.31C220.572 115.102 213.468 112.134 206 110.56L204.9 98.8899H182.18L181.08 110.56C173.614 112.119 166.509 115.074 160.14 119.27L151.08 111.77L135.08 127.77L142.58 136.83C138.384 143.203 135.429 150.311 133.87 157.78L122.19 158.88V181.55L133.87 182.65C135.431 190.119 138.385 197.226 142.58 203.6L135 212.7L151 228.7L160.06 221.2C166.427 225.4 173.532 228.355 181 229.91L182.1 241.59H204.78L205.88 229.91C213.35 228.354 220.458 225.398 226.83 221.2L235.89 228.7L251.89 212.7L244.39 203.64C248.584 197.266 251.539 190.159 253.1 182.69L264.78 181.59V158.92L253.21 157.82ZM224.21 170.25C224.21 176.322 222.409 182.257 219.036 187.306C215.663 192.354 210.868 196.289 205.258 198.613C199.649 200.937 193.476 201.545 187.521 200.36C181.565 199.175 176.095 196.252 171.802 191.958C167.508 187.665 164.584 182.194 163.4 176.239C162.215 170.284 162.823 164.111 165.147 158.502C167.47 152.892 171.405 148.097 176.454 144.724C181.503 141.35 187.438 139.55 193.51 139.55C197.543 139.547 201.536 140.339 205.263 141.881C208.989 143.423 212.375 145.684 215.228 148.535C218.08 151.386 220.342 154.772 221.885 158.498C223.428 162.224 224.221 166.217 224.22 170.25H224.21Z" fill="#E0E0E0"/>
<path d="M318.25 266.65L319 275H335.29L336.08 266.61C341.445 265.491 346.551 263.371 351.13 260.36L357.64 265.75L369.17 254.22L363.78 247.71C366.794 243.132 368.914 238.026 370.03 232.66L378.42 231.87V215.62L370.03 214.83C368.914 209.464 366.794 204.358 363.78 199.78L369.17 193.27L357.64 181.75L351.13 187.14C346.554 184.122 341.447 181.998 336.08 180.88L335.29 172.49H319L318.21 180.88C312.844 181.999 307.737 184.123 303.16 187.14L296.65 181.75L285.13 193.27L290.52 199.78C287.504 204.357 285.38 209.464 284.26 214.83L275.87 215.62V231.91L284.26 232.7C285.38 238.066 287.504 243.173 290.52 247.75L285.13 254.26L296.65 265.79L303.16 260.4C307.752 263.414 312.872 265.534 318.25 266.65ZM327.19 245.82C322.824 245.822 318.556 244.528 314.925 242.103C311.295 239.677 308.466 236.229 306.797 232.195C305.127 228.161 304.692 223.722 305.547 219.44C306.402 215.159 308.508 211.227 311.599 208.144C314.69 205.06 318.626 202.963 322.91 202.117C327.193 201.272 331.631 201.717 335.661 203.396C339.692 205.074 343.134 207.911 345.551 211.547C347.968 215.183 349.252 219.454 349.24 223.82C349.224 229.659 346.894 235.253 342.761 239.376C338.628 243.5 333.029 245.817 327.19 245.82Z" fill="#E0E0E0"/>
<path d="M110.51 346.92L110.91 351.2H119.22L119.63 346.93C122.365 346.354 124.967 345.268 127.3 343.73L130.62 346.48L136.5 340.61L133.75 337.29C135.287 334.953 136.369 332.348 136.94 329.61L141.22 329.21V320.9L136.94 320.5C136.369 317.762 135.287 315.156 133.75 312.82L136.5 309.5L130.62 303.62L127.3 306.37C124.966 304.835 122.364 303.752 119.63 303.18L119.22 298.9H110.91L110.51 303.18C107.776 303.752 105.174 304.835 102.84 306.37L99.5199 303.62L93.6399 309.5L96.3899 312.82C94.848 315.154 93.7653 317.76 93.1999 320.5L88.9199 320.9V329.21L93.1999 329.61C93.7653 332.349 94.848 334.956 96.3899 337.29L93.6399 340.61L99.5199 346.48L102.84 343.73C105.172 345.269 107.774 346.352 110.51 346.92ZM115.07 336.3C112.845 336.3 110.67 335.64 108.82 334.404C106.97 333.168 105.528 331.411 104.676 329.355C103.825 327.299 103.602 325.037 104.036 322.855C104.47 320.673 105.542 318.668 107.115 317.095C108.688 315.522 110.693 314.45 112.875 314.016C115.057 313.582 117.319 313.805 119.375 314.656C121.431 315.508 123.188 316.95 124.424 318.8C125.66 320.65 126.32 322.825 126.32 325.05C126.32 326.527 126.029 327.99 125.464 329.355C124.898 330.72 124.07 331.96 123.025 333.005C121.98 334.05 120.74 334.878 119.375 335.444C118.01 336.009 116.547 336.3 115.07 336.3Z" fill="#F0F0F0"/>
<path d="M409.25 326.16L409.58 329.68H416.42L416.75 326.16C419.003 325.689 421.147 324.796 423.07 323.53L425.8 325.8L430.64 320.96L428.37 318.23C429.638 316.308 430.53 314.164 431 311.91L434.52 311.58V304.74L431 304.41C430.528 302.157 429.636 300.013 428.37 298.09L430.64 295.36L425.8 290.52L423.07 292.79C421.147 291.524 419.003 290.632 416.75 290.16L416.42 286.64H409.58L409.25 290.16C406.997 290.632 404.853 291.524 402.93 292.79L400.2 290.52L395.36 295.36L397.63 298.09C396.364 300.013 395.472 302.157 395 304.41L391.48 304.74V311.58L395 311.91C395.47 314.164 396.362 316.308 397.63 318.23L395.36 321L400.2 325.84L402.93 323.57C404.856 324.822 407 325.701 409.25 326.16ZM413 317.42C411.169 317.42 409.378 316.877 407.855 315.86C406.333 314.842 405.146 313.396 404.445 311.704C403.744 310.012 403.561 308.15 403.918 306.354C404.275 304.557 405.157 302.907 406.452 301.612C407.747 300.317 409.397 299.435 411.193 299.078C412.99 298.721 414.852 298.904 416.544 299.605C418.236 300.306 419.682 301.493 420.699 303.016C421.717 304.538 422.26 306.329 422.26 308.16C422.257 310.615 421.281 312.969 419.545 314.705C417.809 316.441 415.455 317.417 413 317.42Z" fill="#F0F0F0"/>
<path d="M231.73 380.75H251.13L252.07 370.75C258.464 369.429 264.549 366.904 270 363.31L277.75 369.73L291.45 356L285 348.26C288.589 342.81 291.114 336.73 292.44 330.34L302.44 329.4V310L292.44 309.06C291.112 302.674 288.588 296.597 285 291.15L291.41 283.4L277.69 269.68L270 276.09C264.551 272.504 258.475 269.976 252.09 268.64L251.15 258.64H231.75L230.81 268.64C224.421 269.974 218.342 272.502 212.89 276.09L205.14 269.68L191.4 283.4L197.82 291.15C194.225 296.595 191.697 302.672 190.37 309.06L180.37 310V329.4L190.37 330.34C191.695 336.732 194.224 342.813 197.82 348.26L191.4 356L205.12 369.72L212.87 363.3C218.317 366.897 224.399 369.425 230.79 370.75L231.73 380.75ZM241.43 345.96C236.236 345.96 231.159 344.42 226.841 341.535C222.522 338.649 219.157 334.548 217.169 329.749C215.181 324.951 214.661 319.671 215.675 314.577C216.688 309.483 219.189 304.804 222.861 301.132C226.534 297.459 231.213 294.958 236.307 293.945C241.401 292.931 246.681 293.451 251.479 295.439C256.278 297.427 260.379 300.792 263.265 305.111C266.15 309.429 267.69 314.506 267.69 319.7C267.695 323.152 267.02 326.571 265.703 329.762C264.385 332.952 262.452 335.852 260.013 338.295C257.574 340.737 254.677 342.675 251.489 343.997C248.3 345.32 244.882 346 241.43 346V345.96Z" fill="#E0E0E0"/>
<path d="M340.16 345.26L339.16 343.26C337.549 340.197 334.789 337.899 331.486 336.87C328.182 335.84 324.605 336.164 321.54 337.77L316.86 340.22C313.798 341.835 311.502 344.596 310.473 347.901C309.444 351.205 309.766 354.783 311.37 357.85L312.37 359.8L309.11 361.52L320.86 383.9L355.17 365.9L343.42 343.51L340.16 345.26ZM333 362.38L335.05 366.29L332.57 367.6L330.52 363.69C330.047 363.672 329.587 363.53 329.185 363.279C328.783 363.028 328.454 362.677 328.23 362.26C328.039 361.937 327.916 361.578 327.868 361.206C327.82 360.833 327.849 360.455 327.951 360.094C328.054 359.733 328.229 359.397 328.466 359.105C328.703 358.814 328.996 358.574 329.329 358.399C329.661 358.225 330.026 358.12 330.4 358.091C330.774 358.062 331.151 358.109 331.506 358.23C331.862 358.35 332.189 358.542 332.468 358.793C332.747 359.044 332.972 359.349 333.13 359.69C333.347 360.11 333.449 360.58 333.426 361.053C333.403 361.525 333.256 361.983 333 362.38ZM335 348L317.51 357.18L316.51 355.18C315.622 353.479 315.445 351.496 316.016 349.665C316.588 347.834 317.862 346.304 319.56 345.41L324.23 342.96C325.924 342.069 327.903 341.884 329.733 342.446C331.564 343.008 333.098 344.271 334 345.96L335 348Z" fill="#F0F0F0"/>
<path d="M100.31 226.35L101.04 224.27C102.171 221 101.96 217.414 100.453 214.299C98.946 211.184 96.2662 208.793 93.0001 207.65L88.0001 205.92C84.726 204.791 81.1377 205.008 78.0233 206.523C74.909 208.038 72.5233 210.727 71.3901 214L70.6601 216.09L67.1901 214.88L58.8901 238.77L95.5001 251.45L103.79 227.56L100.31 226.35ZM82.9301 232.86L81.4801 237L78.8301 236.08L80.2801 231.91C79.9694 231.554 79.757 231.124 79.6641 230.661C79.5711 230.197 79.6008 229.718 79.7501 229.27C79.9928 228.574 80.5021 228.003 81.166 227.682C81.8299 227.361 82.5939 227.317 83.2901 227.56C83.9863 227.803 84.5576 228.312 84.8783 228.976C85.199 229.64 85.2428 230.404 85.0001 231.1C84.8388 231.549 84.5628 231.947 84.1996 232.256C83.8365 232.565 83.3988 232.773 82.9301 232.86ZM94.8201 224.45L76.1601 218L76.8801 215.91C77.5132 214.1 78.8378 212.614 80.564 211.778C82.2902 210.942 84.2772 210.824 86.0901 211.45L91.0901 213.18C92.9022 213.811 94.3898 215.135 95.2261 216.862C96.0623 218.589 96.1789 220.577 95.5501 222.39L94.8201 224.45Z" fill="#F0F0F0"/>
<path d="M427.93 214.67L425.79 213.99C428.72 213.471 431.392 211.984 433.378 209.768C435.364 207.552 436.551 204.735 436.748 201.766C436.945 198.796 436.141 195.847 434.465 193.388C432.789 190.929 430.337 189.102 427.501 188.2C424.666 187.298 421.609 187.373 418.821 188.412C416.032 189.45 413.672 191.394 412.117 193.931C410.563 196.469 409.904 199.454 410.245 202.411C410.586 205.367 411.908 208.123 414 210.24L411.87 209.56C408.748 208.563 405.359 208.846 402.445 210.346C399.532 211.845 397.332 214.44 396.33 217.56L394.19 224.3L433.83 236.89L436 230.2C436.492 228.65 436.673 227.019 436.534 225.399C436.394 223.78 435.937 222.203 435.187 220.761C434.437 219.318 433.411 218.037 432.165 216.992C430.92 215.947 429.481 215.158 427.93 214.67Z" fill="#F0F0F0"/>
<path d="M284.19 93.8999L282.86 94.4599C284.079 92.981 284.766 91.1364 284.813 89.2208C284.86 87.3052 284.264 85.4291 283.119 83.8922C281.975 82.3553 280.348 81.2463 278.5 80.7424C276.651 80.2384 274.687 80.3686 272.921 81.1121C271.155 81.8555 269.689 83.1694 268.757 84.8439C267.825 86.5183 267.482 88.4567 267.781 90.3494C268.08 92.242 269.005 93.9798 270.408 95.285C271.811 96.5903 273.611 97.3877 275.52 97.5499L274.19 98.1099C272.251 98.9352 270.715 100.493 269.917 102.444C269.12 104.395 269.124 106.582 269.93 108.53L271.69 112.73L296.38 102.35L294.61 98.1599C293.785 96.2203 292.227 94.6847 290.276 93.8871C288.325 93.0894 286.138 93.094 284.19 93.8999Z" fill="#F0F0F0"/>
<path d="M105.5 122L104.09 121.71C105.938 121.186 107.558 120.057 108.689 118.504C109.821 116.951 110.399 115.064 110.331 113.144C110.264 111.224 109.554 109.382 108.317 107.912C107.079 106.443 105.384 105.43 103.504 105.037C101.623 104.644 99.6647 104.893 97.9421 105.744C96.2195 106.595 94.8319 107.999 94.0011 109.731C93.1703 111.464 92.9443 113.425 93.3592 115.301C93.7741 117.177 94.8059 118.859 96.2898 120.08L94.8798 119.79C92.8077 119.37 90.6537 119.788 88.8886 120.952C87.1235 122.115 85.8908 123.93 85.4598 126L84.5298 130.45L110.74 135.91L111.67 131.46C112.102 129.388 111.696 127.228 110.539 125.455C109.383 123.682 107.571 122.44 105.5 122Z" fill="#F0F0F0"/>
<path d="M250 427.56C357.082 427.56 443.89 422.492 443.89 416.24C443.89 409.988 357.082 404.92 250 404.92C142.917 404.92 56.1099 409.988 56.1099 416.24C56.1099 422.492 142.917 427.56 250 427.56Z" fill="#F5F5F5"/>
<path d="M369.18 133.42H190.27C186.227 133.42 182.95 136.697 182.95 140.74V360.41C182.95 364.453 186.227 367.73 190.27 367.73H369.18C373.223 367.73 376.5 364.453 376.5 360.41V140.74C376.5 136.697 373.223 133.42 369.18 133.42Z" fill="#D5A976"/>
<path opacity="0.6" d="M369.18 133.42H190.27C186.227 133.42 182.95 136.697 182.95 140.74V360.41C182.95 364.453 186.227 367.73 190.27 367.73H369.18C373.223 367.73 376.5 364.453 376.5 360.41V140.74C376.5 136.697 373.223 133.42 369.18 133.42Z" fill="white"/>
<path d="M345.14 277.77H214.3V300.17H345.14V277.77Z" fill="white"/>
<g opacity="0.4">
<path d="M220.9 288.53C220.895 288.091 220.978 287.656 221.146 287.251C221.314 286.845 221.563 286.479 221.877 286.173C222.192 285.867 222.565 285.628 222.975 285.471C223.385 285.314 223.822 285.242 224.26 285.26C224.696 285.244 225.13 285.32 225.535 285.482C225.939 285.644 226.306 285.888 226.61 286.2L226.18 286.63C225.933 286.379 225.637 286.183 225.31 286.052C224.983 285.921 224.632 285.859 224.28 285.87C223.575 285.87 222.898 286.15 222.399 286.649C221.901 287.148 221.62 287.824 221.62 288.53C221.62 289.235 221.901 289.912 222.399 290.411C222.898 290.91 223.575 291.19 224.28 291.19C224.633 291.201 224.985 291.139 225.312 291.006C225.639 290.873 225.935 290.674 226.18 290.42L226.61 290.85C226.305 291.163 225.936 291.408 225.53 291.57C225.123 291.732 224.688 291.807 224.25 291.79C223.813 291.809 223.376 291.739 222.967 291.583C222.558 291.427 222.185 291.189 221.871 290.884C221.557 290.578 221.309 290.212 221.142 289.807C220.976 289.402 220.893 288.968 220.9 288.53Z" fill="#263238"/>
<path d="M227.22 289.33C227.218 288.843 227.361 288.367 227.63 287.961C227.899 287.555 228.283 287.238 228.732 287.05C229.181 286.863 229.676 286.812 230.154 286.906C230.632 287 231.071 287.233 231.416 287.577C231.761 287.921 231.997 288.359 232.092 288.836C232.188 289.314 232.14 289.809 231.954 290.259C231.768 290.709 231.453 291.094 231.048 291.365C230.643 291.636 230.167 291.78 229.68 291.78C229.355 291.791 229.031 291.735 228.728 291.616C228.425 291.497 228.15 291.317 227.92 291.088C227.689 290.858 227.508 290.584 227.388 290.281C227.268 289.979 227.211 289.655 227.22 289.33ZM231.47 289.33C231.455 288.977 231.336 288.637 231.128 288.352C230.921 288.066 230.634 287.848 230.303 287.724C229.973 287.601 229.613 287.577 229.269 287.656C228.925 287.735 228.612 287.913 228.368 288.169C228.125 288.425 227.962 288.746 227.9 289.094C227.838 289.441 227.879 289.799 228.019 290.123C228.159 290.447 228.391 290.723 228.686 290.916C228.982 291.11 229.327 291.212 229.68 291.21C229.924 291.215 230.167 291.169 230.392 291.075C230.617 290.981 230.821 290.841 230.989 290.664C231.157 290.487 231.287 290.277 231.37 290.048C231.453 289.818 231.487 289.574 231.47 289.33Z" fill="#263238"/>
<path d="M237.9 288.94V291.74H237.25V289C237.28 288.799 237.263 288.594 237.202 288.4C237.141 288.206 237.037 288.028 236.897 287.88C236.758 287.732 236.587 287.617 236.397 287.544C236.207 287.472 236.003 287.443 235.8 287.46C235.569 287.444 235.337 287.479 235.121 287.562C234.905 287.646 234.709 287.775 234.548 287.942C234.387 288.109 234.265 288.308 234.189 288.528C234.113 288.747 234.087 288.98 234.11 289.21V291.74H233.46V286.91H234.08V287.8C234.275 287.494 234.549 287.247 234.873 287.085C235.197 286.923 235.559 286.852 235.92 286.88C236.193 286.859 236.466 286.899 236.722 286.996C236.977 287.093 237.208 287.246 237.397 287.443C237.586 287.64 237.729 287.876 237.817 288.135C237.904 288.394 237.932 288.669 237.9 288.94Z" fill="#263238"/>
<path d="M241.24 284.89C241.598 284.871 241.952 284.977 242.24 285.19L242.02 285.68C241.817 285.516 241.562 285.43 241.3 285.44C240.75 285.44 240.45 285.75 240.45 286.35V286.91H241.94V287.46H240.47V291.74H239.82V287.46H238.96V286.91H239.82V286.32C239.806 286.129 239.832 285.938 239.898 285.758C239.964 285.579 240.068 285.415 240.203 285.28C240.337 285.144 240.5 285.039 240.679 284.972C240.858 284.904 241.05 284.877 241.24 284.89ZM244.32 285.38C244.322 285.443 244.31 285.506 244.287 285.565C244.263 285.624 244.228 285.678 244.183 285.722C244.138 285.767 244.085 285.803 244.026 285.826C243.967 285.85 243.904 285.861 243.84 285.86C243.774 285.87 243.706 285.865 243.641 285.846C243.576 285.827 243.516 285.795 243.465 285.751C243.414 285.707 243.373 285.652 243.345 285.591C243.317 285.529 243.302 285.463 243.302 285.395C243.302 285.328 243.317 285.261 243.345 285.199C243.373 285.138 243.414 285.083 243.465 285.039C243.516 284.995 243.576 284.963 243.641 284.944C243.706 284.925 243.774 284.92 243.84 284.93C243.902 284.927 243.963 284.937 244.02 284.958C244.078 284.98 244.13 285.012 244.175 285.054C244.22 285.096 244.256 285.146 244.281 285.202C244.306 285.258 244.319 285.319 244.32 285.38ZM243.51 286.91H244.16V291.74H243.51V286.91Z" fill="#263238"/>
<path d="M248.41 286.88V287.51H248.25C248.021 287.499 247.791 287.539 247.579 287.626C247.366 287.714 247.176 287.848 247.021 288.018C246.866 288.188 246.751 288.39 246.683 288.61C246.616 288.83 246.598 289.062 246.63 289.29V291.75H246V286.92H246.62V287.87C246.785 287.545 247.044 287.276 247.363 287.1C247.682 286.923 248.047 286.847 248.41 286.88Z" fill="#263238"/>
<path d="M257.541 288.94V291.74H256.891V289C256.891 288 256.381 287.46 255.511 287.46C255.284 287.45 255.057 287.489 254.847 287.575C254.637 287.661 254.448 287.792 254.294 287.959C254.14 288.125 254.024 288.324 253.954 288.54C253.884 288.756 253.863 288.985 253.891 289.21V291.74H253.241V289C253.241 288 252.731 287.46 251.851 287.46C251.624 287.451 251.399 287.492 251.189 287.578C250.98 287.665 250.792 287.796 250.638 287.962C250.484 288.129 250.368 288.326 250.298 288.542C250.227 288.757 250.204 288.985 250.231 289.21V291.74H249.581V286.91H250.211V287.79C250.4 287.497 250.664 287.259 250.974 287.099C251.285 286.94 251.632 286.864 251.981 286.88C252.334 286.852 252.687 286.932 252.993 287.111C253.299 287.29 253.542 287.558 253.691 287.88C253.889 287.556 254.171 287.292 254.507 287.116C254.844 286.94 255.222 286.859 255.601 286.88C255.871 286.86 256.143 286.9 256.396 286.998C256.648 287.096 256.876 287.25 257.062 287.447C257.248 287.645 257.388 287.881 257.47 288.14C257.553 288.398 257.577 288.671 257.541 288.94Z" fill="#263238"/>
<path d="M267.221 285.32V291.74H266.661L262.531 286.53V291.74H261.851V285.32H262.411L266.551 290.53V285.32H267.221Z" fill="#263238"/>
<path d="M273.37 289.53H269.37C269.383 289.766 269.443 289.997 269.545 290.209C269.648 290.422 269.792 290.611 269.969 290.768C270.146 290.924 270.352 291.044 270.575 291.12C270.799 291.196 271.035 291.226 271.27 291.21C271.548 291.219 271.823 291.166 272.078 291.056C272.332 290.945 272.558 290.779 272.74 290.57L273.11 291C272.764 291.362 272.318 291.614 271.83 291.724C271.341 291.834 270.83 291.798 270.362 291.62C269.894 291.442 269.488 291.129 269.196 290.722C268.904 290.315 268.739 289.831 268.72 289.33C268.703 289.012 268.75 288.694 268.861 288.395C268.971 288.096 269.142 287.824 269.362 287.594C269.583 287.364 269.848 287.182 270.142 287.059C270.436 286.936 270.752 286.875 271.07 286.88C271.389 286.874 271.705 286.934 271.999 287.056C272.293 287.179 272.559 287.361 272.779 287.591C272.999 287.821 273.168 288.095 273.277 288.394C273.386 288.694 273.431 289.012 273.41 289.33C273.38 289.38 273.37 289.45 273.37 289.53ZM269.37 289.04H272.79C272.79 288.587 272.61 288.152 272.29 287.831C271.969 287.51 271.534 287.33 271.08 287.33C270.627 287.33 270.192 287.51 269.871 287.831C269.551 288.152 269.37 288.587 269.37 289.04Z" fill="#263238"/>
<path d="M281.701 286.91L279.871 291.74H279.261L277.741 287.79L276.221 291.74H275.601L273.791 286.91H274.411L275.921 291.01L277.471 286.91H278.001L279.541 291.01L281.071 286.91H281.701Z" fill="#263238"/>
<path d="M290.25 287.52C290.25 288.89 289.25 289.71 287.62 289.71H285.9V291.71H285.22V285.29H287.62C289.26 285.32 290.25 286.14 290.25 287.52ZM289.57 287.52C289.57 286.52 288.89 285.91 287.57 285.91H285.9V289.12H287.61C288.89 289.12 289.57 288.53 289.57 287.52Z" fill="#263238"/>
<path d="M295.17 288.75V291.75H294.55V291C294.369 291.267 294.119 291.481 293.827 291.62C293.536 291.759 293.212 291.818 292.89 291.79C291.8 291.79 291.13 291.22 291.13 290.39C291.13 289.56 291.6 289 293 289H294.53V288.71C294.53 287.89 294.06 287.44 293.16 287.44C292.578 287.433 292.011 287.631 291.56 288L291.27 287.52C291.839 287.074 292.548 286.844 293.27 286.87C293.525 286.84 293.784 286.868 294.027 286.952C294.269 287.035 294.49 287.172 294.673 287.353C294.855 287.533 294.995 287.753 295.081 287.995C295.167 288.237 295.198 288.495 295.17 288.75ZM294.52 290.29V289.5H293C292.06 289.5 291.76 289.87 291.76 290.36C291.76 290.85 292.21 291.27 292.98 291.27C293.308 291.291 293.633 291.207 293.91 291.031C294.187 290.855 294.4 290.595 294.52 290.29Z" fill="#263238"/>
<path d="M296.271 291.19L296.571 290.67C297.067 291.031 297.667 291.22 298.281 291.21C299.201 291.21 299.571 290.9 299.571 290.43C299.571 289.17 296.451 290.16 296.451 288.25C296.451 287.46 297.131 286.88 298.351 286.88C298.951 286.867 299.544 287.023 300.061 287.33L299.781 287.85C299.356 287.573 298.858 287.43 298.351 287.44C297.481 287.44 297.101 287.78 297.101 288.23C297.101 289.54 300.231 288.56 300.231 290.41C300.231 291.24 299.491 291.78 298.231 291.78C297.531 291.8 296.843 291.593 296.271 291.19Z" fill="#263238"/>
<path d="M300.76 291.19L301.05 290.67C301.551 291.029 302.154 291.218 302.77 291.21C303.68 291.21 304.06 290.9 304.06 290.43C304.06 289.17 300.93 290.16 300.93 288.25C300.93 287.46 301.61 286.88 302.84 286.88C303.438 286.868 304.027 287.024 304.54 287.33L304.26 287.85C303.839 287.573 303.344 287.43 302.84 287.44C301.97 287.44 301.58 287.78 301.58 288.23C301.58 289.54 304.71 288.56 304.71 290.41C304.71 291.24 303.98 291.78 302.71 291.78C302.013 291.801 301.329 291.594 300.76 291.19Z" fill="#263238"/>
<path d="M312.9 286.91L311.07 291.74H310.46L308.94 287.79L307.421 291.74H306.8L305 286.91H305.62L307.13 291.01L308.68 286.91H309.24L310.78 291.01L312.31 286.91H312.9Z" fill="#263238"/>
<path d="M313.26 289.33C313.26 288.846 313.404 288.373 313.672 287.97C313.941 287.567 314.323 287.253 314.77 287.068C315.217 286.882 315.71 286.833 316.184 286.926C316.659 287.02 317.096 287.253 317.439 287.594C317.782 287.936 318.016 288.371 318.112 288.846C318.208 289.321 318.16 289.813 317.977 290.261C317.793 290.709 317.48 291.092 317.079 291.362C316.677 291.633 316.204 291.778 315.72 291.78C315.395 291.793 315.07 291.738 314.766 291.619C314.463 291.501 314.187 291.321 313.956 291.091C313.726 290.861 313.545 290.586 313.425 290.283C313.305 289.98 313.249 289.656 313.26 289.33ZM317.5 289.33C317.483 288.98 317.363 288.643 317.155 288.36C316.947 288.078 316.662 287.863 316.333 287.741C316.004 287.62 315.647 287.597 315.305 287.677C314.964 287.757 314.654 287.935 314.413 288.189C314.172 288.444 314.011 288.764 313.95 289.109C313.889 289.454 313.93 289.81 314.07 290.131C314.209 290.453 314.44 290.727 314.733 290.918C315.026 291.11 315.37 291.212 315.72 291.21C315.963 291.213 316.205 291.166 316.429 291.072C316.653 290.977 316.855 290.837 317.022 290.66C317.19 290.484 317.318 290.274 317.401 290.045C317.483 289.816 317.517 289.573 317.5 289.33Z" fill="#263238"/>
<path d="M321.92 286.88V287.51H321.77C321.54 287.499 321.311 287.539 321.099 287.627C320.886 287.714 320.695 287.848 320.541 288.018C320.386 288.188 320.271 288.391 320.203 288.61C320.136 288.83 320.118 289.062 320.15 289.29V291.75H319.49V286.92H320.12V287.87C320.286 287.543 320.546 287.274 320.867 287.097C321.188 286.92 321.555 286.845 321.92 286.88Z" fill="#263238"/>
<path d="M327.451 284.93V291.74H326.831V290.74C326.638 291.058 326.364 291.318 326.037 291.494C325.71 291.67 325.342 291.755 324.971 291.74C324.321 291.74 323.698 291.482 323.238 291.023C322.779 290.563 322.521 289.94 322.521 289.29C322.521 288.64 322.779 288.017 323.238 287.558C323.698 287.098 324.321 286.84 324.971 286.84C325.331 286.828 325.69 286.909 326.01 287.075C326.331 287.241 326.603 287.488 326.801 287.79V284.89L327.451 284.93ZM326.811 289.33C326.793 288.98 326.673 288.644 326.466 288.361C326.259 288.079 325.974 287.864 325.645 287.742C325.317 287.62 324.96 287.597 324.619 287.676C324.278 287.755 323.968 287.932 323.726 288.186C323.485 288.439 323.323 288.758 323.261 289.103C323.199 289.447 323.239 289.802 323.377 290.124C323.515 290.446 323.744 290.721 324.036 290.914C324.328 291.107 324.67 291.21 325.021 291.21C325.265 291.215 325.507 291.169 325.732 291.075C325.958 290.981 326.161 290.841 326.329 290.664C326.498 290.487 326.627 290.277 326.71 290.048C326.793 289.818 326.827 289.574 326.811 289.33Z" fill="#263238"/>
</g>
<path opacity="0.2" d="M345.14 321.61H214.3V344.01H345.14V321.61Z" fill="black"/>
<g opacity="0.5">
<path d="M215.11 224.8V226.3H217.11V226.65H215.11V228.28H214.7V224.45H217.33V224.8H215.11Z" fill="black"/>
<path d="M217.7 226.84C217.7 226.549 217.786 226.265 217.948 226.023C218.109 225.781 218.339 225.593 218.608 225.482C218.876 225.371 219.172 225.341 219.457 225.398C219.742 225.455 220.004 225.595 220.21 225.8C220.415 226.006 220.555 226.268 220.612 226.553C220.669 226.838 220.64 227.134 220.528 227.402C220.417 227.671 220.229 227.901 219.987 228.062C219.745 228.224 219.461 228.31 219.17 228.31C218.975 228.317 218.781 228.284 218.599 228.212C218.418 228.141 218.253 228.033 218.115 227.895C217.977 227.757 217.869 227.592 217.798 227.411C217.726 227.229 217.693 227.035 217.7 226.84ZM220.24 226.84C220.232 226.628 220.162 226.423 220.038 226.25C219.914 226.078 219.743 225.946 219.544 225.87C219.346 225.795 219.129 225.78 218.922 225.827C218.715 225.873 218.527 225.98 218.38 226.134C218.233 226.287 218.135 226.481 218.098 226.69C218.06 226.899 218.085 227.114 218.17 227.309C218.254 227.504 218.394 227.669 218.572 227.785C218.75 227.901 218.958 227.962 219.17 227.96C219.316 227.963 219.46 227.936 219.595 227.88C219.73 227.824 219.851 227.741 219.952 227.635C220.052 227.53 220.13 227.405 220.18 227.268C220.229 227.131 220.25 226.985 220.24 226.84Z" fill="black"/>
<path d="M222.88 225.38V225.76H222.79C222.651 225.748 222.51 225.768 222.379 225.818C222.248 225.868 222.13 225.947 222.034 226.048C221.938 226.15 221.866 226.273 221.824 226.406C221.782 226.54 221.77 226.681 221.79 226.82V228.29H221.4V225.4H221.77V226C221.867 225.794 222.027 225.623 222.226 225.511C222.425 225.4 222.654 225.354 222.88 225.38Z" fill="black"/>
<path d="M226.22 225.4V227.93C226.251 228.126 226.235 228.327 226.173 228.515C226.112 228.704 226.007 228.876 225.866 229.016C225.726 229.157 225.554 229.262 225.366 229.323C225.177 229.385 224.976 229.401 224.78 229.37C224.295 229.391 223.819 229.235 223.44 228.93L223.64 228.63C223.955 228.897 224.357 229.039 224.77 229.03C225.5 229.03 225.83 228.69 225.83 227.98V227.61C225.706 227.791 225.539 227.937 225.343 228.035C225.147 228.133 224.929 228.179 224.71 228.17C224.517 228.186 224.323 228.162 224.139 228.1C223.956 228.037 223.787 227.937 223.645 227.806C223.502 227.675 223.388 227.515 223.31 227.338C223.232 227.161 223.192 226.969 223.192 226.775C223.192 226.581 223.232 226.389 223.31 226.212C223.388 226.035 223.502 225.875 223.645 225.744C223.787 225.613 223.956 225.513 224.139 225.45C224.323 225.388 224.517 225.364 224.71 225.38C224.933 225.371 225.154 225.419 225.353 225.518C225.553 225.618 225.724 225.766 225.85 225.95V225.4H226.22ZM225.84 226.77C225.846 226.553 225.787 226.34 225.671 226.156C225.555 225.973 225.387 225.829 225.188 225.742C224.99 225.655 224.77 225.629 224.556 225.667C224.343 225.706 224.146 225.807 223.991 225.959C223.835 226.11 223.728 226.304 223.684 226.516C223.639 226.728 223.659 226.949 223.741 227.15C223.822 227.351 223.962 227.523 224.142 227.644C224.321 227.765 224.533 227.83 224.75 227.83C224.894 227.843 225.039 227.825 225.175 227.777C225.312 227.729 225.436 227.652 225.539 227.551C225.643 227.45 225.723 227.328 225.775 227.194C225.827 227.059 225.849 226.914 225.84 226.77Z" fill="black"/>
<path d="M227 226.84C227 226.549 227.087 226.265 227.248 226.023C227.41 225.781 227.639 225.593 227.908 225.482C228.176 225.371 228.472 225.341 228.757 225.398C229.042 225.455 229.304 225.595 229.51 225.8C229.715 226.006 229.855 226.268 229.912 226.553C229.969 226.838 229.94 227.134 229.829 227.402C229.717 227.671 229.529 227.901 229.287 228.062C229.045 228.224 228.761 228.31 228.47 228.31C228.276 228.317 228.081 228.284 227.9 228.212C227.718 228.141 227.553 228.033 227.415 227.895C227.277 227.757 227.169 227.592 227.098 227.411C227.027 227.229 226.993 227.035 227 226.84ZM229.54 226.84C229.531 226.631 229.46 226.429 229.336 226.26C229.213 226.09 229.043 225.961 228.846 225.888C228.65 225.814 228.437 225.8 228.233 225.847C228.029 225.894 227.843 225.999 227.698 226.151C227.553 226.302 227.456 226.493 227.419 226.699C227.381 226.905 227.405 227.117 227.488 227.31C227.57 227.503 227.707 227.667 227.881 227.782C228.056 227.898 228.261 227.96 228.47 227.96C228.618 227.966 228.765 227.941 228.902 227.886C229.039 227.832 229.162 227.749 229.265 227.643C229.368 227.537 229.448 227.411 229.498 227.273C229.549 227.135 229.57 226.987 229.56 226.84H229.54Z" fill="black"/>
<path d="M232.27 228.11C232.094 228.242 231.88 228.312 231.66 228.31C231.547 228.323 231.432 228.31 231.324 228.272C231.217 228.234 231.119 228.173 231.038 228.092C230.957 228.011 230.896 227.914 230.858 227.806C230.821 227.698 230.808 227.583 230.82 227.47V225.73H230.3V225.4H230.82V224.77H231.21V225.4H232.08V225.73H231.21V227.45C231.21 227.79 231.38 227.97 231.7 227.97C231.855 227.973 232.007 227.924 232.13 227.83L232.27 228.11Z" fill="black"/>
<path d="M237.5 225.76C237.5 226.58 236.9 227.07 235.93 227.07H234.93V228.28H234.52V224.45H235.96C236.9 224.45 237.5 224.94 237.5 225.76ZM237.09 225.76C237.09 225.15 236.69 224.76 235.92 224.76H234.92V226.67H235.92C236.69 226.71 237.09 226.36 237.09 225.76Z" fill="black"/>
<path d="M240.44 226.5V228.28H240.07V227.83C239.962 227.992 239.812 228.122 239.636 228.207C239.46 228.291 239.265 228.327 239.07 228.31C238.41 228.31 238.01 227.97 238.01 227.47C238.01 226.97 238.3 226.65 239.13 226.65H240.04V226.48C240.049 226.374 240.033 226.267 239.995 226.167C239.957 226.068 239.896 225.978 239.818 225.905C239.741 225.832 239.647 225.777 239.545 225.745C239.444 225.713 239.336 225.705 239.23 225.72C238.866 225.703 238.508 225.824 238.23 226.06L238.05 225.77C238.383 225.507 238.797 225.369 239.22 225.38C239.379 225.342 239.545 225.344 239.703 225.385C239.861 225.427 240.007 225.506 240.127 225.616C240.248 225.727 240.339 225.865 240.394 226.019C240.448 226.173 240.464 226.338 240.44 226.5ZM240.05 227.42V226.94H239.15C238.59 226.94 238.41 227.16 238.41 227.46C238.41 227.76 238.68 228 239.14 228C239.334 228.012 239.526 227.962 239.689 227.857C239.853 227.753 239.979 227.6 240.05 227.42Z" fill="black"/>
<path d="M241.1 228L241.28 227.7C241.572 227.908 241.922 228.02 242.28 228.02C242.83 228.02 243.05 227.83 243.05 227.55C243.05 226.8 241.18 227.39 241.18 226.25C241.18 225.78 241.59 225.43 242.32 225.43C242.672 225.424 243.019 225.518 243.32 225.7L243.15 226.01C242.9 225.839 242.603 225.752 242.3 225.76C241.78 225.76 241.55 225.96 241.55 226.24C241.55 227.02 243.42 226.43 243.42 227.54C243.42 228.04 242.98 228.36 242.23 228.36C241.825 228.364 241.429 228.237 241.1 228Z" fill="black"/>
<path d="M243.78 228L243.96 227.7C244.253 227.907 244.602 228.019 244.96 228.02C245.51 228.02 245.73 227.83 245.73 227.55C245.73 226.8 243.87 227.39 243.87 226.25C243.87 225.78 244.27 225.43 245 225.43C245.352 225.424 245.699 225.518 246 225.7L245.83 226.01C245.58 225.839 245.283 225.752 244.98 225.76C244.46 225.76 244.23 225.96 244.23 226.24C244.23 227.02 246.1 226.43 246.1 227.54C246.1 228.04 245.66 228.36 244.91 228.36C244.505 228.364 244.109 228.237 243.78 228Z" fill="black"/>
<path d="M251 225.4L250 228.28H249.63L248.72 225.92L247.81 228.28H247.44L246.36 225.4H246.73L247.63 227.85L248.56 225.4H248.89L249.81 227.85L250.73 225.4H251Z" fill="black"/>
<path d="M251.25 226.84C251.25 226.549 251.337 226.265 251.498 226.023C251.66 225.781 251.889 225.593 252.158 225.482C252.426 225.371 252.722 225.341 253.007 225.398C253.292 225.455 253.554 225.595 253.76 225.8C253.965 226.006 254.105 226.268 254.162 226.553C254.219 226.838 254.19 227.134 254.079 227.402C253.967 227.671 253.779 227.901 253.537 228.062C253.295 228.224 253.011 228.31 252.72 228.31C252.526 228.317 252.331 228.284 252.15 228.212C251.968 228.141 251.803 228.033 251.665 227.895C251.527 227.757 251.419 227.592 251.348 227.411C251.277 227.229 251.243 227.035 251.25 226.84ZM253.79 226.84C253.781 226.631 253.71 226.429 253.586 226.26C253.463 226.09 253.293 225.961 253.096 225.888C252.9 225.814 252.687 225.8 252.483 225.847C252.279 225.894 252.093 225.999 251.948 226.151C251.803 226.302 251.706 226.493 251.669 226.699C251.631 226.905 251.655 227.117 251.738 227.31C251.82 227.503 251.957 227.667 252.131 227.782C252.306 227.898 252.511 227.96 252.72 227.96C252.866 227.963 253.011 227.936 253.145 227.88C253.28 227.824 253.401 227.741 253.502 227.635C253.603 227.53 253.68 227.405 253.73 227.268C253.78 227.131 253.8 226.985 253.79 226.84Z" fill="black"/>
<path d="M256.43 225.38V225.76H256.34C256.2 225.748 256.06 225.768 255.929 225.818C255.798 225.868 255.68 225.947 255.584 226.048C255.488 226.15 255.416 226.273 255.374 226.406C255.331 226.54 255.32 226.681 255.34 226.82V228.29H255V225.4H255.37V226C255.464 225.802 255.615 225.637 255.804 225.527C255.993 225.416 256.211 225.365 256.43 225.38Z" fill="black"/>
<path d="M259.74 224.22V228.28H259.36V227.71C259.247 227.901 259.083 228.058 258.888 228.163C258.693 228.269 258.472 228.32 258.25 228.31C257.883 228.28 257.54 228.112 257.29 227.841C257.04 227.569 256.901 227.214 256.901 226.845C256.901 226.476 257.04 226.121 257.29 225.849C257.54 225.578 257.883 225.41 258.25 225.38C258.467 225.373 258.682 225.422 258.874 225.522C259.067 225.622 259.231 225.769 259.35 225.95V224.22H259.74ZM259.35 226.84C259.34 226.631 259.269 226.429 259.146 226.26C259.023 226.09 258.852 225.961 258.656 225.888C258.46 225.814 258.247 225.8 258.042 225.847C257.838 225.894 257.652 225.999 257.508 226.151C257.363 226.302 257.266 226.493 257.229 226.699C257.191 226.905 257.215 227.118 257.297 227.31C257.38 227.503 257.517 227.667 257.691 227.783C257.866 227.898 258.071 227.96 258.28 227.96C258.426 227.963 258.571 227.936 258.705 227.88C258.84 227.824 258.961 227.741 259.062 227.636C259.162 227.53 259.24 227.405 259.29 227.268C259.339 227.131 259.36 226.985 259.35 226.84Z" fill="black"/>
<path d="M262.57 225.43C262.57 225.03 262.25 224.76 261.69 224.76C261.493 224.747 261.295 224.779 261.113 224.856C260.931 224.932 260.769 225.05 260.64 225.2L260.35 224.98C260.52 224.787 260.732 224.635 260.969 224.537C261.207 224.438 261.463 224.395 261.72 224.41C262.48 224.41 262.98 224.78 262.98 225.41C262.98 226.34 261.98 226.41 261.98 227.17H261.58C261.57 226.23 262.57 226.14 262.57 225.43ZM261.49 228C261.503 227.934 261.538 227.874 261.59 227.83C261.642 227.787 261.707 227.764 261.775 227.764C261.843 227.764 261.908 227.787 261.96 227.83C262.012 227.874 262.048 227.934 262.06 228C262.068 228.042 262.067 228.085 262.056 228.126C262.045 228.168 262.026 228.206 261.998 228.239C261.971 228.272 261.937 228.298 261.898 228.316C261.86 228.334 261.818 228.344 261.775 228.344C261.732 228.344 261.69 228.334 261.652 228.316C261.613 228.298 261.579 228.272 261.552 228.239C261.525 228.206 261.505 228.168 261.494 228.126C261.484 228.085 261.482 228.042 261.49 228Z" fill="black"/>
</g>
<path d="M345.14 320.23H214.3V342.63H345.14V320.23Z" fill="#D5A976"/>
<path d="M242.83 334L243.24 333.14C243.952 333.726 244.848 334.041 245.77 334.03C247.09 334.03 247.66 333.52 247.66 332.85C247.66 330.98 243.02 332.16 243.02 329.31C243.02 328.13 243.94 327.12 245.95 327.12C246.822 327.104 247.68 327.34 248.42 327.8L248.06 328.67C247.428 328.27 246.698 328.055 245.95 328.05C244.65 328.05 244.09 328.6 244.09 329.27C244.09 331.14 248.74 329.97 248.74 332.78C248.74 333.96 247.74 334.96 245.74 334.96C244.688 334.987 243.66 334.648 242.83 334Z" fill="white"/>
<path d="M255.41 332.36H250.7C250.774 332.856 251.032 333.307 251.423 333.622C251.814 333.937 252.309 334.093 252.81 334.06C253.122 334.07 253.433 334.012 253.721 333.891C254.009 333.771 254.268 333.589 254.48 333.36L255.06 334.04C254.633 334.475 254.09 334.778 253.495 334.912C252.9 335.045 252.279 335.004 251.707 334.792C251.135 334.581 250.637 334.208 250.272 333.72C249.907 333.232 249.691 332.648 249.65 332.04C249.629 331.648 249.69 331.256 249.827 330.889C249.965 330.521 250.177 330.186 250.45 329.905C250.723 329.623 251.052 329.401 251.415 329.252C251.778 329.103 252.168 329.031 252.56 329.04C252.951 329.029 253.34 329.1 253.702 329.249C254.063 329.398 254.39 329.621 254.66 329.903C254.931 330.186 255.139 330.522 255.272 330.89C255.404 331.258 255.458 331.65 255.43 332.04C255.43 332.13 255.42 332.26 255.41 332.36ZM250.7 331.61H254.43C254.372 331.156 254.151 330.739 253.808 330.436C253.464 330.134 253.023 329.967 252.565 329.967C252.107 329.967 251.666 330.134 251.322 330.436C250.979 330.739 250.758 331.156 250.7 331.61Z" fill="white"/>
<path d="M260.16 334.58C259.795 334.854 259.347 334.996 258.89 334.98C258.644 335.008 258.394 334.981 258.159 334.899C257.924 334.818 257.711 334.685 257.534 334.511C257.358 334.336 257.222 334.124 257.139 333.89C257.055 333.657 257.025 333.407 257.05 333.16V330H256.05V329.14H257.05V327.87H258.1V329.14H259.77V330H258.1V333.15C258.077 333.279 258.083 333.411 258.119 333.537C258.155 333.663 258.22 333.778 258.308 333.875C258.396 333.972 258.505 334.047 258.627 334.095C258.749 334.142 258.88 334.161 259.01 334.15C259.307 334.158 259.596 334.062 259.83 333.88L260.16 334.58Z" fill="white"/>
<path d="M270.73 329.92C270.73 331.59 269.52 332.59 267.53 332.59H265.63V334.92H264.54V327.25H267.54C269.52 327.25 270.73 328.25 270.73 329.92ZM269.63 329.92C269.63 328.82 268.9 328.2 267.5 328.2H265.63V331.64H267.5C268.9 331.64 269.63 331 269.63 329.92Z" fill="white"/>
<path d="M276.74 331.41V334.92H275.74V334.15C275.517 334.437 275.225 334.664 274.892 334.809C274.558 334.954 274.193 335.013 273.83 334.98C272.52 334.98 271.69 334.28 271.69 333.27C271.69 332.26 272.29 331.57 274.02 331.57H275.69V331.37C275.69 330.48 275.17 329.96 274.13 329.96C273.464 329.96 272.817 330.182 272.29 330.59L271.85 329.8C272.545 329.291 273.389 329.027 274.25 329.05C275.84 329.05 276.74 329.82 276.74 331.41ZM275.69 333.14V332.33H274.06C273.06 332.33 272.73 332.74 272.73 333.23C272.73 333.72 273.21 334.17 274.01 334.17C274.363 334.196 274.715 334.11 275.016 333.925C275.317 333.74 275.553 333.466 275.69 333.14Z" fill="white"/>
<path d="M278 334.3L278.44 333.47C279.036 333.857 279.73 334.065 280.44 334.07C281.44 334.07 281.82 333.78 281.82 333.28C281.82 331.98 278.15 333.11 278.15 330.8C278.15 329.8 279.08 329.05 280.57 329.05C281.311 329.037 282.042 329.22 282.69 329.58L282.24 330.41C281.738 330.094 281.153 329.934 280.56 329.95C279.64 329.95 279.19 330.29 279.19 330.75C279.19 332.12 282.88 331 282.88 333.26C282.88 334.31 281.88 334.98 280.37 334.98C279.529 335 278.702 334.763 278 334.3Z" fill="white"/>
<path d="M283.45 334.3L283.89 333.47C284.486 333.857 285.18 334.065 285.89 334.07C286.89 334.07 287.27 333.78 287.27 333.28C287.27 331.98 283.6 333.11 283.6 330.8C283.6 329.8 284.53 329.05 286.02 329.05C286.758 329.038 287.486 329.221 288.13 329.58L287.68 330.41C287.181 330.096 286.6 329.936 286.01 329.95C285.09 329.95 284.64 330.29 284.64 330.75C284.64 332.12 288.32 331 288.32 333.26C288.32 334.31 287.32 334.98 285.81 334.98C284.973 334.997 284.15 334.759 283.45 334.3Z" fill="white"/>
<path d="M298.35 329.11L296.18 334.92H295.18L293.5 330.51L291.8 334.92H290.8L288.65 329.11H289.65L291.34 333.73L293.09 329.11H294L295.72 333.75L297.45 329.11H298.35Z" fill="white"/>
<path d="M298.72 332C298.72 331.407 298.896 330.827 299.226 330.333C299.556 329.84 300.024 329.455 300.572 329.228C301.121 329.001 301.724 328.942 302.306 329.058C302.888 329.173 303.422 329.459 303.842 329.879C304.261 330.298 304.547 330.833 304.663 331.415C304.779 331.997 304.719 332.6 304.492 333.148C304.265 333.696 303.881 334.165 303.387 334.494C302.894 334.824 302.314 335 301.72 335C301.322 335.015 300.925 334.948 300.554 334.803C300.183 334.658 299.846 334.437 299.565 334.156C299.283 333.874 299.063 333.537 298.917 333.166C298.772 332.795 298.705 332.398 298.72 332ZM303.72 332C303.71 331.605 303.583 331.221 303.355 330.898C303.127 330.575 302.809 330.326 302.44 330.184C302.071 330.042 301.668 330.013 301.282 330.099C300.896 330.186 300.545 330.386 300.272 330.672C299.999 330.959 299.818 331.32 299.75 331.709C299.683 332.099 299.733 332.5 299.893 332.862C300.053 333.223 300.317 333.529 300.651 333.741C300.986 333.952 301.375 334.06 301.77 334.05C302.035 334.053 302.298 334.002 302.541 333.898C302.785 333.795 303.005 333.642 303.186 333.449C303.368 333.257 303.507 333.028 303.596 332.779C303.684 332.529 303.72 332.264 303.7 332H303.72Z" fill="white"/>
<path d="M309.34 329.05V330.05H309.1C308.84 330.032 308.579 330.072 308.337 330.169C308.095 330.265 307.878 330.415 307.702 330.608C307.526 330.8 307.396 331.03 307.321 331.279C307.246 331.529 307.229 331.793 307.27 332.05V334.95H306.27V329.14H307.27V330.14C307.479 329.784 307.784 329.493 308.15 329.3C308.516 329.108 308.928 329.021 309.34 329.05Z" fill="white"/>
<path d="M316.06 326.79V334.92H315.06V334C314.823 334.323 314.51 334.582 314.149 334.757C313.789 334.931 313.391 335.015 312.99 335C312.282 334.891 311.637 334.532 311.17 333.988C310.704 333.444 310.447 332.751 310.447 332.035C310.447 331.319 310.704 330.626 311.17 330.082C311.637 329.538 312.282 329.179 312.99 329.07C313.374 329.061 313.754 329.141 314.101 329.304C314.448 329.467 314.753 329.709 314.99 330.01V326.81L316.06 326.79ZM315 332C314.99 331.605 314.863 331.221 314.635 330.898C314.407 330.575 314.089 330.326 313.72 330.184C313.351 330.042 312.948 330.013 312.562 330.099C312.176 330.186 311.824 330.386 311.552 330.672C311.279 330.959 311.098 331.32 311.03 331.709C310.963 332.099 311.012 332.5 311.173 332.862C311.333 333.223 311.597 333.529 311.931 333.741C312.266 333.952 312.655 334.06 313.05 334.05C313.317 334.056 313.581 334.007 313.828 333.905C314.074 333.803 314.296 333.65 314.479 333.457C314.663 333.264 314.804 333.035 314.894 332.784C314.984 332.533 315.02 332.266 315 332Z" fill="white"/>
<g opacity="0.6">
<path d="M238.41 168.17L236.6 165.59C236.43 165.59 236.25 165.59 236.07 165.59H234V168.14H232.8V159.74H236.07C238.25 159.74 239.57 160.85 239.57 162.67C239.598 163.253 239.433 163.828 239.1 164.307C238.767 164.786 238.286 165.142 237.73 165.32L239.73 168.14L238.41 168.17ZM238.41 162.7C238.41 161.5 237.61 160.82 236.07 160.82H234.07V164.6H236.07C237.57 164.6 238.37 163.9 238.37 162.7H238.41Z" fill="#263238"/>
<path d="M247.07 165.38H241.92C241.993 165.925 242.272 166.421 242.7 166.765C243.129 167.11 243.673 167.276 244.22 167.23C244.562 167.243 244.903 167.182 245.219 167.051C245.534 166.919 245.818 166.721 246.05 166.47L246.69 167.21C246.221 167.687 245.624 168.018 244.97 168.162C244.317 168.306 243.636 168.258 243.009 168.023C242.383 167.788 241.838 167.377 241.44 166.838C241.043 166.3 240.81 165.658 240.77 164.99C240.752 164.564 240.822 164.139 240.975 163.741C241.129 163.343 241.362 162.981 241.661 162.677C241.961 162.373 242.319 162.134 242.715 161.975C243.11 161.815 243.534 161.739 243.96 161.75C244.385 161.74 244.807 161.818 245.2 161.979C245.593 162.14 245.948 162.381 246.244 162.686C246.539 162.992 246.767 163.355 246.915 163.753C247.062 164.152 247.125 164.576 247.1 165C247.101 165.127 247.091 165.255 247.07 165.38ZM241.92 164.55H246C246 164.01 245.786 163.493 245.404 163.111C245.023 162.73 244.505 162.515 243.965 162.515C243.426 162.515 242.908 162.73 242.526 163.111C242.145 163.493 241.93 164.01 241.93 164.55H241.92Z" fill="#263238"/>
<path d="M247.89 167.5L248.37 166.59C249.035 167.019 249.809 167.248 250.6 167.25C251.67 167.25 252.11 166.92 252.11 166.38C252.11 164.96 248.11 166.19 248.11 163.66C248.11 162.52 249.11 161.75 250.76 161.75C251.568 161.738 252.364 161.938 253.07 162.33L252.58 163.24C252.032 162.899 251.396 162.726 250.75 162.74C249.75 162.74 249.25 163.11 249.25 163.61C249.25 165.11 253.25 163.89 253.25 166.36C253.25 167.51 252.19 168.24 250.5 168.24C249.575 168.262 248.666 168.004 247.89 167.5Z" fill="#263238"/>
<path d="M260.431 165.38H255.271C255.348 165.923 255.628 166.416 256.055 166.759C256.482 167.103 257.024 167.271 257.571 167.23C257.914 167.243 258.256 167.182 258.573 167.051C258.891 166.92 259.176 166.721 259.411 166.47L260.05 167.21C259.73 167.549 259.339 167.813 258.905 167.986C258.472 168.159 258.006 168.235 257.541 168.21C257.097 168.244 256.652 168.184 256.233 168.035C255.814 167.886 255.431 167.651 255.109 167.344C254.787 167.038 254.532 166.668 254.362 166.257C254.192 165.846 254.109 165.404 254.121 164.96C254.104 164.534 254.175 164.11 254.329 163.713C254.483 163.315 254.716 162.954 255.015 162.65C255.314 162.347 255.672 162.108 256.066 161.948C256.461 161.788 256.885 161.71 257.311 161.72C257.738 161.708 258.164 161.785 258.56 161.948C258.956 162.11 259.313 162.354 259.609 162.663C259.905 162.972 260.133 163.34 260.278 163.742C260.423 164.145 260.481 164.573 260.451 165C260.451 165.12 260.441 165.27 260.431 165.38ZM255.271 164.55H259.351C259.3 164.044 259.064 163.574 258.687 163.233C258.31 162.891 257.819 162.702 257.311 162.702C256.802 162.702 256.311 162.891 255.934 163.233C255.557 163.574 255.321 164.044 255.271 164.55Z" fill="#263238"/>
<path d="M265.63 167.8C265.231 168.102 264.74 168.257 264.24 168.24C263.971 168.268 263.698 168.236 263.443 168.145C263.187 168.055 262.955 167.908 262.763 167.717C262.572 167.525 262.425 167.293 262.335 167.038C262.244 166.782 262.212 166.51 262.24 166.24V162.75H261.16V161.8H262.24V160.41H263.39V161.8H265.21V162.75H263.39V166.19C263.37 166.329 263.382 166.471 263.424 166.605C263.466 166.739 263.538 166.862 263.634 166.964C263.73 167.067 263.848 167.147 263.979 167.198C264.109 167.249 264.25 167.27 264.39 167.26C264.715 167.261 265.031 167.156 265.29 166.96L265.63 167.8Z" fill="#263238"/>
<path d="M277.19 162.7C277.19 164.52 275.87 165.63 273.69 165.63H271.62V168.17H270.42V159.77H273.69C275.87 159.77 277.19 160.88 277.19 162.7ZM275.99 162.7C275.99 161.5 275.19 160.82 273.65 160.82H271.65V164.58H273.65C275.19 164.58 276 163.9 276 162.7H275.99Z" fill="#263238"/>
<path d="M283.77 164.33V168.17H282.68V167.33C282.437 167.646 282.118 167.895 281.752 168.054C281.387 168.213 280.987 168.277 280.59 168.24C279.15 168.24 278.24 167.47 278.24 166.37C278.24 165.27 278.9 164.51 280.79 164.51H282.62V164.28C282.62 163.28 282.05 162.75 280.91 162.75C280.186 162.744 279.481 162.984 278.91 163.43L278.43 162.57C279.191 162.011 280.117 161.722 281.06 161.75C282.79 161.75 283.77 162.59 283.77 164.33ZM282.62 166.23V165.34H280.84C279.7 165.34 279.38 165.78 279.38 166.34C279.38 166.9 279.91 167.34 280.78 167.34C281.165 167.371 281.549 167.281 281.879 167.082C282.209 166.882 282.469 166.585 282.62 166.23Z" fill="#263238"/>
<path d="M285.1 167.5L285.58 166.59C286.245 167.019 287.019 167.248 287.81 167.25C288.88 167.25 289.33 166.92 289.33 166.38C289.33 164.96 285.33 166.19 285.33 163.66C285.33 162.52 286.33 161.75 287.98 161.75C288.788 161.737 289.585 161.937 290.29 162.33L289.8 163.24C289.252 162.898 288.616 162.725 287.97 162.74C286.97 162.74 286.47 163.11 286.47 163.61C286.47 165.11 290.47 163.89 290.47 166.36C290.47 167.51 289.41 168.24 287.72 168.24C286.792 168.262 285.879 168.004 285.1 167.5Z" fill="#263238"/>
<path d="M291.12 167.5L291.6 166.59C292.264 167.02 293.039 167.249 293.83 167.25C294.89 167.25 295.34 166.92 295.34 166.38C295.34 164.96 291.34 166.19 291.34 163.66C291.34 162.52 292.34 161.75 293.99 161.75C294.801 161.738 295.6 161.938 296.31 162.33L295.81 163.24C295.262 162.898 294.626 162.725 293.98 162.74C292.98 162.74 292.48 163.11 292.48 163.61C292.48 165.11 296.48 163.89 296.48 166.36C296.48 167.51 295.42 168.24 293.73 168.24C292.805 168.264 291.895 168.006 291.12 167.5Z" fill="#263238"/>
<path d="M307.43 161.81L305.06 168.17H304L302.17 163.35L300.31 168.17H299.2L296.84 161.81H297.93L299.78 166.88L301.7 161.81H302.7L304.58 166.9L306.48 161.81H307.43Z" fill="#263238"/>
<path d="M307.83 165C307.818 164.343 308.002 163.697 308.359 163.145C308.715 162.593 309.228 162.159 309.831 161.9C310.435 161.64 311.102 161.566 311.748 161.687C312.394 161.807 312.99 162.118 313.459 162.578C313.928 163.039 314.249 163.628 314.382 164.272C314.514 164.916 314.452 165.584 314.204 166.193C313.955 166.801 313.531 167.321 312.985 167.688C312.44 168.054 311.797 168.25 311.14 168.25C310.705 168.269 310.271 168.199 309.865 168.043C309.459 167.888 309.089 167.65 308.778 167.345C308.468 167.04 308.223 166.675 308.06 166.271C307.897 165.868 307.819 165.435 307.83 165ZM313.28 165C313.261 164.582 313.119 164.178 312.872 163.84C312.625 163.501 312.285 163.242 311.892 163.096C311.5 162.949 311.073 162.921 310.665 163.014C310.256 163.108 309.885 163.319 309.595 163.622C309.306 163.925 309.112 164.306 309.037 164.718C308.962 165.13 309.01 165.555 309.174 165.941C309.339 166.326 309.613 166.654 309.962 166.885C310.312 167.116 310.721 167.24 311.14 167.24C311.432 167.248 311.722 167.194 311.992 167.083C312.262 166.972 312.505 166.806 312.707 166.595C312.908 166.384 313.064 166.133 313.162 165.858C313.261 165.583 313.301 165.291 313.28 165Z" fill="#263238"/>
<path d="M319.46 161.75V162.87H319.19C318.911 162.851 318.63 162.895 318.369 162.998C318.109 163.101 317.874 163.26 317.682 163.465C317.491 163.67 317.348 163.915 317.262 164.182C317.177 164.449 317.153 164.732 317.19 165.01V168.18H316V161.82H317.1V162.89C317.345 162.495 317.696 162.178 318.114 161.976C318.532 161.774 318.999 161.696 319.46 161.75Z" fill="#263238"/>
<path d="M326.81 159.27V168.17H325.71V167.17C325.449 167.521 325.105 167.803 324.709 167.991C324.314 168.18 323.878 168.268 323.44 168.25C322.611 168.204 321.831 167.842 321.26 167.238C320.689 166.635 320.371 165.836 320.371 165.005C320.371 164.174 320.689 163.375 321.26 162.772C321.831 162.168 322.611 161.806 323.44 161.76C323.863 161.743 324.283 161.824 324.669 161.998C325.054 162.171 325.393 162.432 325.66 162.76V159.26L326.81 159.27ZM325.67 165C325.651 164.581 325.509 164.177 325.261 163.839C325.014 163.5 324.673 163.241 324.28 163.095C323.887 162.948 323.46 162.921 323.051 163.015C322.643 163.109 322.271 163.322 321.982 163.625C321.693 163.929 321.5 164.311 321.426 164.724C321.352 165.137 321.402 165.562 321.568 165.947C321.734 166.332 322.009 166.66 322.36 166.89C322.711 167.12 323.121 167.242 323.54 167.24C323.831 167.246 324.12 167.192 324.389 167.08C324.658 166.968 324.9 166.802 325.1 166.591C325.301 166.38 325.455 166.129 325.553 165.856C325.651 165.582 325.691 165.29 325.67 165Z" fill="#263238"/>
</g>
<path d="M345.14 244.16H214.3V266.56H345.14V244.16Z" fill="white"/>
<g opacity="0.4">
<path d="M226.83 251.71V258.13H226.27L222.14 252.92V258.13H221.46V251.71H222L226.14 256.92V251.71H226.83Z" fill="#263238"/>
<path d="M233 255.92H229C229.013 256.155 229.072 256.386 229.175 256.599C229.277 256.811 229.421 257.001 229.598 257.157C229.775 257.314 229.981 257.433 230.205 257.509C230.428 257.585 230.664 257.616 230.9 257.6C231.176 257.609 231.451 257.557 231.705 257.448C231.959 257.339 232.186 257.176 232.37 256.97L232.74 257.39C232.393 257.752 231.948 258.003 231.459 258.114C230.97 258.224 230.46 258.188 229.991 258.009C229.523 257.831 229.118 257.519 228.826 257.112C228.534 256.705 228.368 256.22 228.35 255.72C228.332 255.402 228.38 255.084 228.49 254.785C228.601 254.486 228.771 254.213 228.992 253.984C229.212 253.754 229.478 253.572 229.772 253.449C230.065 253.326 230.381 253.265 230.7 253.27C231.018 253.264 231.335 253.323 231.629 253.446C231.923 253.568 232.188 253.75 232.408 253.981C232.628 254.211 232.798 254.485 232.907 254.784C233.015 255.083 233.061 255.402 233.04 255.72C233 255.78 233 255.85 233 255.92ZM229 255.44H232.42C232.42 254.986 232.24 254.551 231.919 254.231C231.598 253.91 231.163 253.73 230.71 253.73C230.256 253.73 229.821 253.91 229.501 254.231C229.18 254.551 229 254.986 229 255.44Z" fill="#263238"/>
<path d="M241.31 253.31L239.49 258.13H238.87L237.35 254.18L235.83 258.13H235.21L233.4 253.31H234L235.51 257.41L237.06 253.31H237.62L239.16 257.41L240.69 253.31H241.31Z" fill="#263238"/>
<path d="M249.86 253.91C249.86 255.28 248.86 256.11 247.24 256.11H245.51V258.11H244.83V251.69H247.24C248.87 251.71 249.86 252.54 249.86 253.91ZM249.18 253.91C249.18 252.91 248.5 252.3 247.18 252.3H245.47V255.51H247.18C248.5 255.51 249.18 254.92 249.18 253.91Z" fill="#263238"/>
<path d="M254.78 255.14V258.14H254.16V257.39C253.981 257.66 253.732 257.877 253.44 258.018C253.148 258.159 252.823 258.218 252.5 258.19C251.41 258.19 250.74 257.62 250.74 256.79C250.74 255.96 251.22 255.42 252.6 255.42H254.13V255.13C254.147 254.95 254.123 254.769 254.06 254.6C253.997 254.431 253.895 254.279 253.764 254.156C253.633 254.032 253.475 253.94 253.302 253.887C253.13 253.834 252.948 253.821 252.77 253.85C252.182 253.84 251.61 254.042 251.16 254.42L250.87 253.93C251.439 253.484 252.147 253.253 252.87 253.28C253.124 253.249 253.381 253.275 253.624 253.357C253.866 253.438 254.087 253.574 254.271 253.752C254.454 253.931 254.595 254.148 254.683 254.388C254.771 254.628 254.804 254.885 254.78 255.14ZM254.13 256.68V255.89H252.62C251.68 255.89 251.38 256.26 251.38 256.76C251.38 257.26 251.83 257.67 252.6 257.67C252.927 257.689 253.252 257.603 253.527 257.425C253.802 257.247 254.013 256.986 254.13 256.68Z" fill="#263238"/>
<path d="M255.88 257.58L256.18 257.07C256.679 257.426 257.277 257.615 257.89 257.61C258.81 257.61 259.19 257.3 259.19 256.82C259.19 255.56 256.06 256.56 256.06 254.65C256.06 253.86 256.74 253.27 257.97 253.27C258.567 253.263 259.154 253.419 259.67 253.72L259.39 254.24C258.968 253.964 258.474 253.821 257.97 253.83C257.09 253.83 256.71 254.17 256.71 254.63C256.71 255.93 259.84 254.95 259.84 256.8C259.84 257.64 259.1 258.18 257.84 258.18C257.139 258.196 256.451 257.986 255.88 257.58Z" fill="#263238"/>
<path d="M260.37 257.58L260.66 257.07C261.165 257.422 261.765 257.61 262.38 257.61C263.29 257.61 263.67 257.3 263.67 256.82C263.67 255.56 260.54 256.56 260.54 254.65C260.54 253.86 261.22 253.27 262.45 253.27C263.05 253.265 263.641 253.42 264.16 253.72L263.87 254.24C263.449 253.962 262.954 253.819 262.45 253.83C261.58 253.83 261.19 254.17 261.19 254.63C261.19 255.93 264.32 254.95 264.32 256.8C264.32 257.64 263.59 258.18 262.32 258.18C261.622 258.198 260.937 257.987 260.37 257.58Z" fill="#263238"/>
<path d="M272.51 253.31L270.69 258.13H270.07L268.55 254.18L267 258.13H266.38L264.57 253.31H265.19L266.7 257.41L268.25 253.31H268.81L270.35 257.41L271.88 253.31H272.51Z" fill="#263238"/>
<path d="M272.87 255.72C272.872 255.236 273.017 254.764 273.287 254.362C273.557 253.961 273.94 253.649 274.387 253.464C274.834 253.28 275.326 253.233 275.8 253.327C276.275 253.422 276.71 253.655 277.052 253.997C277.394 254.339 277.628 254.775 277.722 255.249C277.817 255.724 277.77 256.215 277.585 256.663C277.401 257.11 277.089 257.493 276.687 257.763C276.286 258.033 275.814 258.178 275.33 258.18C275.003 258.192 274.678 258.137 274.374 258.018C274.07 257.899 273.793 257.718 273.562 257.487C273.331 257.256 273.151 256.98 273.031 256.676C272.912 256.372 272.857 256.046 272.87 255.72ZM277.11 255.72C277.092 255.37 276.972 255.032 276.765 254.75C276.557 254.468 276.271 254.252 275.943 254.131C275.614 254.009 275.257 253.987 274.915 254.067C274.574 254.146 274.263 254.325 274.022 254.579C273.781 254.834 273.62 255.153 273.559 255.499C273.499 255.844 273.54 256.199 273.68 256.521C273.819 256.843 274.049 257.116 274.343 257.308C274.636 257.5 274.979 257.601 275.33 257.6C275.573 257.603 275.815 257.556 276.039 257.461C276.263 257.367 276.465 257.227 276.632 257.05C276.799 256.873 276.928 256.664 277.01 256.435C277.093 256.206 277.127 255.962 277.11 255.72Z" fill="#263238"/>
<path d="M281.54 253.27V253.91H281.38C281.151 253.897 280.922 253.935 280.709 254.022C280.496 254.109 280.306 254.241 280.151 254.411C279.996 254.58 279.88 254.782 279.813 255.001C279.745 255.221 279.727 255.452 279.76 255.68V258.14H279.1V253.32H279.73V254.26C279.896 253.931 280.158 253.66 280.481 253.483C280.804 253.307 281.174 253.232 281.54 253.27Z" fill="#263238"/>
<path d="M287.06 251.33V258.13H286.44V257.18C286.248 257.497 285.974 257.758 285.646 257.933C285.319 258.109 284.951 258.194 284.58 258.18C283.956 258.14 283.371 257.864 282.943 257.408C282.515 256.952 282.277 256.35 282.277 255.725C282.277 255.1 282.515 254.498 282.943 254.042C283.371 253.586 283.956 253.31 284.58 253.27C284.946 253.262 285.308 253.35 285.629 253.525C285.95 253.701 286.219 253.958 286.41 254.27V251.37L287.06 251.33ZM286.42 255.72C286.403 255.37 286.283 255.033 286.076 254.751C285.869 254.469 285.583 254.253 285.255 254.132C284.927 254.01 284.57 253.987 284.229 254.066C283.888 254.145 283.577 254.322 283.336 254.576C283.095 254.829 282.933 255.148 282.871 255.492C282.809 255.837 282.849 256.192 282.987 256.514C283.124 256.836 283.353 257.11 283.646 257.303C283.938 257.496 284.28 257.599 284.63 257.6C284.874 257.605 285.117 257.558 285.342 257.464C285.567 257.37 285.77 257.231 285.939 257.054C286.107 256.877 286.237 256.667 286.32 256.437C286.403 256.208 286.437 255.963 286.42 255.72Z" fill="#263238"/>
</g>
<path d="M345.14 193.55H214.3V215.95H345.14V193.55Z" fill="white"/>
<g opacity="0.4">
<path d="M220.9 204.31C220.878 203.639 221.057 202.977 221.414 202.409C221.771 201.84 222.289 201.391 222.903 201.119C223.516 200.847 224.197 200.765 224.858 200.882C225.518 200.999 226.129 201.311 226.612 201.778C227.094 202.245 227.426 202.845 227.565 203.501C227.704 204.158 227.644 204.841 227.393 205.463C227.141 206.085 226.71 206.618 226.153 206.994C225.597 207.369 224.941 207.57 224.27 207.57C223.832 207.589 223.394 207.519 222.984 207.363C222.574 207.207 222.2 206.97 221.884 206.665C221.569 206.36 221.319 205.993 221.15 205.589C220.981 205.184 220.896 204.749 220.9 204.31ZM226.96 204.31C226.968 203.774 226.816 203.248 226.524 202.798C226.232 202.349 225.812 201.997 225.319 201.786C224.826 201.576 224.281 201.517 223.755 201.618C223.228 201.718 222.743 201.973 222.362 202.35C221.981 202.727 221.721 203.209 221.614 203.735C221.508 204.26 221.56 204.805 221.765 205.301C221.97 205.796 222.317 206.22 222.763 206.517C223.21 206.814 223.734 206.972 224.27 206.97C224.628 206.988 224.985 206.932 225.319 206.806C225.654 206.679 225.959 206.485 226.215 206.236C226.472 205.986 226.674 205.686 226.809 205.355C226.944 205.023 227.009 204.668 227 204.31H226.96Z" fill="#263238"/>
<path d="M229 200.71H229.65V207.52H229V200.71Z" fill="#263238"/>
<path d="M235.89 200.71V207.52H235.27V206.52C235.076 206.836 234.802 207.095 234.475 207.271C234.149 207.446 233.781 207.532 233.41 207.52C232.761 207.52 232.137 207.262 231.678 206.802C231.219 206.343 230.96 205.72 230.96 205.07C230.96 204.42 231.219 203.797 231.678 203.338C232.137 202.878 232.761 202.62 233.41 202.62C233.776 202.613 234.137 202.701 234.458 202.877C234.779 203.052 235.049 203.308 235.24 203.62V200.72L235.89 200.71ZM235.25 205.1C235.235 204.747 235.116 204.407 234.908 204.122C234.701 203.836 234.414 203.618 234.083 203.494C233.753 203.37 233.393 203.347 233.049 203.426C232.705 203.505 232.392 203.683 232.149 203.939C231.905 204.194 231.742 204.516 231.68 204.863C231.618 205.211 231.66 205.569 231.799 205.893C231.939 206.217 232.171 206.493 232.467 206.686C232.762 206.879 233.108 206.982 233.46 206.98C233.704 206.983 233.946 206.936 234.17 206.842C234.395 206.747 234.598 206.607 234.766 206.431C234.934 206.254 235.064 206.045 235.147 205.816C235.23 205.587 235.266 205.343 235.25 205.1Z" fill="#263238"/>
<path d="M245.27 203.3C245.27 204.66 244.27 205.49 242.65 205.49H240.93V207.49H240.25V201.1H242.65C244.28 201.1 245.27 201.92 245.27 203.3ZM244.59 203.3C244.59 202.3 243.91 201.68 242.59 201.68H240.89V204.89H242.59C243.91 204.89 244.59 204.31 244.59 203.3Z" fill="#263238"/>
<path d="M250.2 204.53V207.53H249.57V206.77C249.391 207.04 249.143 207.258 248.851 207.398C248.558 207.539 248.234 207.599 247.91 207.57C246.82 207.57 246.15 207 246.15 206.17C246.15 205.34 246.63 204.8 248.01 204.8H249.55V204.51C249.55 203.68 249.08 203.23 248.18 203.23C247.593 203.223 247.023 203.425 246.57 203.8L246.28 203.32C246.847 202.869 247.557 202.638 248.28 202.67C248.535 202.639 248.793 202.666 249.036 202.747C249.278 202.829 249.5 202.964 249.684 203.142C249.868 203.32 250.01 203.537 250.099 203.778C250.189 204.018 250.223 204.275 250.2 204.53ZM249.55 206.07V205.28H248C247.07 205.28 246.76 205.65 246.76 206.14C246.76 206.63 247.21 207.05 247.98 207.05C248.313 207.077 248.645 206.997 248.928 206.82C249.211 206.643 249.429 206.38 249.55 206.07Z" fill="#263238"/>
<path d="M251.3 207L251.59 206.48C252.091 206.839 252.694 207.028 253.31 207.02C254.22 207.02 254.6 206.71 254.6 206.24C254.6 204.98 251.47 205.97 251.47 204.06C251.47 203.27 252.15 202.69 253.38 202.69C253.981 202.68 254.572 202.836 255.09 203.14L254.8 203.66C254.38 203.382 253.884 203.239 253.38 203.25C252.51 203.25 252.12 203.58 252.12 204.04C252.12 205.35 255.25 204.36 255.25 206.22C255.25 207.05 254.52 207.59 253.25 207.59C252.553 207.611 251.869 207.404 251.3 207Z" fill="#263238"/>
<path d="M255.78 207L256.08 206.48C256.577 206.841 257.177 207.03 257.79 207.02C258.71 207.02 259.08 206.71 259.08 206.24C259.08 204.98 255.96 205.97 255.96 204.06C255.96 203.27 256.64 202.69 257.86 202.69C258.461 202.677 259.054 202.833 259.57 203.14L259.29 203.66C258.865 203.383 258.367 203.24 257.86 203.25C256.99 203.25 256.61 203.58 256.61 204.04C256.61 205.35 259.74 204.36 259.74 206.22C259.74 207.05 259 207.59 257.74 207.59C257.04 207.61 256.353 207.403 255.78 207Z" fill="#263238"/>
<path d="M267.92 202.69L266.1 207.52H265.49L263.96 203.52L262.44 207.52H261.83L260 202.69H260.62L262.14 206.79L263.69 202.69H264.25L265.79 206.79L267.32 202.69H267.92Z" fill="#263238"/>
<path d="M268.28 205.1C268.28 204.613 268.424 204.138 268.695 203.733C268.965 203.329 269.349 203.013 269.799 202.827C270.248 202.641 270.743 202.592 271.22 202.687C271.697 202.782 272.136 203.016 272.48 203.36C272.824 203.704 273.058 204.143 273.153 204.62C273.248 205.097 273.199 205.592 273.013 206.041C272.827 206.491 272.511 206.875 272.107 207.145C271.702 207.416 271.227 207.56 270.74 207.56C270.414 207.573 270.088 207.518 269.784 207.398C269.48 207.279 269.203 207.099 268.972 206.868C268.741 206.637 268.561 206.36 268.442 206.056C268.322 205.752 268.267 205.426 268.28 205.1ZM272.53 205.1C272.514 204.747 272.395 204.407 272.188 204.122C271.98 203.836 271.693 203.618 271.363 203.494C271.032 203.37 270.673 203.347 270.329 203.426C269.985 203.505 269.672 203.683 269.428 203.939C269.185 204.194 269.022 204.516 268.96 204.863C268.898 205.211 268.939 205.569 269.079 205.893C269.219 206.217 269.451 206.493 269.746 206.686C270.042 206.879 270.387 206.981 270.74 206.98C270.984 206.985 271.227 206.939 271.452 206.845C271.677 206.751 271.881 206.611 272.049 206.434C272.217 206.257 272.347 206.047 272.43 205.817C272.513 205.588 272.547 205.343 272.53 205.1Z" fill="#263238"/>
<path d="M277 202.66V203.29H276.84C276.611 203.279 276.381 203.319 276.169 203.406C275.956 203.494 275.766 203.628 275.611 203.798C275.456 203.968 275.341 204.17 275.273 204.39C275.206 204.61 275.188 204.842 275.22 205.07V207.53H274.57V202.7H275.19V203.65C275.357 203.322 275.62 203.052 275.943 202.876C276.265 202.699 276.634 202.624 277 202.66Z" fill="#263238"/>
<path d="M282.48 200.71V207.52H281.86V206.52C281.664 206.837 281.388 207.096 281.06 207.272C280.731 207.448 280.362 207.533 279.99 207.52C279.34 207.52 278.717 207.262 278.258 206.802C277.798 206.343 277.54 205.72 277.54 205.07C277.54 204.42 277.798 203.797 278.258 203.338C278.717 202.878 279.34 202.62 279.99 202.62C280.357 202.614 280.719 202.703 281.041 202.878C281.364 203.053 281.635 203.309 281.83 203.62V200.72L282.48 200.71ZM281.84 205.1C281.824 204.747 281.705 204.407 281.498 204.122C281.29 203.836 281.003 203.618 280.673 203.494C280.342 203.37 279.983 203.347 279.639 203.426C279.295 203.505 278.982 203.683 278.738 203.939C278.495 204.194 278.332 204.516 278.27 204.863C278.208 205.211 278.249 205.569 278.389 205.893C278.529 206.217 278.761 206.493 279.056 206.686C279.351 206.879 279.697 206.982 280.05 206.98C280.294 206.983 280.535 206.936 280.76 206.842C280.985 206.747 281.187 206.607 281.355 206.431C281.523 206.254 281.653 206.045 281.737 205.816C281.82 205.587 281.855 205.343 281.84 205.1Z" fill="#263238"/>
</g>
<path d="M398.56 376.19C398.56 376.19 392.38 377.01 389.74 376.19C387.1 375.37 388.09 363.39 385.4 363.14C379.19 362.57 380.25 378.48 382.89 381.83C385.53 385.18 399.12 383.76 399.12 383.76L398.56 376.19Z" fill="#D5A976"/>
<path opacity="0.2" d="M398.56 376.19C398.56 376.19 392.38 377.01 389.74 376.19C387.1 375.37 388.09 363.39 385.4 363.14C379.19 362.57 380.25 378.48 382.89 381.83C385.53 385.18 399.12 383.76 399.12 383.76L398.56 376.19Z" fill="white"/>
<path d="M399.07 404.4C399.07 404.4 389.92 323.16 400.84 322.23C411.76 321.3 414.4 349.94 410.18 403.37L399.07 404.4Z" fill="#D5A976"/>
<path opacity="0.3" d="M399.07 404.4C399.07 404.4 389.92 323.16 400.84 322.23C411.76 321.3 414.4 349.94 410.18 403.37L399.07 404.4Z" fill="white"/>
<path d="M386.24 394.57H422.17L419.17 417.55H389.24L386.24 394.57Z" fill="#263238"/>
<path d="M409.92 348.86C409.92 348.86 419.92 349.39 420.17 348.86C420.42 348.33 420.47 336.86 424.69 337.51C428.91 338.16 427.06 352.03 424.69 353.64C422.32 355.25 409.92 356.12 409.92 356.12C409.92 356.12 408.26 351 409.92 348.86Z" fill="#D5A976"/>
<path opacity="0.4" d="M409.92 348.86C409.92 348.86 419.92 349.39 420.17 348.86C420.42 348.33 420.47 336.86 424.69 337.51C428.91 338.16 427.06 352.03 424.69 353.64C422.32 355.25 409.92 356.12 409.92 356.12C409.92 356.12 408.26 351 409.92 348.86Z" fill="white"/>
<path d="M403.61 397C401.4 375.33 399 353.55 399.55 331.74C399.71 330.07 399.82 321.89 402.6 323.14C402.957 323.438 403.229 323.824 403.39 324.26C404.241 326.891 404.778 329.613 404.99 332.37C407.09 354.09 406.93 375.95 406.82 397.74C406.41 375.97 406.38 354.13 404.25 332.46C403.97 329.81 402.37 318.18 400.74 327.17C400.204 331.789 400.007 336.442 400.15 341.09C400.52 359.76 402.03 378.39 403.61 397Z" fill="#D5A976"/>
<path d="M411.17 351.59C414.09 351.31 419.29 351.13 421.79 350.48C421.79 347.05 423 342.39 424.23 338.74C423.88 340.37 423.54 342.74 423.23 344.45C422.834 346.509 422.594 348.595 422.51 350.69C422.35 351.18 421.74 351.27 421.35 351.37C417.966 351.828 414.541 351.902 411.14 351.59H411.17Z" fill="#D5A976"/>
<path d="M411.17 354.24C415.34 353.47 419.99 353.17 424.08 352.19C425.14 350.51 425.08 348.14 425.38 346.19C425.62 344.01 425.8 341.82 426.01 339.63C426.125 341.832 426.125 344.038 426.01 346.24C425.972 348.205 425.669 350.156 425.11 352.04C424.994 352.396 424.757 352.7 424.44 352.9C420.078 353.756 415.645 354.205 411.2 354.24H411.17Z" fill="#D5A976"/>
<path d="M395.48 378.41C392.6 378.47 389.62 378.61 386.83 377.65C386.141 377.045 385.706 376.202 385.61 375.29C385.252 373.472 385.071 371.623 385.07 369.77C385.028 367.931 385.092 366.092 385.26 364.26C385.4 366.09 385.51 367.92 385.67 369.74C385.791 371.546 386.024 373.343 386.37 375.12C386.58 375.94 386.78 376.97 387.45 377.12C390.076 377.777 392.752 378.215 395.45 378.43L395.48 378.41Z" fill="#D5A976"/>
<path d="M383.42 365.71L384.07 372.1C384.47 374.89 384.4 377.93 385.51 380.51C385.685 380.642 385.877 380.749 386.08 380.83C389.08 381.83 392.35 381.9 395.48 382.27C393.333 382.381 391.181 382.338 389.04 382.14C387.56 381.89 385.04 381.94 384.53 380.14C383.29 375.43 383.36 370.5 383.42 365.67V365.71Z" fill="#D5A976"/>
<path d="M361 139.57C364.118 134.136 369.266 130.161 375.313 128.519C381.359 126.876 387.81 127.7 393.25 130.81L392.25 132.5L398.95 130.68L397.13 123.98L396.13 125.66C390.059 122.181 382.95 120.968 376.069 122.237C369.188 123.506 362.98 127.176 358.55 132.592C354.12 138.008 351.755 144.821 351.876 151.817C351.997 158.813 354.595 165.54 359.21 170.8L363.67 166.89C360.434 163.182 358.437 158.556 357.959 153.658C357.48 148.76 358.543 143.834 361 139.57Z" fill="#263238"/>
<path d="M404 132.19L399.5 136C403.098 140.24 405.086 145.613 405.114 151.173C405.142 156.734 403.207 162.127 399.651 166.402C396.095 170.677 391.145 173.561 385.672 174.547C380.199 175.532 374.554 174.556 369.73 171.79L370.73 170.1L364 172L365.82 178.7L366.82 177.01C372.859 180.446 379.916 181.645 386.751 180.397C393.586 179.15 399.764 175.535 404.2 170.187C408.636 164.839 411.048 158.1 411.011 151.152C410.974 144.204 408.492 137.491 404 132.19Z" fill="#263238"/>
<g opacity="0.6">
<path d="M361 139.57C364.118 134.136 369.266 130.161 375.313 128.519C381.359 126.876 387.81 127.7 393.25 130.81L392.25 132.5L398.95 130.68L397.13 123.98L396.13 125.66C390.059 122.181 382.95 120.968 376.069 122.237C369.188 123.506 362.98 127.176 358.55 132.592C354.12 138.008 351.755 144.821 351.876 151.817C351.997 158.813 354.595 165.54 359.21 170.8L363.67 166.89C360.434 163.182 358.437 158.556 357.959 153.658C357.48 148.76 358.543 143.834 361 139.57Z" fill="white"/>
<path d="M404 132.19L399.5 136C403.098 140.24 405.086 145.613 405.114 151.173C405.142 156.734 403.207 162.127 399.651 166.402C396.095 170.677 391.145 173.561 385.672 174.547C380.199 175.532 374.554 174.556 369.73 171.79L370.73 170.1L364 172L365.82 178.7L366.82 177.01C372.859 180.446 379.916 181.645 386.751 180.397C393.586 179.15 399.764 175.535 404.2 170.187C408.636 164.839 411.048 158.1 411.011 151.152C410.974 144.204 408.492 137.491 404 132.19Z" fill="white"/>
</g>
<path d="M377.22 123.29H370.7V103.29C370.7 99.6113 369.239 96.0835 366.638 93.4823C364.037 90.8812 360.509 89.4199 356.83 89.4199C353.152 89.4199 349.624 90.8812 347.023 93.4823C344.422 96.0835 342.96 99.6113 342.96 103.29V123.29H336.44V103.29C336.44 97.8821 338.589 92.6959 342.413 88.872C346.236 85.0481 351.423 82.8999 356.83 82.8999C362.238 82.8999 367.424 85.0481 371.248 88.872C375.072 92.6959 377.22 97.8821 377.22 103.29V123.29Z" fill="#263238"/>
<g opacity="0.3">
<path d="M377.22 123.29H370.7V103.29C370.7 99.6113 369.239 96.0835 366.638 93.4823C364.037 90.8812 360.509 89.4199 356.83 89.4199C353.152 89.4199 349.624 90.8812 347.023 93.4823C344.422 96.0835 342.96 99.6113 342.96 103.29V123.29H336.44V103.29C336.44 97.8821 338.589 92.6959 342.413 88.872C346.236 85.0481 351.423 82.8999 356.83 82.8999C362.238 82.8999 367.424 85.0481 371.248 88.872C375.072 92.6959 377.22 97.8821 377.22 103.29V123.29Z" fill="white"/>
</g>
<path d="M384.69 118.2V150.93C384.69 151.429 384.592 151.923 384.401 152.384C384.21 152.845 383.93 153.264 383.577 153.617C383.224 153.97 382.805 154.25 382.344 154.441C381.883 154.632 381.389 154.73 380.89 154.73H332.75C332.253 154.729 331.76 154.629 331.301 154.438C330.841 154.246 330.424 153.966 330.073 153.613C329.722 153.26 329.444 152.841 329.255 152.381C329.066 151.921 328.969 151.428 328.97 150.93V118.2C328.969 117.702 329.066 117.209 329.255 116.749C329.444 116.289 329.722 115.87 330.073 115.517C330.424 115.164 330.841 114.884 331.301 114.692C331.76 114.501 332.253 114.401 332.75 114.4H380.89C381.52 114.396 382.14 114.554 382.69 114.86C383.296 115.182 383.802 115.663 384.155 116.252C384.507 116.84 384.692 117.514 384.69 118.2Z" fill="#D5A976"/>
<path opacity="0.2" d="M382.69 114.86V146.93C382.69 147.429 382.592 147.922 382.401 148.383C382.21 148.843 381.93 149.261 381.577 149.613C381.224 149.966 380.805 150.244 380.344 150.434C379.883 150.624 379.389 150.721 378.89 150.72H330.75C330.129 150.722 329.516 150.567 328.97 150.27V118.2C328.969 117.702 329.066 117.209 329.255 116.749C329.444 116.289 329.722 115.87 330.073 115.517C330.424 115.164 330.841 114.884 331.301 114.692C331.76 114.501 332.253 114.401 332.75 114.4H380.89C381.52 114.396 382.14 114.554 382.69 114.86Z" fill="white"/>
<path opacity="0.5" d="M364 130.46C363.982 129.155 363.608 127.879 362.918 126.771C362.229 125.663 361.249 124.764 360.087 124.172C358.924 123.579 357.621 123.315 356.319 123.408C355.017 123.502 353.765 123.949 352.699 124.701C351.632 125.453 350.791 126.482 350.266 127.677C349.741 128.872 349.553 130.188 349.721 131.482C349.889 132.777 350.407 134.001 351.219 135.023C352.031 136.044 353.107 136.825 354.33 137.28L354 146H359.73L358.88 137.45C360.371 136.988 361.674 136.06 362.596 134.801C363.518 133.542 364.01 132.02 364 130.46Z" fill="black"/>
<path d="M127.37 139.57L130.69 150.24L134 139.57H127.37Z" fill="#D5A976"/>
<path d="M157.83 114.08H103.54C98.7961 114.08 94.9502 117.926 94.9502 122.67V134.24C94.9502 138.984 98.7961 142.83 103.54 142.83H157.83C162.574 142.83 166.42 138.984 166.42 134.24V122.67C166.42 117.926 162.574 114.08 157.83 114.08Z" fill="#D5A976"/>
<path d="M111.75 128.44L113.63 129.5L113.14 130.36L111.23 129.24V131.39H110.23V129.24L108.32 130.36L107.83 129.5L109.73 128.44L107.83 127.44L108.32 126.56L110.23 127.68V125.5H111.23V127.63L113.14 126.51L113.63 127.39L111.75 128.44Z" fill="white"/>
<path d="M118.39 128.44L120.27 129.5L119.78 130.36L117.87 129.24V131.39H116.93V129.24L115 130.36L114.51 129.5L116.41 128.44L114.51 127.44L115 126.56L116.91 127.68V125.5H117.85V127.63L119.76 126.51L120.25 127.39L118.39 128.44Z" fill="white"/>
<path d="M125 128.44L126.88 129.5L126.39 130.36L124.48 129.24V131.39H123.48V129.24L121.57 130.36L121.08 129.5L122.97 128.44L121.08 127.44L121.57 126.56L123.48 127.68V125.55H124.48V127.68L126.39 126.56L126.88 127.44L125 128.44Z" fill="white"/>
<path d="M131.67 128.44L133.55 129.5L133.06 130.36L131.15 129.24V131.39H130.2V129.24L128.29 130.36L127.8 129.5L129.69 128.44L127.8 127.44L128.29 126.56L130.2 127.68V125.55H131.15V127.68L133.06 126.56L133.55 127.44L131.67 128.44Z" fill="white"/>
<path d="M138.31 128.44L140.19 129.5L139.7 130.36L137.78 129.24V131.39H136.78V129.24L135 130.36L134.5 129.5L136.4 128.44L134.5 127.44L135 126.56L136.91 127.68V125.55H137.91V127.68L139.83 126.56L140.32 127.44L138.31 128.44Z" fill="white"/>
<path d="M144.94 128.44L146.83 129.5L146.34 130.36L144.42 129.24V131.39H143.47V129.24L141.55 130.36L141.06 129.5L142.96 128.44L141.06 127.44L141.55 126.56L143.47 127.68V125.55H144.42V127.68L146.34 126.56L146.83 127.44L144.94 128.44Z" fill="white"/>
<path d="M151.58 128.44L153.46 129.5L152.97 130.36L151.06 129.24V131.39H150.06V129.24L148.15 130.36L147.66 129.5L149.56 128.44L147.66 127.44L148.15 126.56L150.06 127.68V125.5H151.06V127.63L152.97 126.51L153.46 127.39L151.58 128.44Z" fill="white"/>
<path d="M174.07 214.07L180.17 210.12L173.3 205.9C173.3 205.9 168.07 209.75 170.17 212.36L174.07 214.07Z" fill="#B78876"/>
<path d="M183.3 203.63L176.16 202.01L173.3 205.9L180.17 210.12L183.3 203.63Z" fill="#B78876"/>
<path d="M149 201.25C152.86 207.09 156.73 214.19 162 218.74C162.1 218.82 162.06 218.74 161.67 218.74C161.47 218.79 161.57 218.89 161.98 218.74C163.18 218.056 164.236 217.146 165.09 216.06C167.046 213.69 168.786 211.15 170.29 208.47C170.36 208.36 170.29 208.47 170.29 208.59C170.265 208.772 170.265 208.958 170.29 209.14C170.38 209.23 170.06 208.97 170.68 210.34C170.972 210.777 171.388 211.118 171.874 211.319C172.36 211.52 172.894 211.573 173.41 211.47C173.74 211.399 174.052 211.26 174.326 211.062C174.599 210.864 174.829 210.611 175 210.32C174.844 210.505 174.703 210.702 174.58 210.91L170.1 209C170.209 208.364 170.469 207.763 170.86 207.25C171.222 206.843 171.7 206.557 172.23 206.43C172.75 206.328 173.288 206.382 173.777 206.585C174.266 206.788 174.685 207.13 174.98 207.57C175.6 208.95 175.29 208.69 175.38 208.79C175.391 209.109 175.361 209.429 175.29 209.74C173.72 216.41 169.62 227.4 161.12 227.46C155.12 226.91 150.57 220.32 147.2 216.16C144.808 212.957 142.605 209.618 140.6 206.16L148.95 201.26L149 201.25Z" fill="#B78876"/>
<path d="M145.92 196.86C149.92 198.18 158.03 216.61 158.03 216.61L144.25 223.15C144.25 223.15 141.45 208.67 142 204C142.345 201.206 143.748 198.651 145.92 196.86Z" fill="#D5A976"/>
<path opacity="0.7" d="M145.92 196.86C149.92 198.18 158.03 216.61 158.03 216.61L144.25 223.15C144.25 223.15 141.45 208.67 142 204C142.345 201.206 143.748 198.651 145.92 196.86Z" fill="white"/>
<path d="M162.12 410.53L155.1 412.52L153.43 401.59L152.53 395.75L159.55 393.76L160.75 401.59L162.12 410.53Z" fill="#B78876"/>
<path d="M121.76 411.1L114.52 412.06L114.45 401.59L114.4 395.08L121.65 394.14L121.7 401.59L121.76 411.1Z" fill="#B78876"/>
<path opacity="0.2" d="M121.65 394.14L121.7 401.59H114.45L114.4 395.08L121.65 394.14Z" fill="black"/>
<path opacity="0.2" d="M160.75 401.59H153.43L152.53 395.75L159.55 393.76L160.75 401.59Z" fill="black"/>
<path d="M162 409.43L154 409.22C153.855 409.215 153.712 409.26 153.596 409.348C153.48 409.435 153.397 409.559 153.36 409.7L151.69 416.12C151.638 416.275 151.624 416.44 151.65 416.601C151.676 416.763 151.741 416.915 151.84 417.045C151.939 417.176 152.068 417.28 152.216 417.348C152.364 417.417 152.527 417.449 152.69 417.44C155.57 417.44 159.69 417.44 163.34 417.51C167.57 417.63 170.26 417.42 175.22 417.51C178.22 417.59 179.15 414.6 177.91 414.29C172.24 412.89 168.54 413.17 163.71 410.01C163.204 409.663 162.613 409.463 162 409.43Z" fill="#263238"/>
<path d="M162.61 410.32C162.604 410.284 162.609 410.248 162.625 410.215C162.642 410.183 162.668 410.157 162.7 410.14C163.04 409.98 166.03 408.57 166.9 409.09C166.982 409.138 167.051 409.206 167.098 409.289C167.146 409.371 167.17 409.465 167.17 409.56C167.179 409.717 167.152 409.874 167.089 410.018C167.027 410.162 166.931 410.29 166.81 410.39C165.99 411.07 163.91 410.73 162.74 410.46C162.706 410.454 162.675 410.437 162.652 410.412C162.628 410.386 162.614 410.354 162.61 410.32ZM163.32 410.24C164.93 410.55 166.13 410.51 166.59 410.12C166.671 410.057 166.735 409.975 166.775 409.88C166.816 409.786 166.831 409.682 166.82 409.58C166.823 409.542 166.815 409.504 166.798 409.471C166.78 409.437 166.753 409.409 166.72 409.39H166.66C166.11 409.16 164.5 409.72 163.32 410.24Z" fill="#D5A976"/>
<path d="M162.67 410.43C162.646 410.414 162.627 410.391 162.616 410.364C162.606 410.338 162.604 410.308 162.61 410.28C162.715 409.249 163.146 408.279 163.84 407.51C163.978 407.396 164.138 407.312 164.311 407.266C164.483 407.219 164.664 407.21 164.84 407.24C165.31 407.3 165.44 407.54 165.47 407.74C165.57 408.56 163.77 410.09 162.87 410.46C162.831 410.47 162.79 410.47 162.75 410.46L162.67 410.43ZM164.76 407.58C164.635 407.563 164.507 407.572 164.385 407.607C164.262 407.641 164.149 407.7 164.05 407.78C163.496 408.395 163.147 409.168 163.05 409.99C163.97 409.48 165.2 408.28 165.13 407.78C165.13 407.78 165.13 407.67 164.98 407.62L164.76 407.58Z" fill="#D5A976"/>
<path d="M121.47 409.43L113.47 409.22C113.325 409.215 113.182 409.26 113.066 409.348C112.95 409.435 112.866 409.559 112.83 409.7L111.15 416.12C111.109 416.274 111.104 416.436 111.134 416.593C111.165 416.749 111.231 416.897 111.328 417.024C111.424 417.151 111.548 417.255 111.691 417.327C111.833 417.399 111.99 417.438 112.15 417.44C115.02 417.44 119.15 417.44 122.8 417.51C127.03 417.63 129.71 417.42 134.67 417.51C137.67 417.59 138.61 414.6 137.36 414.29C131.7 412.89 127.99 413.17 123.17 410.01C122.666 409.666 122.079 409.466 121.47 409.43Z" fill="#263238"/>
<path d="M122 410.32C121.995 410.283 122.002 410.246 122.02 410.213C122.038 410.181 122.066 410.155 122.1 410.14C122.44 409.98 125.42 408.57 126.29 409.09C126.373 409.138 126.441 409.206 126.489 409.289C126.536 409.371 126.561 409.465 126.56 409.56C126.571 409.716 126.545 409.873 126.484 410.017C126.423 410.161 126.329 410.289 126.21 410.39C125.38 411.07 123.3 410.73 122.13 410.46C122.098 410.451 122.068 410.434 122.045 410.409C122.022 410.384 122.007 410.353 122 410.32ZM122.72 410.24C124.32 410.55 125.53 410.51 125.99 410.12C126.07 410.056 126.133 409.973 126.173 409.879C126.213 409.785 126.23 409.682 126.22 409.58C126.22 409.542 126.21 409.504 126.191 409.47C126.171 409.437 126.144 409.409 126.11 409.39H126.05C125.55 409.16 123.94 409.72 122.76 410.24H122.72Z" fill="#D5A976"/>
<path d="M122.11 410.43C122.085 410.415 122.065 410.392 122.053 410.366C122.04 410.339 122.036 410.309 122.04 410.28C122.15 409.249 122.584 408.279 123.28 407.51C123.417 407.395 123.578 407.311 123.75 407.265C123.923 407.218 124.104 407.21 124.28 407.24C124.75 407.3 124.88 407.54 124.9 407.74C125.01 408.56 123.2 410.09 122.31 410.46C122.267 410.47 122.223 410.47 122.18 410.46L122.11 410.43ZM124.2 407.58C124.074 407.563 123.946 407.571 123.824 407.606C123.702 407.64 123.588 407.7 123.49 407.78C122.941 408.398 122.592 409.169 122.49 409.99C123.41 409.48 124.64 408.28 124.58 407.78C124.572 407.741 124.552 407.705 124.524 407.677C124.495 407.648 124.459 407.629 124.42 407.62C124.35 407.593 124.275 407.58 124.2 407.58Z" fill="#D5A976"/>
<path d="M106.83 252C102.99 268.62 109.57 399.39 109.57 399.39H122.29L127.73 290.39L147.73 399.39L161.33 398.39C152.44 313.97 144.59 263.57 144.59 263.57V257.2L106.83 252Z" fill="#263238"/>
<path opacity="0.2" d="M161.35 398.37L147.75 399.37L132 313.57L127.74 290.38L122.3 399.38H109.58C109.58 399.38 103 268.59 106.83 252L144.63 257.21V263.58C144.63 263.58 152.46 314 161.35 398.37Z" fill="white"/>
<path d="M106 195.79C107.332 203.637 108.077 211.572 108.23 219.53C108.36 225.08 108.23 230.36 108.04 235.14C107.54 246.35 106.46 254.83 106.51 257.74L144.67 258.42C153.77 218.52 145.95 196.86 145.95 196.86C142.992 196.039 139.986 195.397 136.95 194.94C136.283 194.853 135.617 194.773 134.95 194.7C129.554 194.29 124.138 194.189 118.73 194.4C117.73 194.4 116.66 194.49 115.65 194.57C110.55 195 106 195.79 106 195.79Z" fill="#D5A976"/>
<path d="M136.19 196C136.19 196 133.92 199.29 132.1 199.52C129.52 199.87 120.1 194.1 120.1 194.1C122.28 192.49 123.35 188.98 123.82 185.27C124.156 182.259 124.22 179.223 124.01 176.2L132.82 185.78C131.66 188.78 130.97 191.98 133.25 194.23C134.088 195.029 135.092 195.633 136.19 196Z" fill="#B78876"/>
<path opacity="0.2" d="M133.23 194.2C129.349 192.083 126.097 188.978 123.8 185.2C124.136 182.189 124.2 179.153 123.99 176.13L132.8 185.71C131.64 188.74 131 192 133.23 194.2Z" fill="black"/>
<path d="M143 167.56C143.75 170.33 143 175.95 139.28 173.95C135.56 171.95 141.75 162.78 143 167.56Z" fill="#263238"/>
<path d="M123.12 170.41C122.39 177.41 121.61 181.51 124.54 185.64C128.96 191.84 138.11 189.99 140.92 183.3C143.46 177.3 144.22 166.8 137.85 162.96C136.437 162.111 134.831 161.633 133.183 161.573C131.535 161.513 129.899 161.872 128.427 162.616C126.956 163.361 125.697 164.466 124.769 165.829C123.841 167.192 123.274 168.768 123.12 170.41Z" fill="#B78876"/>
<path d="M128.22 166.79L128.57 158.92C128.57 158.92 120.21 157.92 120.4 162.24C115.66 164.34 117.54 171.65 123.62 175.46C127.16 172.88 127.05 166.27 127.05 166.27C127.41 166.45 127.81 166.62 128.22 166.79Z" fill="#263238"/>
<path d="M119.47 175.76C119.598 176.628 119.898 177.463 120.351 178.215C120.804 178.967 121.402 179.621 122.11 180.14C124.01 181.52 125.8 180 125.96 177.78C126.11 175.78 125.3 172.65 123.06 172.15C122.566 172.053 122.055 172.079 121.574 172.226C121.092 172.374 120.655 172.637 120.299 172.995C119.944 173.352 119.683 173.791 119.538 174.273C119.393 174.756 119.37 175.266 119.47 175.76Z" fill="#B78876"/>
<path d="M133.39 174C133.29 174.57 133.52 175.07 133.89 175.13C134.26 175.19 134.64 174.78 134.73 174.21C134.82 173.64 134.6 173.14 134.23 173.08C133.86 173.02 133.48 173.43 133.39 174Z" fill="#263238"/>
<path d="M139.81 175C139.72 175.57 139.95 176.08 140.32 176.13C140.69 176.18 141.07 175.78 141.16 175.21C141.25 174.64 141.03 174.14 140.66 174.08C140.29 174.02 139.91 174.44 139.81 175Z" fill="#263238"/>
<path d="M137.72 175C138.15 176.784 138.823 178.5 139.72 180.1C139.282 180.295 138.809 180.395 138.33 180.395C137.851 180.395 137.377 180.295 136.94 180.1L137.72 175Z" fill="#C9A5A4"/>
<path d="M133.53 181.8C133.769 181.875 134.013 181.932 134.26 181.97C134.304 181.976 134.348 181.964 134.383 181.938C134.419 181.912 134.443 181.873 134.45 181.83C134.454 181.808 134.454 181.785 134.449 181.762C134.444 181.74 134.435 181.719 134.422 181.7C134.409 181.682 134.393 181.666 134.373 181.654C134.354 181.642 134.332 181.634 134.31 181.63C133.604 181.535 132.93 181.276 132.343 180.873C131.756 180.47 131.272 179.935 130.93 179.31C130.922 179.289 130.91 179.27 130.895 179.253C130.879 179.237 130.861 179.225 130.84 179.216C130.819 179.208 130.797 179.203 130.775 179.204C130.752 179.205 130.73 179.21 130.71 179.22C130.669 179.238 130.637 179.27 130.62 179.312C130.603 179.353 130.603 179.399 130.62 179.44C130.918 180.011 131.33 180.516 131.83 180.922C132.331 181.328 132.909 181.627 133.53 181.8Z" fill="#263238"/>
<path d="M131.75 171.62C131.807 171.639 131.868 171.641 131.927 171.627C131.985 171.613 132.038 171.583 132.08 171.54C132.382 171.239 132.749 171.012 133.154 170.876C133.558 170.741 133.988 170.701 134.41 170.76C134.453 170.77 134.497 170.771 134.54 170.764C134.583 170.757 134.625 170.741 134.662 170.718C134.699 170.695 134.731 170.664 134.757 170.629C134.782 170.593 134.8 170.553 134.81 170.51C134.82 170.467 134.821 170.423 134.814 170.38C134.807 170.337 134.791 170.295 134.768 170.258C134.745 170.221 134.714 170.189 134.679 170.163C134.643 170.138 134.603 170.12 134.56 170.11C134.03 170.02 133.486 170.059 132.974 170.225C132.462 170.39 131.997 170.677 131.62 171.06C131.557 171.124 131.521 171.21 131.521 171.3C131.521 171.39 131.557 171.476 131.62 171.54C131.657 171.575 131.702 171.603 131.75 171.62Z" fill="#263238"/>
<path d="M143 173.23C143.062 173.25 143.128 173.25 143.19 173.23C143.276 173.204 143.349 173.146 143.392 173.067C143.435 172.989 143.445 172.896 143.42 172.81C143.28 172.294 143.016 171.82 142.652 171.428C142.288 171.036 141.834 170.738 141.33 170.56C141.244 170.538 141.153 170.549 141.075 170.592C140.997 170.635 140.938 170.705 140.91 170.79C140.885 170.876 140.896 170.969 140.939 171.047C140.982 171.126 141.054 171.184 141.14 171.21C141.54 171.351 141.899 171.589 142.183 171.903C142.468 172.218 142.67 172.598 142.77 173.01C142.788 173.063 142.818 173.11 142.858 173.148C142.898 173.187 142.947 173.215 143 173.23Z" fill="#263238"/>
<path d="M120.4 162.24C120.4 162.24 116.08 157.95 130.74 158.34C145.4 158.73 147.84 166.95 141.12 168.86L140.82 167.52C139.666 168.115 138.398 168.457 137.101 168.522C135.804 168.588 134.508 168.376 133.3 167.9L134.36 167.24C134.36 167.24 124.35 168.26 120.4 162.24Z" fill="#263238"/>
<path d="M132.1 199.49C132.1 199.49 130.23 201.65 128.1 203.78C124.99 202.21 117.71 198 118.1 194.11C118.53 192.98 121.49 192.26 121.49 192.26C121.49 192.26 124.63 196.45 132.1 199.49Z" fill="#D5A976"/>
<path d="M132.1 199.49C133.63 200.723 134.977 202.168 136.1 203.78C138.39 202.3 137.24 195.06 136.4 194.26C135.189 193.598 133.83 193.254 132.45 193.26C132.903 194.249 133.108 195.333 133.047 196.418C132.986 197.504 132.661 198.559 132.1 199.49Z" fill="#D5A976"/>
<g opacity="0.5">
<path d="M132.1 199.49C132.1 199.49 130.23 201.65 128.1 203.78C124.99 202.21 117.71 198 118.1 194.11C118.53 192.98 121.49 192.26 121.49 192.26C121.49 192.26 124.63 196.45 132.1 199.49Z" fill="white"/>
<path d="M132.1 199.49C133.63 200.723 134.977 202.168 136.1 203.78C138.39 202.3 137.24 195.06 136.4 194.26C135.189 193.598 133.83 193.254 132.45 193.26C132.903 194.249 133.108 195.333 133.047 196.418C132.986 197.504 132.661 198.559 132.1 199.49Z" fill="white"/>
</g>
<path opacity="0.2" d="M132 313.57L127.74 290.38L128.56 278.11C128.56 278.11 134.39 299.39 132 313.57Z" fill="black"/>
<path d="M110 206.38C106.3 212.55 100.57 221.38 97.4301 227.65C95.7601 231.2 95.2401 235 94.3301 238.83C93.4601 242.92 92.5901 247.09 91.6301 251.21L86.8501 250.79C86.6801 246.46 86.7201 242.17 86.9801 237.84C87.3101 233.33 87.5501 228.46 89.2501 224.18C92.6301 215.95 97.0801 208.59 101.85 201.18L110 206.4V206.38Z" fill="#B78876"/>
<path d="M106 195.79C100.63 197.18 91 216.48 91 216.48L102.41 223.87L112.7 213.87C113.291 210.25 113.069 206.544 112.05 203.02C110.38 197 106 195.79 106 195.79Z" fill="#D5A976"/>
<path opacity="0.7" d="M106 195.79C100.63 197.18 91 216.48 91 216.48L102.41 223.87L112.7 213.87C113.291 210.25 113.069 206.544 112.05 203.02C110.38 197 106 195.79 106 195.79Z" fill="white"/>
<path d="M110.048 255.284L189.317 171.224C189.744 170.772 190.256 170.407 190.824 170.152C191.391 169.897 192.004 169.757 192.626 169.739C193.248 169.72 193.868 169.825 194.45 170.046C195.032 170.267 195.564 170.601 196.017 171.028L197.931 172.832C198.845 173.695 199.38 174.885 199.417 176.142C199.453 177.398 198.99 178.618 198.127 179.533L118.858 263.592L110.048 255.284Z" fill="#263238"/>
<path opacity="0.6" d="M110.048 255.284L189.317 171.224C189.744 170.772 190.256 170.407 190.824 170.152C191.391 169.897 192.004 169.757 192.626 169.739C193.248 169.72 193.868 169.825 194.45 170.046C195.032 170.267 195.564 170.601 196.017 171.028L197.931 172.832C198.845 173.695 199.38 174.885 199.417 176.142C199.453 177.398 198.99 178.618 198.127 179.533L118.858 263.592L110.048 255.284Z" fill="white"/>
<path opacity="0.2" d="M196.6 171.59L197.93 172.84C198.383 173.266 198.747 173.777 199.002 174.344C199.257 174.911 199.398 175.522 199.417 176.144C199.435 176.765 199.331 177.384 199.11 177.965C198.89 178.546 198.557 179.078 198.13 179.53L118.86 263.6L117.54 262.35L196.81 178.28C197.236 177.827 197.568 177.295 197.788 176.713C198.008 176.132 198.111 175.513 198.092 174.892C198.072 174.27 197.93 173.659 197.675 173.092C197.419 172.526 197.053 172.015 196.6 171.59Z" fill="black"/>
<path d="M171.31 204.14L186 218L187.91 215.97L186.01 214.18L189.03 210.97L187.92 209.92L192.46 205.11L193.57 206.16L196.41 203.15L198.31 204.95L200.28 202.85L199.17 201.8L202.01 198.78L199.78 196.68L201.64 194.71L204.99 197.86L208.39 194.26L193.7 180.4L171.31 204.14Z" fill="#263238"/>
<path opacity="0.6" d="M171.31 204.14L186 218L187.91 215.97L186.01 214.18L189.03 210.97L187.92 209.92L192.46 205.11L193.57 206.16L196.41 203.15L198.31 204.95L200.28 202.85L199.17 201.8L202.01 198.78L199.78 196.68L201.64 194.71L204.99 197.86L208.39 194.26L193.7 180.4L171.31 204.14Z" fill="white"/>
<g opacity="0.2">
<path opacity="0.6" d="M186.586 214.734L184.679 216.756L186.003 218.005L187.91 215.982L186.586 214.734Z" fill="black"/>
<path opacity="0.6" d="M193.57 206.16L192.46 205.1L187.92 209.92L189.03 210.97L186.01 214.18L184.68 212.93L187.71 209.72L186.59 208.67L191.13 203.85L192.25 204.91L195.08 201.9L196.41 203.15L193.57 206.16Z" fill="black"/>
<path opacity="0.6" d="M197.84 200.54L200.69 197.53L202.02 198.78L199.17 201.8L200.29 202.85L198.31 204.95L196.99 203.7L198.96 201.6L197.84 200.54Z" fill="black"/>
<path opacity="0.6" d="M200.306 193.456L198.446 195.427L199.77 196.676L201.63 194.705L200.306 193.456Z" fill="black"/>
<path opacity="0.6" d="M207.063 193.017L203.66 196.625L204.984 197.874L208.387 194.266L207.063 193.017Z" fill="black"/>
</g>
<path d="M187.207 171.914L162.906 197.683C162.504 198.109 162.524 198.78 162.95 199.182L171.768 207.497C172.194 207.899 172.864 207.879 173.266 207.453L197.567 181.684C197.968 181.258 197.949 180.587 197.523 180.185L188.705 171.87C188.279 171.469 187.608 171.488 187.207 171.914Z" fill="#263238"/>
<path d="M119.32 290.77C117.476 292.726 115.264 294.3 112.812 295.402C110.359 296.503 107.714 297.111 105.026 297.19C102.339 297.269 99.6621 296.817 97.1491 295.862C94.6361 294.906 92.3359 293.465 90.38 291.62L83.74 285.36C81.7837 283.516 80.2099 281.304 79.1083 278.852C78.0068 276.399 77.3993 273.753 77.3203 271.066C77.2414 268.379 77.6927 265.702 78.6483 263.189C79.604 260.676 81.0453 258.376 82.89 256.42C84.7359 254.456 86.9514 252.876 89.4093 251.769C91.8673 250.663 94.5194 250.053 97.2136 249.974C99.9078 249.895 102.591 250.349 105.11 251.309C107.628 252.269 109.932 253.717 111.89 255.57L118.52 261.83C120.473 263.678 122.043 265.892 123.14 268.346C124.237 270.8 124.84 273.447 124.914 276.134C124.989 278.822 124.533 281.497 123.573 284.009C122.613 286.52 121.168 288.817 119.32 290.77Z" fill="#263238"/>
<path d="M111.69 283.57C110.772 284.545 109.672 285.329 108.451 285.879C107.23 286.428 105.912 286.731 104.574 286.771C103.236 286.811 101.903 286.587 100.651 286.111C99.3998 285.636 98.2542 284.918 97.2801 284L91.0001 278C90.0259 277.082 89.2422 275.98 88.6938 274.759C88.1455 273.538 87.8431 272.22 87.8041 270.882C87.7651 269.544 87.9902 268.211 88.4665 266.96C88.9428 265.709 89.661 264.564 90.5801 263.59C91.4969 262.615 92.5971 261.83 93.8176 261.281C95.0382 260.732 96.3551 260.43 97.6929 260.391C99.0307 260.352 100.363 260.577 101.613 261.054C102.864 261.531 104.008 262.25 104.98 263.17L111.32 269.17C113.278 271.031 114.416 273.593 114.486 276.293C114.555 278.994 113.55 281.611 111.69 283.57Z" fill="white"/>
<path opacity="0.5" d="M187.207 171.914L162.906 197.683C162.504 198.109 162.524 198.78 162.95 199.182L171.768 207.497C172.194 207.899 172.864 207.879 173.266 207.453L197.567 181.684C197.968 181.258 197.949 180.587 197.523 180.185L188.705 171.87C188.279 171.469 187.608 171.488 187.207 171.914Z" fill="white"/>
<g opacity="0.5">
<path d="M119.32 290.77C117.476 292.726 115.264 294.3 112.812 295.402C110.359 296.503 107.714 297.111 105.026 297.19C102.339 297.269 99.6621 296.817 97.1491 295.862C94.6361 294.906 92.3359 293.465 90.38 291.62L83.74 285.36C81.7837 283.516 80.2099 281.304 79.1083 278.852C78.0068 276.399 77.3993 273.753 77.3203 271.066C77.2414 268.379 77.6927 265.702 78.6483 263.189C79.604 260.676 81.0453 258.376 82.89 256.42C84.7359 254.456 86.9514 252.876 89.4093 251.769C91.8673 250.663 94.5194 250.053 97.2136 249.974C99.9078 249.895 102.591 250.349 105.11 251.309C107.628 252.269 109.932 253.717 111.89 255.57L118.52 261.83C120.473 263.678 122.043 265.892 123.14 268.346C124.237 270.8 124.84 273.447 124.914 276.134C124.989 278.822 124.533 281.497 123.573 284.009C122.613 286.52 121.168 288.817 119.32 290.77Z" fill="white"/>
<path d="M111.69 283.57C110.772 284.545 109.672 285.329 108.451 285.879C107.23 286.428 105.912 286.731 104.574 286.771C103.236 286.811 101.903 286.587 100.651 286.111C99.3998 285.636 98.2542 284.918 97.2801 284L91.0001 278C90.0259 277.082 89.2422 275.98 88.6938 274.759C88.1455 273.538 87.8431 272.22 87.8041 270.882C87.7651 269.544 87.9902 268.211 88.4665 266.96C88.9428 265.709 89.661 264.564 90.5801 263.59C91.4969 262.615 92.5971 261.83 93.8176 261.281C95.0382 260.732 96.3551 260.43 97.6929 260.391C99.0307 260.352 100.363 260.577 101.613 261.054C102.864 261.531 104.008 262.25 104.98 263.17L111.32 269.17C113.278 271.031 114.416 273.593 114.486 276.293C114.555 278.994 113.55 281.611 111.69 283.57Z" fill="white"/>
</g>
<path opacity="0.2" d="M194.87 177.68L197.53 180.18C197.63 180.279 197.71 180.396 197.764 180.526C197.818 180.655 197.846 180.794 197.846 180.935C197.846 181.075 197.818 181.215 197.764 181.344C197.71 181.474 197.63 181.591 197.53 181.69L173.23 207.45C173.132 207.55 173.016 207.629 172.887 207.683C172.758 207.737 172.62 207.765 172.48 207.765C172.34 207.765 172.202 207.737 172.073 207.683C171.945 207.629 171.828 207.55 171.73 207.45L169.08 204.95C169.278 205.146 169.546 205.256 169.825 205.256C170.104 205.256 170.372 205.146 170.57 204.95L194.87 179.18C194.97 179.082 195.049 178.965 195.103 178.837C195.157 178.708 195.185 178.57 195.185 178.43C195.185 178.29 195.157 178.152 195.103 178.023C195.049 177.894 194.97 177.778 194.87 177.68Z" fill="black"/>
<g opacity="0.2">
<path d="M103 261.32L105 263.19C103.013 261.472 100.44 260.587 97.8162 260.72C95.1929 260.852 92.7218 261.991 90.9174 263.9C89.113 265.809 88.1145 268.34 88.1299 270.966C88.1453 273.593 89.1733 276.112 90.9999 278L88.9999 276.12C87.0333 274.263 85.8848 271.702 85.807 268.998C85.7291 266.295 86.7284 263.672 88.5849 261.705C90.4414 259.738 93.0031 258.59 95.7065 258.512C98.4098 258.434 101.033 259.433 103 261.29V261.32Z" fill="black"/>
<path d="M116.49 260L118.49 261.88C122.316 265.636 124.516 270.741 124.619 276.101C124.722 281.461 122.719 286.648 119.041 290.547C115.362 294.447 110.302 296.749 104.945 296.959C99.588 297.169 94.3625 295.27 90.3901 291.67L88.3901 289.8C92.3492 293.485 97.6051 295.454 103.011 295.277C108.416 295.101 113.533 292.793 117.243 288.859C120.954 284.924 122.957 279.681 122.816 274.274C122.675 268.867 120.401 263.736 116.49 260Z" fill="black"/>
</g>
<g opacity="0.2">
<path d="M103 261.32L105 263.19C103.013 261.472 100.44 260.587 97.8162 260.72C95.1929 260.852 92.7218 261.991 90.9174 263.9C89.113 265.809 88.1145 268.34 88.1299 270.966C88.1453 273.593 89.1733 276.112 90.9999 278L88.9999 276.12C87.0333 274.263 85.8848 271.702 85.807 268.998C85.7291 266.295 86.7284 263.672 88.5849 261.705C90.4414 259.738 93.0031 258.59 95.7065 258.512C98.4098 258.434 101.033 259.433 103 261.29V261.32Z" fill="black"/>
<path d="M103 261.32L105 263.19C103.013 261.472 100.44 260.587 97.8162 260.72C95.1929 260.852 92.7218 261.991 90.9174 263.9C89.113 265.809 88.1145 268.34 88.1299 270.966C88.1453 273.593 89.1733 276.112 90.9999 278L88.9999 276.12C87.0333 274.263 85.8848 271.702 85.807 268.998C85.7291 266.295 86.7284 263.672 88.5849 261.705C90.4414 259.738 93.0031 258.59 95.7065 258.512C98.4098 258.434 101.033 259.433 103 261.29V261.32Z" fill="black"/>
</g>
<path d="M87.7801 262.21L95.1301 260.37L94.3101 255L85.3501 256.81L87.7801 262.21Z" fill="#B78876"/>
<path d="M87.0601 249.78L85.3501 256.78L94.3501 254.97C94.3501 254.97 94.4701 248.68 91.1301 248.27L87.0601 249.78Z" fill="#B78876"/>
</svg>
