<svg width="60" height="60" viewBox="0 0 60 60" fill="none" xmlns="http://www.w3.org/2000/svg">
<path d="M30 33.1462C29.6863 33.1462 29.3726 33.0736 29.083 32.9043L7.77512 20.5453C6.93052 20.0374 6.61682 18.9248 7.12357 18.0541C7.63033 17.1834 8.74037 16.8932 9.60909 17.4011L30 29.2281L50.2703 17.4736C51.139 16.9657 52.2491 17.2802 52.7558 18.1267C53.2626 18.9974 52.9489 20.1099 52.1043 20.6178L30.9411 32.9043C30.6274 33.0495 30.3137 33.1462 30 33.1462Z" fill="#D39752"/>
<path d="M30 55.0545C29.0106 55.0545 28.1901 54.2322 28.1901 53.2405V31.3038C28.1901 30.3122 29.0106 29.4898 30 29.4898C30.9893 29.4898 31.8098 30.3122 31.8098 31.3038V53.2405C31.8098 54.2322 30.9893 55.0545 30 55.0545Z" fill="#D39752"/>
<path d="M30 56C27.8764 56 25.777 55.5405 24.112 54.6214L11.2259 47.4381C7.72683 45.5033 5 40.8353 5 36.8205V23.1553C5 19.1405 7.72683 14.4967 11.2259 12.5377L24.112 5.3786C27.418 3.54047 32.582 3.54047 35.888 5.3786L48.7741 12.5619C52.2732 14.4967 55 19.1647 55 23.1795V36.8447C55 40.8595 52.2732 45.5033 48.7741 47.4623L35.888 54.6214C34.223 55.5405 32.1235 56 30 56ZM30 7.62791C28.4797 7.62791 26.9836 7.94233 25.8735 8.54698L12.9875 15.7302C10.6708 17.0121 8.61969 20.4949 8.61969 23.1553V36.8205C8.61969 39.4809 10.6708 42.9637 12.9875 44.2698L25.8735 51.453C28.0695 52.6865 31.9305 52.6865 34.1264 51.453L47.0125 44.2698C49.3291 42.9637 51.3803 39.5051 51.3803 36.8205V23.1553C51.3803 20.4949 49.3291 17.0121 47.0125 15.706L34.1264 8.52279C33.0164 7.94233 31.5203 7.62791 30 7.62791Z" fill="#D39752"/>
</svg>
