<svg width="70" height="80" viewBox="0 0 70 80" fill="none" xmlns="http://www.w3.org/2000/svg">
<path d="M40.5017 40.2018V42.0339C41.2009 42.0339 41.9 42.0179 42.5912 42.0339C43.4622 42.0579 44.3531 42.0059 45.2001 42.1699C47.1977 42.56 48.7119 44.504 48.6919 46.4861C48.6919 47.1622 48.3583 47.5062 47.6771 47.5062C39.2339 47.5062 30.7893 47.5062 22.3434 47.5062C21.6302 47.5062 21.3086 47.1662 21.3086 46.4521C21.3086 44.164 23.3242 42.0839 25.6174 42.0379C26.8899 42.0119 28.1644 42.0379 29.4808 42.0379V40.2018H28.8276C23.3502 40.2018 17.8727 40.2018 12.3952 40.2018C9.03922 40.2018 6.70001 37.8557 6.70001 34.4896C6.70001 24.8891 6.70001 15.294 6.70001 5.70426C6.70001 2.34411 9.03123 0 12.3952 0H57.6413C60.9553 0 63.2985 2.35611 63.3005 5.68626C63.3005 15.3 63.3005 24.9145 63.3005 34.5296C63.3005 37.8537 60.9493 40.2038 57.6273 40.2058C52.1671 40.2058 46.707 40.2058 41.2468 40.2058L40.5017 40.2018ZM57.5733 38.3778C59.9205 38.3778 61.4847 36.8257 61.4847 34.4876C61.4847 24.8871 61.4847 15.2927 61.4847 5.70426C61.4862 5.26788 61.4256 4.83351 61.3049 4.4142C60.8215 2.76613 59.4211 1.81408 57.5194 1.81408H12.605C10.0081 1.81408 8.52184 3.30615 8.52184 5.93227V34.2676C8.52184 36.8937 10.0021 38.3838 12.609 38.3838L57.5733 38.3778ZM23.3561 45.6441H46.6404C46.2229 44.516 45.28 43.872 44.0175 43.862C42.2856 43.848 40.5556 43.862 38.8237 43.862C34.5834 43.862 30.3425 43.862 26.1009 43.862C24.7525 43.866 23.7956 44.486 23.3561 45.6501V45.6441ZM31.3726 42.0019H38.608V40.2398H31.3726V42.0019Z" fill="#D39752"/>
<path d="M58.3724 3.65617C59.3912 3.65617 59.6409 3.90818 59.6409 4.93823V33.4395C59.6409 34.4716 59.3912 34.7236 58.3724 34.7236H11.5902C10.6113 34.7236 10.3517 34.4616 10.3517 33.4695V4.91023C10.3517 3.91018 10.6093 3.65617 11.5902 3.65617H58.3724ZM12.1994 32.8575H57.7731V5.51025H12.1994V32.8575Z" fill="#D39752"/>
<path d="M39.9803 23.8671C41.3946 24.0231 42.8229 24.0991 44.2193 24.3591C45.7394 24.6431 47.2357 25.0751 48.7279 25.4972C49.1409 25.6418 49.5216 25.866 49.8485 26.1572C50.7674 26.8992 50.8114 28.0113 49.8266 28.6513C48.9722 29.2094 48.036 29.6305 47.0519 29.8994C43.576 30.8274 40.0023 31.0614 36.4286 31.0354C33.1265 31.0134 29.8184 30.8494 26.5284 30.5594C24.8663 30.4114 23.2383 29.8594 21.6002 29.4694C21.3075 29.3867 21.0287 29.2606 20.7732 29.0953C20.126 28.7113 19.4908 28.2953 19.4868 27.4233C19.4828 26.5512 20.11 26.0452 20.8092 25.7232C21.6054 25.3221 22.4482 25.0211 23.3182 24.8271C25.2379 24.4791 27.1796 24.2591 29.1113 23.9911C29.4109 23.9491 29.7106 23.9231 30.1401 23.8771C29.9403 23.6771 29.8124 23.5311 29.6766 23.3951L20.963 14.6707C20.144 13.8526 20.1639 13.4386 21.0469 12.7306C22.0877 11.8985 23.1664 11.1105 24.1512 10.2185C25.1999 9.26842 26.5044 8.87641 27.7329 8.29238C29.3483 7.53108 31.1285 7.18725 32.9107 7.29233C34.9983 7.38434 37.0938 7.30434 39.1853 7.32234C39.5609 7.33432 39.9323 7.40518 40.2859 7.53235C40.9312 7.75236 41.5424 8.08437 42.1977 8.26438C44.5409 8.91041 46.2169 10.5765 48.0507 12.0086C48.3943 12.2786 48.7339 12.5526 49.0755 12.8286C49.7706 13.3926 49.8006 13.9026 49.1574 14.5467C46.2275 17.4801 43.2977 20.4136 40.3679 23.3471C40.21 23.4823 40.0402 23.6028 39.8605 23.7071L39.9803 23.8671ZM21.5623 27.3013V27.5373C22.2894 27.7633 23.0066 28.0353 23.7477 28.2073C26.6642 28.8833 29.6347 29.1073 32.6171 29.1953C37.1837 29.3293 41.7322 29.1853 46.2189 28.2133C46.976 28.0473 47.7091 27.7653 48.4542 27.5373L48.4402 27.3373C48.0227 27.1812 47.6132 26.9932 47.1857 26.8732C44.2972 26.0732 41.3327 25.8032 38.3503 25.6992C38.1323 25.7159 37.9275 25.8103 37.7729 25.9652C37.0978 26.6092 36.4545 27.2812 35.7893 27.9353C35.226 28.4893 34.7805 28.4893 34.2152 27.9353C33.5799 27.3093 32.9707 26.6532 32.3095 26.0532C32.0831 25.8457 31.791 25.7246 31.4844 25.7112C28.8631 25.7613 26.2533 26.0728 23.6937 26.6412C22.9706 26.8012 22.2714 27.0752 21.5623 27.3013ZM42.0558 10.2225C41.4825 9.98846 41.0011 9.82245 40.5396 9.59844C39.7821 9.25092 38.9531 9.0878 38.1205 9.12242C36.091 9.16042 34.0534 9.21642 32.0278 9.10842C30.5396 9.02841 29.343 9.70844 27.9487 10.2205C28.8136 10.7385 29.5847 11.2205 30.3738 11.6625C30.6003 11.7882 30.854 11.8568 31.1129 11.8625C33.7098 11.8765 36.3067 11.8625 38.9156 11.8625C39.1025 11.8729 39.289 11.8372 39.4589 11.7585C40.2959 11.2905 41.117 10.7865 42.0558 10.2225ZM35.0003 25.4852C36.3407 23.0251 37.6151 20.6849 38.9116 18.3008H31.0889L35.0003 25.4852ZM30.6594 16.4208H39.3411C39.1793 15.5887 39.0394 14.7887 38.8577 13.9966C38.8206 13.922 38.7659 13.8575 38.6984 13.8087C38.6309 13.76 38.5525 13.7283 38.4701 13.7166C36.1569 13.7006 33.8423 13.7006 31.5264 13.7166C31.4441 13.7287 31.366 13.7609 31.2991 13.8105C31.2321 13.86 31.1785 13.9253 31.1429 14.0006C30.9591 14.8007 30.8192 15.6007 30.6594 16.4208ZM46.93 13.4786L44.0574 11.1785L40.5936 13.2626C40.7933 14.2127 40.9751 15.1067 41.1689 16.0487L46.93 13.4786ZM28.8396 16.0467C29.0394 15.0727 29.2152 14.1686 29.4009 13.2466L25.951 11.1725L23.0745 13.4766L28.8396 16.0467ZM39.0275 21.957L44.2752 16.6868C43.2764 17.1328 42.2776 17.5768 41.2788 18.0268C41.1956 18.0663 41.1261 18.1297 41.079 18.2088C40.4058 19.4169 39.7486 20.6289 39.0275 21.957ZM30.9591 21.925C30.2439 20.6169 29.5747 19.3929 28.9035 18.1688C28.8761 18.1183 28.8334 18.0777 28.7817 18.0528C27.7649 17.5948 26.7461 17.1388 25.7653 16.7008C27.4652 18.4128 29.1732 20.1289 30.9591 21.925Z" fill="#D39752"/>
<path d="M18.5379 11.0005V12.7566H14.0492V11.0005H18.5379Z" fill="#D39752"/>
<path d="M55.9553 12.7666H51.4686V11.0125H55.9553V12.7666Z" fill="#D39752"/>
<path d="M14.0253 20.0569V18.3148H18.5319V20.0569H14.0253Z" fill="#D39752"/>
<path d="M51.4666 18.3028H55.9573V20.0689H51.4666V18.3028Z" fill="#D39752"/>
<path d="M14.0253 27.3773V25.6352H18.5319V27.3773H14.0253Z" fill="#D39752"/>
<path d="M55.9852 25.6232V27.3693H51.4766V25.6232H55.9852Z" fill="#D39752"/>
<path d="M14.0433 7.33834H16.7101V9.09242H14.0433V7.33834Z" fill="#D39752"/>
<path d="M53.2904 9.10242V7.35434H55.9593V9.10242H53.2904Z" fill="#D39752"/>
<path d="M14.0253 16.4108V14.6667H16.7081V16.4108H14.0253Z" fill="#D39752"/>
<path d="M55.9752 16.4248H53.3004V14.6547H55.9752V16.4248Z" fill="#D39752"/>
<path d="M14.0253 23.7171V21.963H16.6881V23.7171H14.0253Z" fill="#D39752"/>
<path d="M55.9752 21.979V23.7231H53.2924V21.979H55.9752Z" fill="#D39752"/>
<path d="M16.7181 29.2913V31.0334H14.0353V29.2913H16.7181Z" fill="#D39752"/>
<path d="M53.2944 29.2713H55.9553V31.0334H53.2944V29.2713Z" fill="#D39752"/>
<path d="M69.2174 48.9762C68.8231 48.3866 68.2873 47.9056 67.659 47.5771C67.0308 47.2486 66.3303 47.0833 65.6217 47.0962C64.925 47.0997 64.2368 47.2503 63.6021 47.5382C62.4643 48.0819 61.3732 48.7187 60.34 49.4423L60.2961 49.4683C60.1423 49.5543 59.9865 49.6383 59.8286 49.7223C59.515 49.8903 59.2294 50.0523 58.9297 50.2263L54.3352 52.9704L51.8262 54.4745C51.7023 54.5405 51.5985 54.5985 51.4926 54.6525C51.286 54.7534 51.0859 54.867 50.8933 54.9925C50.6935 55.1345 50.2621 55.4285 49.7906 55.2845C49.3611 55.1505 49.1594 54.7465 49.0315 54.4125C48.3623 52.6424 47.0759 51.6664 45.2061 51.5084C44.3356 51.4527 43.4627 51.4441 42.5912 51.4824C42.1917 51.4944 41.7822 51.5044 41.3786 51.5064H32.3514C31.2905 51.5096 30.2336 51.3751 29.2072 51.1063C25.9031 50.2603 22.9706 50.1183 20.2399 50.6763C17.583 51.1463 15.2119 52.3144 12.9705 54.2485C12.9466 54.2677 12.9246 54.2892 12.9046 54.3125C12.5051 54.7265 12.0676 54.8045 11.6341 54.5365L11.4643 54.4325L11.3904 54.2445C11.16 53.7226 10.8625 53.2331 10.5055 52.7884C10.3584 52.5854 10.1397 52.446 9.89377 52.3985C9.64783 52.3509 9.39304 52.3988 9.18105 52.5324L8.75755 52.7864C7.75984 53.3619 6.79299 53.9895 5.86101 54.6665L5.81506 54.6965L4.47466 55.5225C3.46786 56.1426 2.46306 56.7653 1.46026 57.3906C1.36837 57.4506 1.27448 57.5046 1.18059 57.5626C0.685182 57.8647 0.2517 58.1247 0 58.5627V59.2027C0.0279666 59.2487 0.0559325 59.2927 0.0819015 59.3387C0.155813 59.4567 0.227728 59.5767 0.303637 59.6947L1.55614 61.6948C2.65883 63.4522 3.76351 65.209 4.87019 66.9651C5.72118 68.3011 6.59214 69.6572 7.43713 70.9653C7.83665 71.5893 8.23618 72.2153 8.6357 72.8393L8.64769 72.8613C10.034 75.2614 11.5522 77.5836 12.8667 79.5816C12.9317 79.6825 13.0159 79.7696 13.1146 79.8379C13.2133 79.9061 13.3244 79.9543 13.4416 79.9795C13.5589 80.0048 13.6799 80.0067 13.7979 79.9851C13.9159 79.9635 14.0284 79.9188 14.1291 79.8537C15.0819 79.3566 15.9901 78.7784 16.8439 78.1256L16.9178 78.0756C17.0577 77.9936 17.1995 77.9116 17.3433 77.8316C17.641 77.6576 17.9266 77.4955 18.2063 77.3195C18.6957 77.0135 19.1791 76.7055 19.6625 76.3955C20.5655 75.8195 21.4984 75.2254 22.4352 74.6614C22.8008 74.4434 23.2543 74.0894 23.3501 73.6494C23.4121 73.3674 23.3242 73.0493 23.0825 72.6993C22.8408 72.3493 22.7988 72.0333 22.9406 71.7493C23.0385 71.5493 23.2663 71.3173 23.7836 71.2953C24.1252 71.2833 24.4648 71.2593 24.8064 71.2373L25.3018 71.2053L25.3797 71.2233C25.6973 71.2933 26.019 71.3513 26.3366 71.4113C26.9359 71.5233 27.5631 71.6393 28.1824 71.8113C28.8016 71.9833 29.4369 72.1893 30.0482 72.3793C31.2867 72.7653 32.5672 73.1634 33.8436 73.4494L33.9235 73.4734C35.1923 73.9445 36.4902 74.3334 37.8089 74.6374C39.439 75.0214 40.8752 75.0034 42.1937 74.5814L42.2656 74.5654C44.5668 74.1354 46.2608 72.6773 48.0587 71.1353L48.3843 70.8572C50.3819 69.3572 52.4255 67.7231 54.465 65.997L54.491 65.979L54.8486 65.713C55.1023 65.525 55.342 65.347 55.5757 65.159C56.8249 64.1509 58.0707 63.1429 59.3133 62.1348L60.8934 60.8568C63.734 58.7187 66.1891 56.7566 68.4144 54.8565C70.1823 53.3664 70.5039 50.9463 69.2174 48.9762ZM20.4456 73.0473C20.4027 73.1943 20.3304 73.331 20.2333 73.4493C20.1361 73.5675 20.016 73.6648 19.8803 73.7354C19.1631 74.1794 18.444 74.6534 17.7488 75.1094C17.627 75.1894 17.5031 75.2735 17.3773 75.3535H17.3633L16.8719 75.6735L16.4724 75.9395L16.4524 75.9215L16.3205 75.9975C15.897 76.2415 15.4995 76.4735 15.122 76.7355C14.8933 76.9164 14.614 77.0213 14.3229 77.0355C14.2606 77.0353 14.1984 77.0293 14.1371 77.0175C13.967 76.9708 13.8082 76.8895 13.6707 76.7787C13.5333 76.6679 13.42 76.53 13.3381 76.3735C11.8838 74.0234 10.3836 71.6573 8.98129 69.4472C8.73358 69.0612 8.47389 68.6931 8.19822 68.3031C8.07237 68.1291 7.94652 67.9491 7.82267 67.7711L7.78072 67.7091L7.75475 67.6431C7.50819 67.0656 7.19797 66.5175 6.82985 66.009C6.67604 65.779 6.51823 65.541 6.3684 65.299C5.28969 63.5409 4.21098 61.8248 3.15424 60.1988C3.0497 60.0796 2.97496 59.9373 2.93618 59.7836C2.8974 59.6298 2.8957 59.469 2.93121 59.3145C2.96673 59.1599 3.03844 59.016 3.14043 58.8947C3.24243 58.7734 3.37178 58.6781 3.5178 58.6167C3.97526 58.3447 4.43471 58.0347 4.87818 57.7386C5.07794 57.6066 5.27771 57.4746 5.46548 57.3386C5.76313 57.1566 6.04279 56.9926 6.32246 56.8266C6.9597 56.4486 7.61692 56.0586 8.22419 55.6385C8.36288 55.5263 8.523 55.4435 8.69475 55.3954C8.86649 55.3472 9.04625 55.3347 9.223 55.3585C9.62252 55.4445 9.86623 55.7586 10.062 56.0746C10.6014 56.9566 11.1747 57.8447 11.73 58.6987C11.9537 59.0427 12.1775 59.3867 12.3972 59.7307L13.5958 61.6628C14.8396 63.6629 16.0868 65.663 17.3373 67.6631C17.7249 68.2771 18.1364 68.8972 18.5239 69.4992L19.0573 70.3192C19.1731 70.5192 19.279 70.6872 19.3809 70.8632C19.6446 71.3093 19.9142 71.7713 20.2039 72.2013C20.301 72.3176 20.3727 72.4529 20.4144 72.5987C20.456 72.7444 20.4666 72.8972 20.4456 73.0473ZM66.9262 53.3424C66.2809 53.8825 65.6137 54.4105 64.9685 54.9205C64.585 55.2232 64.2054 55.5252 63.8299 55.8266C63.2213 56.3186 62.614 56.8119 62.008 57.3066L61.0811 58.0587C58.7799 59.8467 56.7164 61.4588 54.7048 63.1709L54.6788 63.1909C52.7791 64.633 50.7814 66.227 48.5841 68.0591C48.2584 68.3171 47.9488 68.5571 47.6352 68.7992C46.956 69.3252 46.2528 69.8732 45.5836 70.4232C44.5989 71.253 43.4935 71.9275 42.3055 72.4233L42.2476 72.4433C41.5853 72.6343 40.8992 72.73 40.21 72.7273C38.6379 72.7273 37.1657 72.2673 35.8153 71.8453C35.2939 71.6813 34.7526 71.5373 34.2272 71.3953L33.5819 71.2193C32.9227 71.0192 32.2695 70.8192 31.6403 70.6032C29.5887 69.9352 27.645 69.3032 25.5615 69.1432C25.4771 69.1372 25.3923 69.1372 25.3078 69.1432H25.0861C24.2011 69.0892 23.1624 69.0752 22.1536 69.3892C21.1448 69.7032 20.7333 68.9892 20.5914 68.7631C20.0221 67.8171 19.4208 66.8691 18.8335 65.953L18.5259 65.471C18.4899 65.449 18.452 65.427 18.418 65.403L18.2602 65.295L18.1983 65.109C17.9587 64.5099 17.6424 63.9445 17.2574 63.4269C17.0916 63.1789 16.9198 62.9229 16.76 62.6569C15.891 61.2268 14.9202 59.6967 13.7955 57.9807C13.5199 57.5566 13.2402 56.9146 13.9953 56.2326C15.7173 54.6525 17.5071 53.6165 19.4648 53.0624C19.5906 53.0264 19.7225 52.9764 19.8643 52.9244C19.9342 52.8964 20.0021 52.8704 20.0641 52.8464L20.128 52.8224H20.1959L21.0649 52.7084C21.819 52.5914 22.5795 52.5199 23.3422 52.4944C25.2905 52.4796 27.2306 52.7491 29.1013 53.2944C30.1497 53.578 31.2383 53.6828 32.3214 53.6045H42.3914C43.1905 53.6045 43.9895 53.6045 44.8006 53.6265C46.1829 53.6525 47.1498 54.6005 47.1578 55.9306C47.1566 56.5398 46.9198 57.1249 46.4971 57.5631C46.0743 58.0012 45.4985 58.2584 44.8905 58.2807C44.4909 58.2987 44.0914 58.3007 43.7139 58.3007C43.5461 58.3007 43.3743 58.3007 43.2065 58.3007H40.6096C38.6659 58.3007 36.6543 58.2867 34.6786 58.3007C34.5411 58.2953 34.4039 58.3185 34.2757 58.3688C34.1475 58.4191 34.031 58.4953 33.9337 58.5928C33.8363 58.6903 33.7601 58.8069 33.7099 58.9352C33.6597 59.0636 33.6365 59.201 33.6419 59.3387C33.6328 59.4842 33.6531 59.63 33.7015 59.7674C33.7499 59.9049 33.8254 60.0311 33.9235 60.1388C34.0239 60.2354 34.1426 60.3109 34.2727 60.3608C34.4027 60.4106 34.5415 60.4337 34.6806 60.4288C36.8141 60.4428 38.9835 60.4288 41.073 60.4288H43.5221C45.3199 60.5848 46.7183 60.2288 47.9328 59.3007C48.7271 58.7184 49.5593 58.1899 50.4239 57.7186C50.7814 57.5186 51.153 57.3006 51.5086 57.0846L53.1067 56.1486C54.4864 55.3485 55.8654 54.5425 57.2437 53.7305C57.9729 53.3024 58.71 52.8504 59.4211 52.4164L60.2501 51.9104L61.0732 51.4324C61.8442 50.9883 62.614 50.5423 63.3824 50.0943L63.5182 50.0163C63.9023 49.7652 64.3164 49.5636 64.7508 49.4163C65.9493 49.0562 66.9482 49.3923 67.4995 50.3443C68.0948 51.3804 67.8671 52.5564 66.9262 53.3424Z" fill="#D39752"/>
</svg>
