<svg width="22" height="23" viewBox="0 0 22 23" fill="none" xmlns="http://www.w3.org/2000/svg">
<path d="M19.25 6.66829C19.2316 6.66829 19.2041 6.66829 19.1767 6.66829C14.3275 6.18246 9.48748 5.99912 4.69332 6.48496L2.82332 6.66829C2.43832 6.70496 2.09915 6.42996 2.06248 6.04496C2.02582 5.65996 2.30082 5.32996 2.67665 5.29329L4.54665 5.10996C9.42332 4.61496 14.3642 4.80746 19.3141 5.29329C19.69 5.32996 19.965 5.66912 19.9283 6.04496C19.9008 6.40246 19.5983 6.66829 19.25 6.66829Z" fill="#D80032"/>
<path d="M7.79162 5.74203C7.75496 5.74203 7.71829 5.74203 7.67246 5.73286C7.30579 5.6687 7.04912 5.3112 7.11329 4.94453L7.31496 3.7437C7.46162 2.8637 7.66329 1.64453 9.79912 1.64453H12.2008C14.3458 1.64453 14.5475 2.90953 14.685 3.75286L14.8866 4.94453C14.9508 5.32036 14.6941 5.67786 14.3275 5.73286C13.9516 5.79703 13.5941 5.54036 13.5391 5.1737L13.3375 3.98203C13.2091 3.18453 13.1816 3.0287 12.21 3.0287H9.80829C8.83662 3.0287 8.81829 3.15703 8.68079 3.97286L8.46996 5.16453C8.41496 5.5037 8.12162 5.74203 7.79162 5.74203Z" fill="#D80032"/>
<path d="M13.9425 21.3543H8.05747C4.8583 21.3543 4.72997 19.5851 4.62913 18.1551L4.0333 8.92428C4.0058 8.54844 4.29913 8.21844 4.67497 8.19094C5.05997 8.17261 5.3808 8.45678 5.4083 8.83261L6.00413 18.0634C6.10497 19.4568 6.14163 19.9793 8.05747 19.9793H13.9425C15.8675 19.9793 15.9041 19.4568 15.9958 18.0634L16.5916 8.83261C16.6191 8.45678 16.9491 8.17261 17.325 8.19094C17.7008 8.21844 17.9941 8.53928 17.9666 8.92428L17.3708 18.1551C17.27 19.5851 17.1416 21.3543 13.9425 21.3543Z" fill="#D80032"/>
<path d="M12.5216 16.3112H9.46908C9.09324 16.3112 8.78158 15.9995 8.78158 15.6237C8.78158 15.2479 9.09324 14.9362 9.46908 14.9362H12.5216C12.8974 14.9362 13.2091 15.2479 13.2091 15.6237C13.2091 15.9995 12.8974 16.3112 12.5216 16.3112Z" fill="#D80032"/>
<path d="M13.2916 12.6445H8.70828C8.33245 12.6445 8.02078 12.3329 8.02078 11.957C8.02078 11.5812 8.33245 11.2695 8.70828 11.2695H13.2916C13.6674 11.2695 13.9791 11.5812 13.9791 11.957C13.9791 12.3329 13.6674 12.6445 13.2916 12.6445Z" fill="#D80032"/>
</svg>
