<svg width="60" height="60" viewBox="0 0 60 60" fill="none" xmlns="http://www.w3.org/2000/svg">
<path d="M30.0166 4C44.3328 4 56.2227 15.7 55.9968 29.9753C55.7476 45.6793 44.4211 56.0156 29.9842 56C15.4784 55.9844 4.22723 45.5805 4.00265 29.9428C3.79624 15.6649 15.6939 4 30.0166 4ZM30.4891 52.4133C42.8529 52.0818 52.5658 41.9977 52.2607 30.0377C51.8907 15.5284 41.1536 7.51 29.3065 7.8896C16.5066 8.29 7.52847 17.8307 7.74916 30.8424C7.95946 43.2067 18.3837 52.6421 30.4891 52.4133Z" fill="#D39752"/>
<path d="M35.8181 21.0651V21.875C35.8181 28.6445 35.8181 35.4136 35.8181 42.1823C35.8181 43.3588 35.0912 44.1609 34.0254 44.1921C33.7787 44.2025 33.5325 44.1634 33.3012 44.077C33.0699 43.9906 32.8583 43.8587 32.6787 43.6891C32.4991 43.5195 32.3553 43.3155 32.2557 43.0893C32.1562 42.8631 32.1028 42.6193 32.0989 42.3721C32.0989 42.2551 32.0989 42.1381 32.0989 42.0224C32.0989 34.0508 32.1378 26.0792 32.0664 18.1024C32.0521 16.5424 33.6242 15.3659 35.1548 16.3175C37.0605 17.4992 39.0493 18.5535 40.9965 19.6702C41.6456 20.0459 42.035 20.601 41.9701 21.3836C41.9518 21.7345 41.8383 22.0737 41.6418 22.3649C41.4453 22.656 41.1733 22.888 40.855 23.0359C40.2618 23.331 39.6867 23.2244 39.1375 22.9137C38.2444 22.4093 37.3552 21.8984 36.4633 21.3927C36.2764 21.29 36.0894 21.2042 35.8181 21.0651Z" fill="#D39752"/>
<path d="M25.7158 39.1V38.281C25.7158 31.5288 25.7158 24.7762 25.7158 18.0231C25.7158 16.6958 26.5908 15.8521 27.8214 15.9756C28.2282 16.0198 28.6081 16.2002 28.8998 16.4876C29.1914 16.7749 29.3778 17.1524 29.4285 17.559C29.4439 17.6745 29.4521 17.7909 29.4532 17.9074C29.4532 26.0376 29.451 34.1678 29.4467 42.298C29.4467 43.5161 28.4822 44.3286 27.2996 44.1661C27.0714 44.1312 26.8514 44.055 26.6505 43.9412C24.6262 42.8015 22.6067 41.6541 20.5919 40.4988C19.5716 39.9099 19.2938 38.8842 19.8481 37.9196C20.4024 36.955 21.4215 36.6885 22.4444 37.254C23.5089 37.8416 24.5552 38.45 25.7158 39.1Z" fill="#D39752"/>
</svg>
