<svg width="83" height="80" viewBox="0 0 83 80" fill="none" xmlns="http://www.w3.org/2000/svg">
<path d="M82.3918 40.6534L75.5678 29.264C75.3561 28.9347 75.0265 28.6988 74.6466 28.6048L56.4848 24.6536C56.523 24.5301 56.5769 24.4118 56.6134 24.2849H58.6331C59.3904 24.2844 60.1165 23.9832 60.6519 23.4475C61.1874 22.9117 61.4884 22.1852 61.4889 21.4275V18.5719C61.488 17.8144 61.1868 17.0881 60.6514 16.5525C60.1161 16.0168 59.3902 15.7155 58.6331 15.7146H56.6221C56.2859 14.5408 55.8128 13.4107 55.2124 12.3477L56.6429 10.9129C57.1757 10.3757 57.4746 9.64966 57.4746 8.89292C57.4746 8.13618 57.1757 7.41011 56.6429 6.87295L54.6249 4.84863C54.0894 4.31307 53.3632 4.01221 52.6061 4.01221C51.8489 4.01221 51.1228 4.31307 50.5872 4.84863L49.148 6.27991C48.0826 5.68257 46.9509 5.21213 45.7761 4.87819V2.85735C45.7756 2.10088 45.4755 1.37542 44.9416 0.839861C44.4076 0.304302 43.6833 0.00230057 42.9272 0H40.0715C39.3143 0.000920456 38.5885 0.302258 38.0531 0.837916C37.5178 1.37357 37.2166 2.09982 37.2157 2.85735V4.87819C36.0438 5.21277 34.9151 5.6832 33.8524 6.27991L32.4201 4.84863C31.8767 4.32829 31.1535 4.03786 30.4013 4.03786C29.6491 4.03786 28.9259 4.32829 28.3824 4.84863L26.3558 6.86773C25.8234 7.40512 25.5248 8.1311 25.5248 8.88771C25.5248 9.64431 25.8234 10.3703 26.3558 10.9077L27.7863 12.3477C27.1892 13.4137 26.7191 14.546 26.3853 15.7215H24.3673C23.6114 15.7224 22.8866 16.0228 22.3514 16.557C21.8163 17.0911 21.5143 17.8156 21.5115 18.5719V21.4275C21.512 22.1852 21.813 22.9117 22.3485 23.4475C22.884 23.9832 23.6101 24.2844 24.3673 24.2849H26.387C26.4235 24.4118 26.4774 24.5301 26.5157 24.6536L8.35901 28.6048C7.97881 28.6982 7.649 28.9342 7.43779 29.264L0.608621 40.6534C-0.769728 42.8272 0.302708 45.9681 2.72221 46.8463L7.24138 48.6133V63.7643C7.23608 64.6286 7.4936 65.4741 7.97975 66.1885C8.4659 66.9029 9.15769 67.4525 9.96332 67.7643L40.9788 79.9015C41.314 80.0328 41.6864 80.0328 42.0217 79.9015L73.0475 67.7556C73.853 67.4437 74.5445 66.894 75.0304 66.1796C75.5162 65.4652 75.7734 64.6198 75.7677 63.7557V48.6133L80.2869 46.8463C82.6942 45.9681 83.7702 42.8272 82.3918 40.6534ZM24.3673 21.4275V18.5719H27.5081C27.8374 18.5717 28.1566 18.4577 28.4115 18.2492C28.6665 18.0407 28.8417 17.7504 28.9074 17.4276C29.2356 15.8163 29.8725 14.2838 30.7828 12.9146C30.9655 12.6408 31.048 12.3122 31.0163 11.9845C30.9846 11.6568 30.8407 11.3501 30.609 11.1164L28.3755 8.88684L30.3952 6.86773L32.6218 9.09553C32.8557 9.32753 33.1625 9.47157 33.4903 9.50326C33.8181 9.53495 34.1468 9.45235 34.4207 9.26944C35.7882 8.35836 37.3195 7.72165 38.9295 7.39468C39.2525 7.32889 39.5428 7.15339 39.7512 6.89792C39.9597 6.64246 40.0734 6.32274 40.0732 5.99296V2.85735H42.9272V5.99992C42.9294 6.32791 43.0443 6.64517 43.2525 6.89849C43.4607 7.15181 43.7497 7.32577 44.0709 7.3912C45.6814 7.71964 47.213 8.35685 48.5814 9.2677C48.8551 9.45048 49.1835 9.53301 49.511 9.50132C49.8385 9.46962 50.1451 9.32566 50.3787 9.09379L52.607 6.86773L54.6249 8.88857L52.3984 11.1164C52.1665 11.3504 52.0225 11.6574 51.9909 11.9854C51.9592 12.3134 52.0418 12.6422 52.2246 12.9163C53.1351 14.2845 53.7715 15.8167 54.0983 17.4276C54.1643 17.7503 54.3395 18.0404 54.5944 18.2488C54.8493 18.4573 55.1683 18.5714 55.4975 18.5719H58.6401V21.4275H55.4923C55.163 21.4277 54.8438 21.5417 54.5889 21.7502C54.3339 21.9588 54.1588 22.249 54.0931 22.5719C53.7662 24.1863 53.1293 25.7219 52.2176 27.0935C52.0348 27.3676 51.9522 27.6965 51.9839 28.0245C52.0156 28.3525 52.1595 28.6595 52.3914 28.8935L54.618 31.1213L52.5983 33.1404L50.3787 30.9039C50.1446 30.6722 49.8378 30.5284 49.5101 30.4967C49.1824 30.465 48.8537 30.5474 48.5797 30.73C47.2122 31.6411 45.681 32.2778 44.0709 32.6048C43.7484 32.6708 43.4585 32.8461 43.2501 33.1012C43.0418 33.3562 42.9277 33.6754 42.9272 34.0048V37.1491H40.0732V33.9995C40.073 33.6701 39.9591 33.3507 39.7507 33.0956C39.5423 32.8405 39.2522 32.6653 38.9295 32.5996C37.3158 32.273 35.781 31.6356 34.4103 30.7231C34.1366 30.5403 33.8082 30.4578 33.4807 30.4894C33.1532 30.5211 32.8467 30.6651 32.6131 30.897L30.3935 33.1317L28.3755 31.1109L30.602 28.8831C30.8338 28.6494 30.9777 28.3427 31.0093 28.015C31.041 27.6873 30.9585 27.3587 30.7759 27.0849C29.8647 25.7132 29.2284 24.1775 28.9021 22.5632C28.8364 22.24 28.661 21.9496 28.4057 21.741C28.1503 21.5324 27.8308 21.4186 27.5012 21.4188L24.3673 21.4275ZM27.6316 27.3405C27.6872 27.4466 27.7289 27.5579 27.7897 27.664L26.3575 29.097C25.8248 29.6342 25.5258 30.3602 25.5258 31.117C25.5258 31.8737 25.8248 32.5998 26.3575 33.1369L28.3755 35.156C28.9189 35.6764 29.6421 35.9668 30.3943 35.9668C31.1465 35.9668 31.8697 35.6764 32.4132 35.156L33.8454 33.7248C34.9106 34.3228 36.0424 34.7932 37.2174 35.1265V37.1473C37.2197 37.9039 37.5215 38.6289 38.0567 39.1634C38.5919 39.6979 39.317 39.9985 40.0732 39.9995H42.9272C43.6843 39.9985 44.4102 39.6972 44.9455 39.1615C45.4809 38.6259 45.7821 37.8996 45.783 37.1421V35.13C46.9561 34.7936 48.0856 34.3202 49.148 33.7195L50.582 35.1508C50.8471 35.4162 51.1618 35.6268 51.5082 35.7704C51.8546 35.914 52.2259 35.988 52.6009 35.988C52.9758 35.988 53.3472 35.914 53.6936 35.7704C54.04 35.6268 54.3547 35.4162 54.6197 35.1508L56.6377 33.1317C57.1704 32.5946 57.4694 31.8685 57.4694 31.1118C57.4694 30.355 57.1704 29.6289 56.6377 29.0918L55.2107 27.6518C55.2715 27.5457 55.3132 27.4344 55.3689 27.3283L69.42 30.3857L41.5002 41.3212L13.5804 30.3892L27.6316 27.3335V27.3405ZM3.05767 42.1229L9.26632 31.7717L39.4144 43.5716L32.9607 54.3367C32.7874 54.6247 32.5181 54.8425 32.2002 54.9516C31.8823 55.0607 31.5361 55.0542 31.2226 54.9332L3.76162 44.1872C3.56905 44.1104 3.39539 43.9928 3.25258 43.8425C3.10976 43.6922 3.00117 43.5127 2.93429 43.3163C2.8674 43.12 2.84379 42.9115 2.86509 42.7052C2.88639 42.4989 2.95209 42.2997 3.05767 42.1212V42.1229ZM10.0885 63.7643V49.7385L30.1658 57.5975C31.1083 57.9677 32.1515 57.9914 33.1098 57.6643C34.0681 57.3373 34.8794 56.6807 35.3993 55.8114L40.0732 48.0185V76.4772L10.9975 65.093C10.7294 64.9896 10.499 64.8072 10.3367 64.57C10.1744 64.3327 10.0879 64.0518 10.0885 63.7643ZM72.912 63.7643C72.9127 64.0516 72.8264 64.3324 72.6644 64.5696C72.5024 64.8068 72.2724 64.9893 72.0047 65.093L42.9272 76.4772V48.0133L47.6011 55.8062C48.1213 56.6752 48.9326 57.3316 49.8908 57.6586C50.8491 57.9856 51.8921 57.9621 52.8347 57.5923L72.912 49.7385V63.7643ZM79.2388 44.1872L51.7952 54.9332C51.4817 55.0545 51.1354 55.0612 50.8174 54.9521C50.4995 54.8429 50.2302 54.625 50.0571 54.3367L43.586 43.5716L73.7271 31.7717L79.9358 42.1212C80.0416 42.2992 80.1076 42.498 80.1294 42.704C80.1511 42.91 80.1281 43.1182 80.0619 43.3145C79.9957 43.5107 79.8879 43.6903 79.7458 43.841C79.6037 43.9916 79.4308 44.1097 79.2388 44.1872ZM41.5002 28.5718C43.1947 28.5718 44.8511 28.069 46.26 27.1271C47.6688 26.1852 48.7669 24.8465 49.4154 23.2801C50.0638 21.7138 50.2335 19.9902 49.9029 18.3274C49.5723 16.6646 48.7564 15.1372 47.5582 13.9384C46.3601 12.7395 44.8335 11.9231 43.1716 11.5924C41.5097 11.2616 39.7871 11.4314 38.2216 12.0802C36.6562 12.729 35.3181 13.8277 34.3767 15.2373C33.4354 16.647 32.9329 18.3043 32.9329 19.9997C32.9352 22.2725 33.8386 24.4515 35.4447 26.0585C37.0509 27.6656 39.2287 28.5695 41.5002 28.5718ZM41.5002 14.285C42.6298 14.285 43.7341 14.6202 44.6734 15.2481C45.6126 15.8761 46.3447 16.7686 46.777 17.8128C47.2093 18.857 47.3224 20.0061 47.102 21.1146C46.8816 22.2232 46.3377 23.2414 45.5389 24.0406C44.7401 24.8399 43.7224 25.3841 42.6145 25.6046C41.5065 25.8251 40.3581 25.712 39.3145 25.2794C38.2708 24.8469 37.3788 24.1144 36.7512 23.1746C36.1236 22.2349 35.7887 21.13 35.7887 19.9997C35.7905 18.4847 36.3928 17.0322 37.4636 15.9609C38.5343 14.8895 39.986 14.2869 41.5002 14.285Z" fill="#D39752"/>
</svg>
